<svg xmlns="http://www.w3.org/2000/svg" xmlns:xlink="http://www.w3.org/1999/xlink" width="448.957" height="342.839" viewBox="0 0 448.957 342.839">
  <defs>
    <clipPath id="clip-path">
      <rect id="Rectángulo_33845" data-name="Rectángulo 33845" width="448.957" height="307.908" transform="translate(0 0)" fill="none"/>
    </clipPath>
    <clipPath id="clip-path-2">
      <rect id="Rectángulo_33841" data-name="Rectángulo 33841" width="387.439" height="316.914" fill="none"/>
    </clipPath>
    <clipPath id="clip-path-3">
      <path id="Trazado_716441" data-name="Trazado 716441" d="M2266.441,4187.031v5.181a.868.868,0,1,0,1.736,0v-5.181Z" transform="translate(-2266.441 -4187.031)" fill="none"/>
    </clipPath>
    <clipPath id="clip-path-4">
      <path id="Trazado_716484" data-name="Trazado 716484" d="M2282.643,4232.852v5.181a.868.868,0,1,0,1.735,0v-5.181Z" transform="translate(-2282.643 -4232.852)" fill="none"/>
    </clipPath>
    <clipPath id="clip-path-5">
      <path id="Trazado_716489" data-name="Trazado 716489" d="M2268.847,4232.852v5.181a.868.868,0,1,0,1.736,0v-5.181Z" transform="translate(-2268.847 -4232.852)" fill="none"/>
    </clipPath>
    <clipPath id="clip-path-6">
      <path id="Trazado_716494" data-name="Trazado 716494" d="M2255.051,4232.852v5.181a.868.868,0,1,0,1.736,0v-5.181Z" transform="translate(-2255.051 -4232.852)" fill="none"/>
    </clipPath>
    <clipPath id="clip-path-7">
      <path id="Trazado_716499" data-name="Trazado 716499" d="M2238.837,4232.852v5.181a.868.868,0,1,0,1.736,0v-5.181Z" transform="translate(-2238.837 -4232.852)" fill="none"/>
    </clipPath>
    <clipPath id="clip-path-8">
      <path id="Trazado_716504" data-name="Trazado 716504" d="M2225.042,4232.852v5.181a.868.868,0,1,0,1.735,0v-5.181Z" transform="translate(-2225.042 -4232.852)" fill="none"/>
    </clipPath>
    <clipPath id="clip-path-9">
      <path id="Trazado_716509" data-name="Trazado 716509" d="M2211.246,4232.852v5.181a.868.868,0,1,0,1.735,0v-5.181Z" transform="translate(-2211.246 -4232.852)" fill="none"/>
    </clipPath>
  </defs>
  <g id="Grupo_1013450" data-name="Grupo 1013450" transform="translate(-935.507 -2132.863)">
    <g id="Grupo_1013423" data-name="Grupo 1013423" transform="translate(935.507 2132.863)">
      <g id="Grupo_1002335" data-name="Grupo 1002335" transform="translate(0 0)">
        <g id="Grupo_80327" data-name="Grupo 80327" transform="translate(0 0)" clip-path="url(#clip-path)">
          <path id="Trazado_113636" data-name="Trazado 113636" d="M269.675,283.856A134.838,134.838,0,1,1,134.838,149.018,134.838,134.838,0,0,1,269.675,283.856" transform="translate(0 -110.785)" fill="#0078bb"/>
          <path id="Trazado_113637" data-name="Trazado 113637" d="M1183.647,536.185a97.7,97.7,0,1,1-97.7-97.7,97.7,97.7,0,0,1,97.7,97.7" transform="translate(-734.689 -325.981)" fill="#008b8a"/>
          <path id="Trazado_113638" data-name="Trazado 113638" d="M1220.2,592.008a78.439,78.439,0,1,1-78.439-78.439,78.439,78.439,0,0,1,78.439,78.439" transform="translate(-790.513 -381.805)" fill="#fff"/>
          <path id="Trazado_113639" data-name="Trazado 113639" d="M646.621,681.142a47.678,47.678,0,1,1-47.678-47.678,47.678,47.678,0,0,1,47.678,47.678" transform="translate(-409.829 -470.939)" fill="#fff"/>
          <path id="Trazado_113665" data-name="Trazado 113665" d="M129.5,381.141a3.013,3.013,0,1,1-3.013-3.013,3.013,3.013,0,0,1,3.013,3.013" transform="translate(-91.796 -281.113)" fill="#fff"/>
          <path id="Trazado_113666" data-name="Trazado 113666" d="M181.177,381.141a3.013,3.013,0,1,1-3.013-3.013,3.013,3.013,0,0,1,3.013,3.013" transform="translate(-130.213 -281.113)" fill="#fff"/>
          <path id="Trazado_113667" data-name="Trazado 113667" d="M232.853,381.141a3.013,3.013,0,1,1-3.013-3.013,3.013,3.013,0,0,1,3.013,3.013" transform="translate(-168.63 -281.113)" fill="#fff"/>
          <path id="Trazado_113668" data-name="Trazado 113668" d="M284.528,381.141a3.013,3.013,0,1,1-3.013-3.013,3.013,3.013,0,0,1,3.013,3.013" transform="translate(-207.047 -281.113)" fill="#fff"/>
          <path id="Trazado_113669" data-name="Trazado 113669" d="M336.2,381.141a3.013,3.013,0,1,1-3.013-3.013,3.013,3.013,0,0,1,3.013,3.013" transform="translate(-245.464 -281.113)" fill="#fff"/>
          <path id="Trazado_113670" data-name="Trazado 113670" d="M129.5,430.467a3.013,3.013,0,1,1-3.013-3.013,3.013,3.013,0,0,1,3.013,3.013" transform="translate(-91.796 -317.784)" fill="#fff"/>
          <path id="Trazado_113671" data-name="Trazado 113671" d="M181.177,430.467a3.013,3.013,0,1,1-3.013-3.013,3.013,3.013,0,0,1,3.013,3.013" transform="translate(-130.213 -317.784)" fill="#fff"/>
          <path id="Trazado_113672" data-name="Trazado 113672" d="M232.853,430.467a3.013,3.013,0,1,1-3.013-3.013,3.013,3.013,0,0,1,3.013,3.013" transform="translate(-168.63 -317.784)" fill="#fff"/>
          <path id="Trazado_113673" data-name="Trazado 113673" d="M284.528,430.467a3.013,3.013,0,1,1-3.013-3.013,3.013,3.013,0,0,1,3.013,3.013" transform="translate(-207.047 -317.784)" fill="#fff"/>
          <path id="Trazado_113674" data-name="Trazado 113674" d="M336.2,430.467a3.013,3.013,0,1,1-3.013-3.013,3.013,3.013,0,0,1,3.013,3.013" transform="translate(-245.464 -317.784)" fill="#fff"/>
          <path id="Trazado_113675" data-name="Trazado 113675" d="M129.5,479.794a3.013,3.013,0,1,1-3.013-3.013,3.013,3.013,0,0,1,3.013,3.013" transform="translate(-91.796 -354.455)" fill="#fff"/>
          <path id="Trazado_113676" data-name="Trazado 113676" d="M181.177,479.794a3.013,3.013,0,1,1-3.013-3.013,3.013,3.013,0,0,1,3.013,3.013" transform="translate(-130.213 -354.455)" fill="#fff"/>
          <path id="Trazado_113677" data-name="Trazado 113677" d="M232.853,479.794a3.013,3.013,0,1,1-3.013-3.013,3.013,3.013,0,0,1,3.013,3.013" transform="translate(-168.63 -354.455)" fill="#fff"/>
          <path id="Trazado_113678" data-name="Trazado 113678" d="M284.528,479.794a3.013,3.013,0,1,1-3.013-3.013,3.013,3.013,0,0,1,3.013,3.013" transform="translate(-207.047 -354.455)" fill="#fff"/>
          <path id="Trazado_113679" data-name="Trazado 113679" d="M336.2,479.794a3.013,3.013,0,1,1-3.013-3.013,3.013,3.013,0,0,1,3.013,3.013" transform="translate(-245.464 -354.455)" fill="#fff"/>
          <path id="Trazado_113680" data-name="Trazado 113680" d="M129.5,529.12a3.013,3.013,0,1,1-3.013-3.013,3.013,3.013,0,0,1,3.013,3.013" transform="translate(-91.796 -391.126)" fill="#fff"/>
          <path id="Trazado_113681" data-name="Trazado 113681" d="M181.177,529.12a3.013,3.013,0,1,1-3.013-3.013,3.013,3.013,0,0,1,3.013,3.013" transform="translate(-130.213 -391.126)" fill="#fff"/>
          <path id="Trazado_113682" data-name="Trazado 113682" d="M232.853,529.12a3.013,3.013,0,1,1-3.013-3.013,3.013,3.013,0,0,1,3.013,3.013" transform="translate(-168.63 -391.126)" fill="#fff"/>
          <path id="Trazado_113683" data-name="Trazado 113683" d="M284.528,529.12a3.013,3.013,0,1,1-3.013-3.013,3.013,3.013,0,0,1,3.013,3.013" transform="translate(-207.047 -391.126)" fill="#fff"/>
          <path id="Trazado_113684" data-name="Trazado 113684" d="M336.2,529.12a3.013,3.013,0,1,1-3.013-3.013,3.013,3.013,0,0,1,3.013,3.013" transform="translate(-245.464 -391.126)" fill="#fff"/>
          <path id="Trazado_113685" data-name="Trazado 113685" d="M129.5,578.446a3.013,3.013,0,1,1-3.013-3.013,3.013,3.013,0,0,1,3.013,3.013" transform="translate(-91.796 -427.797)" fill="#fff"/>
          <path id="Trazado_113686" data-name="Trazado 113686" d="M181.177,578.446a3.013,3.013,0,1,1-3.013-3.013,3.013,3.013,0,0,1,3.013,3.013" transform="translate(-130.213 -427.797)" fill="#fff"/>
          <path id="Trazado_113687" data-name="Trazado 113687" d="M232.853,578.446a3.013,3.013,0,1,1-3.013-3.013,3.013,3.013,0,0,1,3.013,3.013" transform="translate(-168.63 -427.797)" fill="#fff"/>
          <path id="Trazado_113688" data-name="Trazado 113688" d="M284.528,578.446a3.013,3.013,0,1,1-3.013-3.013,3.013,3.013,0,0,1,3.013,3.013" transform="translate(-207.047 -427.797)" fill="#fff"/>
          <path id="Trazado_113689" data-name="Trazado 113689" d="M336.2,578.446a3.013,3.013,0,1,1-3.013-3.013,3.013,3.013,0,0,1,3.013,3.013" transform="translate(-245.464 -427.797)" fill="#fff"/>
          <rect id="Rectángulo_33843" data-name="Rectángulo 33843" width="52.933" height="12.382" transform="translate(221.991 49.531)" fill="#ffa031"/>
        </g>
      </g>
      <g id="Grupo_1002336" data-name="Grupo 1002336" transform="translate(36.473 25.925)" opacity="0.251">
        <g id="Grupo_80323" data-name="Grupo 80323" transform="translate(0 0)" clip-path="url(#clip-path-2)">
          <path id="Trazado_113615" data-name="Trazado 113615" d="M247.569,311.928c-3.659-.278-7.393-.437-11.218-.408-20.234.15-40.025,5.595-60.384,5.385-43.137-.445-87.534-4.916-124.816-32.545C-31.446,223.148-4.371,92.027,64.1,38.2,100.484,9.594,145.8.848,189.221.039,245.114-1,316.8,16.677,356.85,63.728c27.9,32.783,34.837,109.16,28.316,152.438-5.191,34.448-24.676,66.934-49.289,85.843-30.7,23.582-56.721,12.316-88.308,9.919" transform="translate(0 0.004)" fill="#e0f4fe"/>
        </g>
      </g>
    </g>
    <g id="Grupo_1013948" data-name="Grupo 1013948" transform="translate(1030.29 2198.449)">
      <g id="Grupo_1013553" data-name="Grupo 1013553" transform="translate(25.197 49.641)">
        <g id="Grupo_1013548" data-name="Grupo 1013548" transform="translate(0 33.416)" opacity="0.5" style="mix-blend-mode: multiply;isolation: isolate">
          <path id="Trazado_716398" data-name="Trazado 716398" d="M1711.22,4281.437a14.046,14.046,0,1,0,27.914-2.285H1711.4A14.114,14.114,0,0,0,1711.22,4281.437Z" transform="translate(-1711.22 -4279.152)" fill="#63c373"/>
        </g>
        <g id="Grupo_1013551" data-name="Grupo 1013551">
          <g id="Grupo_1013549" data-name="Grupo 1013549" transform="translate(6.59)" opacity="0.5" style="mix-blend-mode: multiply;isolation: isolate">
            <path id="Trazado_716399" data-name="Trazado 716399" d="M1736.739,4166.347h9.717c.943,0,2.6-.764,2.6-1.707s-1.655-1.708-2.6-1.708h-9.717c-.943,0-2.6.764-2.6,1.708S1735.8,4166.347,1736.739,4166.347Z" transform="translate(-1734.141 -4162.932)" fill="#1bbdcc"/>
          </g>
          <g id="Grupo_1013550" data-name="Grupo 1013550" transform="translate(0 3.415)" opacity="0.3" style="mix-blend-mode: multiply;isolation: isolate">
            <path id="Trazado_716400" data-name="Trazado 716400" d="M1711.22,4207.095a13.926,13.926,0,0,0,1.122,5.44,14.044,14.044,0,0,0,26.011-.375c.048-.123.094-.248.139-.373a14.009,14.009,0,0,0,.82-4.738c0-.145,0-.289-.007-.434a13.845,13.845,0,0,0-.171-1.806c-.01-.063-.021-.127-.032-.191l-.024-.134c-.006-.038-.013-.074-.02-.111-.045-.233-.1-.464-.152-.693-.03-.122-.061-.242-.094-.362-.017-.063-.035-.126-.053-.189s-.036-.122-.054-.183c-.052-.17-.107-.338-.165-.5-.016-.046-.032-.092-.048-.138-.03-.083-.062-.167-.093-.25-.022-.059-.045-.118-.069-.176s-.046-.116-.07-.174-.049-.12-.075-.178l-.073-.167c-.075-.17-.155-.341-.237-.508-.028-.055-.055-.111-.084-.167s-.056-.11-.086-.166-.059-.111-.088-.165-.049-.09-.075-.136q-.192-.346-.406-.682c-.029-.046-.06-.094-.09-.141s-.074-.113-.112-.169l-.081-.118c-.056-.081-.112-.161-.17-.241s-.1-.141-.154-.211l-.014-.02c-.054-.072-.108-.144-.164-.214l-.026-.033c-.058-.075-.118-.149-.178-.222,0-.008-.01-.011-.014-.018-.064-.079-.13-.156-.2-.234s-.133-.153-.2-.228c-.082-.091-.151-.167-.223-.242-.143-.153-.291-.3-.442-.451-.076-.074-.151-.146-.229-.218s-.155-.143-.233-.213-.157-.139-.238-.207-.164-.138-.243-.2a13.891,13.891,0,0,0-1.407-1.01c-.059-.038-.119-.074-.178-.11-.178-.108-.36-.214-.544-.314l-.091-.053a3.124,3.124,0,0,1-1.38-1.729c-.011-.034-.022-.066-.03-.1q-.028-.1-.048-.2a2.842,2.842,0,0,1-.047-.3,3.092,3.092,0,0,1-.018-.329v-17.205h-10.238v17.2a3.08,3.08,0,0,1-1.605,2.7,14.026,14.026,0,0,0-7.322,12.381Z" transform="translate(-1711.22 -4174.808)" fill="#2bdff0"/>
          </g>
        </g>
        <g id="Grupo_1013552" data-name="Grupo 1013552" transform="translate(1.122 3.415)" opacity="0.1" style="mix-blend-mode: multiply;isolation: isolate">
          <path id="Trazado_716401" data-name="Trazado 716401" d="M1715.123,4212.535a14.044,14.044,0,0,0,26.011-.375,1.13,1.13,0,0,1,.139-.373,14.009,14.009,0,0,0,.82-4.738c0-.145,0-.289-.007-.434a14.073,14.073,0,0,0-5.38-10.631c-1.2-.944-2.9-1.466-3.4-3.046-.011-.034-.022-.066-.03-.1q-.028-.1-.048-.2a2.842,2.842,0,0,1-.047-.3,3.092,3.092,0,0,1-.018-.329v-17.205h-10.238v3.8c2.23-2.958,5.677-2.082,7.41-1.616,1.682.454-.577,14.251,1.248,16.335.649.742,1.37,1.526,2.038,2.234a8.164,8.164,0,0,1,2.209,6.047c-.2,3.679-1.164,8.081-4.248,10.8C1726.893,4216.535,1719.181,4215.58,1715.123,4212.535Z" transform="translate(-1715.123 -4174.808)"/>
        </g>
      </g>
      <g id="nature_chemistry" data-name="nature chemistry" transform="translate(67.316 62.016)">
        <g id="Grupo_1013555" data-name="Grupo 1013555" transform="translate(26.604 3.649)">
          <g id="Grupo_1013554" data-name="Grupo 1013554" opacity="0.5" style="mix-blend-mode: multiply;isolation: isolate">
            <path id="Trazado_716402" data-name="Trazado 716402" d="M1950.233,4218.661v27.209a3.679,3.679,0,0,0,3.467,3.672l.053,0c.052,0,.105,0,.158,0s.106,0,.158,0l.053,0a3.679,3.679,0,0,0,3.467-3.672v-27.209Z" transform="translate(-1950.233 -4218.661)" fill="#9ce9f0"/>
          </g>
        </g>
        <g id="Grupo_1013557" data-name="Grupo 1013557" transform="translate(26.604 3.649)">
          <g id="Grupo_1013556" data-name="Grupo 1013556" opacity="0.5" style="mix-blend-mode: multiply;isolation: isolate">
            <path id="Trazado_716403" data-name="Trazado 716403" d="M1950.233,4218.661v27.209a3.679,3.679,0,0,0,3.467,3.672l.053,0c.052,0,.105,0,.158,0s.106,0,.158,0l.053,0a3.678,3.678,0,0,0,2.934-1.764,3.666,3.666,0,0,1-.762.125l-.053,0c-.052,0-.105,0-.158,0s-.106,0-.158,0l-.053,0a3.679,3.679,0,0,1-3.467-3.672v-25.57Z" transform="translate(-1950.233 -4218.661)" fill="#9ce9f0"/>
          </g>
        </g>
        <g id="Grupo_1013560" data-name="Grupo 1013560" transform="translate(25.641)">
          <g id="Grupo_1013558" data-name="Grupo 1013558">
            <path id="Trazado_716404" data-name="Trazado 716404" d="M1946.885,4205.97v1.08l.963,2.569v3.064h7.358v-3.064l.963-2.569v-1.08Z" transform="translate(-1946.885 -4205.97)" fill="#d95962"/>
          </g>
          <g id="Grupo_1013559" data-name="Grupo 1013559">
            <path id="Trazado_716405" data-name="Trazado 716405" d="M1956.168,4207.05h-6.149v-1.08h-3.134v1.08l.963,2.569v3.064h2.172v-3.064h5.186Z" transform="translate(-1946.885 -4205.97)" fill="#cc4751"/>
          </g>
        </g>
        <g id="Grupo_1013561" data-name="Grupo 1013561" transform="translate(25.641 1.08)">
          <path id="Trazado_716406" data-name="Trazado 716406" d="M1955.205,4212.3h-7.358l-.963-2.569h9.283Z" transform="translate(-1946.885 -4209.727)" fill="#b3363f"/>
        </g>
        <g id="Grupo_1013562" data-name="Grupo 1013562" transform="translate(26.604 18.079)" opacity="0.5">
          <path id="Trazado_716407" data-name="Trazado 716407" d="M1950.233,4268.847v12.78a3.68,3.68,0,0,0,3.467,3.672l.053,0c.052,0,.105,0,.158,0s.106,0,.158,0l.053,0a3.68,3.68,0,0,0,3.467-3.672v-12.78Z" transform="translate(-1950.233 -4268.847)" fill="#21d7e8"/>
        </g>
        <g id="Grupo_1013564" data-name="Grupo 1013564" transform="translate(15.468 3.649)">
          <g id="Grupo_1013563" data-name="Grupo 1013563" opacity="0.5" style="mix-blend-mode: multiply;isolation: isolate">
            <path id="Trazado_716408" data-name="Trazado 716408" d="M1911.5,4218.661v27.209a3.679,3.679,0,0,0,3.467,3.672l.053,0c.052,0,.105,0,.158,0s.106,0,.158,0l.053,0a3.679,3.679,0,0,0,3.468-3.672v-27.209Z" transform="translate(-1911.502 -4218.661)" fill="#9ce9f0"/>
          </g>
        </g>
        <g id="Grupo_1013566" data-name="Grupo 1013566" transform="translate(15.468 3.649)">
          <g id="Grupo_1013565" data-name="Grupo 1013565" opacity="0.5" style="mix-blend-mode: multiply;isolation: isolate">
            <path id="Trazado_716409" data-name="Trazado 716409" d="M1911.5,4218.661v27.209a3.679,3.679,0,0,0,3.467,3.672l.053,0c.052,0,.105,0,.158,0s.106,0,.158,0l.053,0a3.678,3.678,0,0,0,2.934-1.764,3.672,3.672,0,0,1-.762.125l-.053,0c-.053,0-.105,0-.159,0s-.106,0-.158,0l-.053,0a3.679,3.679,0,0,1-3.468-3.672v-25.57Z" transform="translate(-1911.502 -4218.661)" fill="#9ce9f0"/>
          </g>
        </g>
        <g id="Grupo_1013569" data-name="Grupo 1013569" transform="translate(14.505)">
          <g id="Grupo_1013567" data-name="Grupo 1013567">
            <path id="Trazado_716410" data-name="Trazado 716410" d="M1908.154,4205.97v1.08l.963,2.569v3.064h7.358v-3.064l.962-2.569v-1.08Z" transform="translate(-1908.154 -4205.97)" fill="#d95962"/>
          </g>
          <g id="Grupo_1013568" data-name="Grupo 1013568">
            <path id="Trazado_716411" data-name="Trazado 716411" d="M1917.437,4207.05h-6.149v-1.08h-3.134v1.08l.963,2.569v3.064h2.172v-3.064h5.186Z" transform="translate(-1908.154 -4205.97)" fill="#cc4751"/>
          </g>
        </g>
        <g id="Grupo_1013570" data-name="Grupo 1013570" transform="translate(14.505 1.08)">
          <path id="Trazado_716412" data-name="Trazado 716412" d="M1916.475,4212.3h-7.358l-.963-2.569h9.283Z" transform="translate(-1908.154 -4209.727)" fill="#b3363f"/>
        </g>
        <g id="Grupo_1013571" data-name="Grupo 1013571" transform="translate(15.468 18.079)" opacity="0.5">
          <path id="Trazado_716413" data-name="Trazado 716413" d="M1911.5,4268.847v12.78a3.679,3.679,0,0,0,3.467,3.672l.053,0c.052,0,.105,0,.158,0s.106,0,.158,0l.053,0a3.68,3.68,0,0,0,3.468-3.672v-12.78Z" transform="translate(-1911.502 -4268.847)" fill="#21d7e8"/>
        </g>
        <g id="Grupo_1013573" data-name="Grupo 1013573" transform="translate(4.332 3.649)">
          <g id="Grupo_1013572" data-name="Grupo 1013572" opacity="0.5" style="mix-blend-mode: multiply;isolation: isolate">
            <path id="Trazado_716414" data-name="Trazado 716414" d="M1872.771,4218.661v27.209a3.679,3.679,0,0,0,3.468,3.672l.053,0c.053,0,.105,0,.158,0s.106,0,.159,0l.053,0a3.679,3.679,0,0,0,3.467-3.672v-27.209Z" transform="translate(-1872.771 -4218.661)" fill="#9ce9f0"/>
          </g>
        </g>
        <g id="Grupo_1013575" data-name="Grupo 1013575" transform="translate(4.332 3.649)">
          <g id="Grupo_1013574" data-name="Grupo 1013574" opacity="0.5" style="mix-blend-mode: multiply;isolation: isolate">
            <path id="Trazado_716415" data-name="Trazado 716415" d="M1872.771,4218.661v27.209a3.679,3.679,0,0,0,3.468,3.672l.053,0c.053,0,.105,0,.158,0s.106,0,.159,0l.053,0a3.678,3.678,0,0,0,2.934-1.764,3.666,3.666,0,0,1-.762.125l-.053,0c-.052,0-.1,0-.158,0s-.106,0-.159,0l-.053,0a3.68,3.68,0,0,1-3.467-3.672v-25.57Z" transform="translate(-1872.771 -4218.661)" fill="#9ce9f0"/>
          </g>
        </g>
        <g id="Grupo_1013578" data-name="Grupo 1013578" transform="translate(3.369)">
          <g id="Grupo_1013576" data-name="Grupo 1013576">
            <path id="Trazado_716416" data-name="Trazado 716416" d="M1869.424,4205.97v1.08l.962,2.569v3.064h7.358v-3.064l.963-2.569v-1.08Z" transform="translate(-1869.424 -4205.97)" fill="#d95962"/>
          </g>
          <g id="Grupo_1013577" data-name="Grupo 1013577">
            <path id="Trazado_716417" data-name="Trazado 716417" d="M1878.706,4207.05h-6.149v-1.08h-3.134v1.08l.962,2.569v3.064h2.172v-3.064h5.186Z" transform="translate(-1869.424 -4205.97)" fill="#cc4751"/>
          </g>
        </g>
        <g id="Grupo_1013579" data-name="Grupo 1013579" transform="translate(3.369 1.08)">
          <path id="Trazado_716418" data-name="Trazado 716418" d="M1877.744,4212.3h-7.358l-.962-2.569h9.283Z" transform="translate(-1869.424 -4209.727)" fill="#b3363f"/>
        </g>
        <g id="Grupo_1013580" data-name="Grupo 1013580" transform="translate(4.332 18.079)" opacity="0.5">
          <path id="Trazado_716419" data-name="Trazado 716419" d="M1872.771,4268.847v12.78a3.68,3.68,0,0,0,3.468,3.672l.053,0c.053,0,.105,0,.158,0s.106,0,.159,0l.053,0a3.679,3.679,0,0,0,3.467-3.672v-12.78Z" transform="translate(-1872.771 -4268.847)" fill="#21d7e8"/>
        </g>
        <g id="Grupo_1013581" data-name="Grupo 1013581" transform="translate(0 27.437)">
          <path id="Trazado_716420" data-name="Trazado 716420" d="M1857.706,4301.4v9.067h1.791v-7.137h34.714v7.137H1896V4301.4Z" transform="translate(-1857.706 -4301.395)" fill="#5b5047"/>
        </g>
      </g>
      <g id="Grupo_1013726" data-name="Grupo 1013726" transform="translate(0 0)">
        <g id="Grupo_1013651" data-name="Grupo 1013651" transform="translate(181.933)">
          <g id="Grupo_1013582" data-name="Grupo 1013582" transform="translate(45.491 18.414)" opacity="0.6">
            <path id="Trazado_716421" data-name="Trazado 716421" d="M2414.559,4054.461l.528,2.708a1.569,1.569,0,0,0,1.318,1.255c.459-.039,1.612-.137,1.828-.156l.035,0c.052-.006-.585-2.808-.846-3.94C2415.886,4054.438,2414.559,4054.461,2414.559,4054.461Z" transform="translate(-2414.559 -4054.324)" fill="#36bbc9"/>
          </g>
          <g id="left_leg" data-name="left leg" transform="translate(33.034 120.255)">
            <g id="Grupo_1013586" data-name="Grupo 1013586" transform="translate(0 73.608)">
              <g id="Grupo_1013583" data-name="Grupo 1013583" transform="translate(5.913)">
                <path id="Trazado_716422" data-name="Trazado 716422" d="M2404.606,4667.1s-.9,3.032-.615,4.548-9.9,3.648-11.371,2.748-.521-1.8-.521-1.8,5.385-1.137,6.1-6.017S2404.606,4667.1,2404.606,4667.1Z" transform="translate(-2391.798 -4664.533)" fill="#ecb984"/>
              </g>
              <g id="Grupo_1013584" data-name="Grupo 1013584" transform="translate(0 6.206)">
                <path id="Trazado_716423" data-name="Trazado 716423" d="M2371.235,4690.427c.114.908,1.967,2.118,2.912,2.383a14.345,14.345,0,0,0,5.971-.644c1.129-.6,5-1.021,5-1.021v1.286h5.03a12.406,12.406,0,0,0,.219-2.385,7.936,7.936,0,0,0-.9-3.931c-2.156.151-3.1,1.362-4.8,1.929a13.106,13.106,0,0,1-5.03.946c-2.118-.038-2.185-1.022-2.185-1.022-3.047-.365-5.618,1.106-6.123,2.085A.644.644,0,0,0,2371.235,4690.427Z" transform="translate(-2371.232 -4686.116)" fill="#f5e8d0"/>
              </g>
              <g id="Grupo_1013585" data-name="Grupo 1013585" transform="translate(0 9.959)">
                <path id="Trazado_716424" data-name="Trazado 716424" d="M2371.235,4699.728c.114.908,1.967,2.118,2.912,2.383a14.345,14.345,0,0,0,5.971-.644c1.129-.6,5-1.021,5-1.021v1.287h5.03a12.409,12.409,0,0,0,.219-2.385,19.667,19.667,0,0,0-5.225,0,24.048,24.048,0,0,0-3.326.587c-1.271.316-2.516.737-3.8,1.008a9.1,9.1,0,0,1-3.9.1,4.983,4.983,0,0,1-2.8-1.683A.645.645,0,0,0,2371.235,4699.728Z" transform="translate(-2371.232 -4699.169)" fill="#ebdbc1"/>
              </g>
            </g>
            <g id="Grupo_1013589" data-name="Grupo 1013589" transform="translate(4.99)">
              <g id="Grupo_1013587" data-name="Grupo 1013587">
                <path id="Trazado_716425" data-name="Trazado 716425" d="M2388.586,4430.6s.557,4.734,1.06,9.072c.309,2.663.6,5.177.725,6.357.644,5.918.306,11.859,1.118,17.805.906,6.625,2.229,13.19,3.016,19.833a1.371,1.371,0,0,0,.687,1.052,6.7,6.7,0,0,0,1.715.629,12.72,12.72,0,0,0,5.108-.088,1.4,1.4,0,0,0,1.07-1.014c1.886-6.939,8.087-23.615,9.008-31.217a30.118,30.118,0,0,0-1.918-14.394s.12-27.946-7.3-29.985S2388.586,4430.6,2388.586,4430.6Z" transform="translate(-2388.586 -4408.526)" fill="#56453e"/>
              </g>
              <g id="Grupo_1013588" data-name="Grupo 1013588">
                <path id="Trazado_716426" data-name="Trazado 716426" d="M2388.586,4430.6s.557,4.734,1.06,9.072c.243.054.5.108.774.168,4,.88,8.141,2.184,11.091,5.177,3.067,3.111,4.364,7.627,4.427,12s-.983,8.667-2.024,12.909c-1.313,5.365-2.768,10.994-6.583,14.986-.138.146-.282.291-.423.441a12.72,12.72,0,0,0,5.108-.088,1.4,1.4,0,0,0,1.07-1.014c1.886-6.939,8.087-23.615,9.008-31.217a30.118,30.118,0,0,0-1.918-14.394s.12-27.946-7.3-29.985S2388.586,4430.6,2388.586,4430.6Z" transform="translate(-2388.586 -4408.526)" fill="#4d3c35"/>
              </g>
            </g>
          </g>
          <g id="right_lag" data-name="right lag" transform="translate(63.209 146.424)">
            <g id="Grupo_1013594" data-name="Grupo 1013594" transform="translate(27.323 41.597)">
              <g id="Grupo_1013590" data-name="Grupo 1013590" transform="translate(1.144)">
                <path id="Trazado_716427" data-name="Trazado 716427" d="M2581.225,4644.215a10.418,10.418,0,0,0,1.218,2.968c.913,1.5-.051,8.9-1.826,10.475s-5.427,0-5.427,0,2.379-4.646,2.184-6.688a51.2,51.2,0,0,0-1.018-5.283Z" transform="translate(-2575.189 -4644.215)" fill="#ecb984"/>
              </g>
              <g id="Grupo_1013591" data-name="Grupo 1013591" transform="translate(0 2.959)">
                <path id="Trazado_716428" data-name="Trazado 716428" d="M2571.315,4669.035a2.155,2.155,0,0,0,.264.67c.825,1.287,4.489.692,6.106-1.321a38.853,38.853,0,0,0,3.566-6.337l1.353-.1s1.122-2.739.792-3.96a5.922,5.922,0,0,0-1.544-2.167c-.806-.782-1.721-1.4-2.242-1.308a18.039,18.039,0,0,0-.819,4.917c.022,2.146-1.269,4.86-2.061,5.125s-3.467-.4-4.374,0C2571.579,4664.9,2570.958,4667.489,2571.315,4669.035Z" transform="translate(-2571.212 -4654.505)" fill="#f5e8d0"/>
              </g>
              <g id="Grupo_1013592" data-name="Grupo 1013592" transform="translate(0.104 4.275)">
                <path id="Trazado_716429" data-name="Trazado 716429" d="M2571.574,4672.3a2.13,2.13,0,0,0,.264.67c.826,1.287,4.49.692,6.106-1.321.077-.095.153-.2.231-.3a41.583,41.583,0,0,0,3.334-6.038l1.352-.1s1.123-2.738.792-3.96a5.921,5.921,0,0,0-1.544-2.166,1.173,1.173,0,0,0-.012.176,13.434,13.434,0,0,1-.2,2.366,17.363,17.363,0,0,1-1.56,4.5c-.405.821-.856,1.617-1.336,2.4a10.075,10.075,0,0,1-3.242,3.591A4.25,4.25,0,0,1,2571.574,4672.3Z" transform="translate(-2571.574 -4659.084)" fill="#d9c5a7"/>
              </g>
              <g id="Grupo_1013593" data-name="Grupo 1013593" transform="translate(0.104 4.275)">
                <path id="Trazado_716430" data-name="Trazado 716430" d="M2571.574,4672.3a2.13,2.13,0,0,0,.264.67c.826,1.287,4.49.692,6.106-1.321.077-.095.153-.2.231-.3a47.092,47.092,0,0,0,3.548-6.527l1.138.391s1.123-2.738.792-3.96a5.921,5.921,0,0,0-1.544-2.166,1.173,1.173,0,0,0-.012.176,13.434,13.434,0,0,1-.2,2.366,17.363,17.363,0,0,1-1.56,4.5c-.405.821-.856,1.617-1.336,2.4a10.075,10.075,0,0,1-3.242,3.591A4.25,4.25,0,0,1,2571.574,4672.3Z" transform="translate(-2571.574 -4659.084)" fill="#ebdbc1"/>
              </g>
            </g>
            <g id="Grupo_1013597" data-name="Grupo 1013597">
              <g id="Grupo_1013595" data-name="Grupo 1013595">
                <path id="Trazado_716431" data-name="Trazado 716431" d="M2476.182,4499.542q.293,1.921.713,3.831c.372,1.693.82,3.37,1.334,5.015.067.214.138.428.212.638,2.37,6.747,7.939,10.878,12.377,16.258a181.941,181.941,0,0,1,11.545,16.012c.281.424,1.963,3.616,2.34,3.609a12.6,12.6,0,0,0,1.638-.14c3.643-.565,4.878-2.66,5.254-3.6a1.808,1.808,0,0,0,.124-.8c-1.388-19.275-6.351-29.187-8.506-30.937s-4.062-8.26-4.062-8.26l-18.2-1.287Z" transform="translate(-2476.182 -4499.542)" fill="#56453e"/>
              </g>
              <g id="Grupo_1013596" data-name="Grupo 1013596" transform="translate(0.713 0.338)">
                <path id="Trazado_716432" data-name="Trazado 716432" d="M2478.663,4504.21c.372,1.693.819,3.37,1.334,5.015.068.214.138.428.212.638,3.389-.476,6.665-1.183,10.121-1.016a16.674,16.674,0,0,1,10.781,4.129c2.9,2.777,4.273,6.771,5.213,10.675a71.47,71.47,0,0,1,1.785,21.95c3.643-.565,4.878-2.66,5.254-3.6a1.812,1.812,0,0,0,.124-.8c-1.389-19.275-6.352-29.187-8.506-30.937s-4.062-8.26-4.062-8.26l-18.2-1.287A10.817,10.817,0,0,0,2478.663,4504.21Z" transform="translate(-2478.663 -4500.717)" fill="#4d3c35"/>
              </g>
            </g>
          </g>
          <g id="left_hand" data-name="left hand" transform="translate(0 39.391)">
            <g id="Grupo_1013598" data-name="Grupo 1013598" transform="translate(0 15.503)">
              <path id="Trazado_716433" data-name="Trazado 716433" d="M2258.016,4181.654c-.064-.016-1.591.032-1.671.514s1.559.755,1.559.755-.948.033-.884.53,1.43.563,1.96.627,4.323.129,4.419-.643a2.139,2.139,0,0,0-1.655-2.218A17.545,17.545,0,0,0,2258.016,4181.654Z" transform="translate(-2256.342 -4181.201)" fill="#5abad1"/>
            </g>
            <g id="Grupo_1013602" data-name="Grupo 1013602" transform="translate(8.195)">
              <g id="Grupo_1013599" data-name="Grupo 1013599" transform="translate(0.546)">
                <path id="Trazado_716434" data-name="Trazado 716434" d="M2286.742,4150.442s24.833,12.2,28.7,13.41,6.954-2.759,8.057-4.635c.788-1.339,4.708-15.872,4.908-24.913.081-3.628-.438-6.37-2-7.023,0,0-6.774.7-13.837,23.77,0,0-19.14-5.33-23.775-6.653l-.563,2.083Z" transform="translate(-2286.742 -4127.281)" fill="#f5e8d0"/>
              </g>
              <g id="Grupo_1013600" data-name="Grupo 1013600" transform="translate(0.546 6.901)">
                <path id="Trazado_716435" data-name="Trazado 716435" d="M2286.742,4167.542s24.833,12.2,28.7,13.41,6.954-2.759,8.057-4.635c.788-1.339,4.708-15.872,4.908-24.913a4.178,4.178,0,0,0-3.217.478,2.149,2.149,0,0,0-.911,1.69,6.2,6.2,0,0,1-1.262,3.288,20.637,20.637,0,0,1-3.774,3.062,7.213,7.213,0,0,0-2.956,3.755c-.69,2.73,1.346,5.824.036,8.317a4.551,4.551,0,0,1-3.183,2.166,11.268,11.268,0,0,1-3.957-.087,46.427,46.427,0,0,1-15.549-5.369c-2.195-1.231-4.449-2.894-5.4-5.125Z" transform="translate(-2286.742 -4151.281)" fill="#e8d2b0"/>
              </g>
              <g id="Grupo_1013601" data-name="Grupo 1013601" transform="translate(0 17.086)">
                <path id="Trazado_716436" data-name="Trazado 716436" d="M2285.524,4192.841c.541.17,1.239-.423,1.781-1.421a6.777,6.777,0,0,0,.509-1.213,5.893,5.893,0,0,0,.291-2.241c-.062-.65-.288-1.114-.664-1.231a1.035,1.035,0,0,0-.962.335,5.3,5.3,0,0,0-1.327,2.3,6.625,6.625,0,0,0-.3,1.575C2284.793,4191.935,2285.03,4192.687,2285.524,4192.841Z" transform="translate(-2284.843 -4186.707)" fill="#d1b484"/>
              </g>
            </g>
            <g id="Grupo_1013603" data-name="Grupo 1013603" transform="translate(1.04 15.036)">
              <path id="Trazado_716437" data-name="Trazado 716437" d="M2260.684,4180.942c.746.109,3.871.506,4.174.809s.242.9-.586.874-2.677-.5-2.98.055.3,1.214,1.489,1.435l1.263.233a1.587,1.587,0,0,1,.98.611,2.209,2.209,0,0,0,1.73.894l.368.012a5.125,5.125,0,0,1,2.453.474,6.787,6.787,0,0,0,.509-1.213,5.9,5.9,0,0,0,.291-2.241,3.952,3.952,0,0,1-1.468-.758,1.771,1.771,0,0,0-.158-.138,17.544,17.544,0,0,0-3.76-2.151c-.717-.167-4.664-.5-4.911,0S2259.94,4180.832,2260.684,4180.942Z" transform="translate(-2259.959 -4179.577)" fill="#7bcce0"/>
            </g>
            <g id="Grupo_1013609" data-name="Grupo 1013609" transform="translate(2.408 10.944)">
              <g id="Grupo_1013604" data-name="Grupo 1013604">
                <path id="Trazado_716438" data-name="Trazado 716438" d="M2265.239,4167.947h1.711l.521-2.6h-2.752Z" transform="translate(-2264.718 -4165.344)" fill="#c93831"/>
              </g>
              <g id="Grupo_1013607" data-name="Grupo 1013607" transform="translate(0.495 6.236)">
                <g id="Grupo_1013606" data-name="Grupo 1013606">
                  <g id="Grupo_1013605" data-name="Grupo 1013605" clip-path="url(#clip-path-3)">
                    <path id="Trazado_716439" data-name="Trazado 716439" d="M2272.478,4187.031v0Z" transform="translate(-2270.742 -4187.031)" fill="#003b57"/>
                    <rect id="Rectángulo_347367" data-name="Rectángulo 347367" width="1.736" height="6.049" transform="translate(0)" fill="#003b57"/>
                    <path id="Trazado_716440" data-name="Trazado 716440" d="M2266.441,4193.08v0Z" transform="translate(-2266.441 -4187.031)" fill="#003b57"/>
                  </g>
                </g>
              </g>
              <g id="Grupo_1013608" data-name="Grupo 1013608" transform="translate(0.495 2.604)" opacity="0.3">
                <path id="Trazado_716442" data-name="Trazado 716442" d="M2266.441,4174.4v8.813a.868.868,0,1,0,1.736,0V4174.4Z" transform="translate(-2266.441 -4174.4)" fill="#2bdff0"/>
              </g>
            </g>
            <g id="Grupo_1013610" data-name="Grupo 1013610" transform="translate(2.296 15.876)">
              <path id="Trazado_716443" data-name="Trazado 716443" d="M2267.384,4184.707c.709.025.853-.409.69-.726a2.069,2.069,0,0,0,1.294-1.482,19.989,19.989,0,0,1,2.493,1.574,1.7,1.7,0,0,1,.158.138,3.952,3.952,0,0,0,1.468.758,5.9,5.9,0,0,1-.291,2.241,6.8,6.8,0,0,1-.509,1.213,5.12,5.12,0,0,0-2.453-.474l-.368-.012a2.21,2.21,0,0,1-1.73-.895,1.591,1.591,0,0,0-.98-.611l-1.263-.232c-1.186-.221-1.792-.883-1.489-1.435S2266.557,4184.68,2267.384,4184.707Z" transform="translate(-2264.327 -4182.498)" fill="#7bcce0"/>
            </g>
          </g>
          <g id="Head" transform="translate(45.491)">
            <g id="Grupo_1013611" data-name="Grupo 1013611" transform="translate(4.624 27.956)">
              <path id="Trazado_716444" data-name="Trazado 716444" d="M2431.989,4087.512a21.584,21.584,0,0,1-1.06,12.638c-2.705,6.361,14.619-4.41,14.619-4.41Z" transform="translate(-2430.642 -4087.512)" fill="#b8a393"/>
            </g>
            <g id="Grupo_1013612" data-name="Grupo 1013612" transform="translate(11.867 25.216)">
              <path id="Trazado_716445" data-name="Trazado 716445" d="M2455.878,4099c.25,1.241,7.756-4,12.15-7.878,1.926-1.693,3.255-3.128,3.12-3.641-.326-1.19-2.5-3.958-4-6.392-.313-.508-.6-1-.825-1.461a7.381,7.381,0,0,1-.508-1.236c-.741-2.6-8,7.886-8,7.886a1.84,1.84,0,0,1,.046.182,6.292,6.292,0,0,1,.123,1.875,7.03,7.03,0,0,1-.169,1.1c-.029.127-.059.254-.089.377-.2.775-.542,1.964-.877,3.247C2456.255,4095.351,2455.662,4097.929,2455.878,4099Z" transform="translate(-2455.832 -4077.983)" fill="#ecb984"/>
            </g>
            <g id="Grupo_1013613" data-name="Grupo 1013613" transform="translate(13.857 25.217)">
              <path id="Trazado_716446" data-name="Trazado 716446" d="M2462.923,4088.341c5.134-1.388,8.133-5.657,9.161-7.247a12,12,0,0,1-1.334-2.7c-.742-2.594-7.995,7.888-7.995,7.888A5.881,5.881,0,0,1,2462.923,4088.341Z" transform="translate(-2462.755 -4077.984)" fill="#dba060"/>
            </g>
            <g id="Grupo_1013614" data-name="Grupo 1013614" transform="translate(0.637 3.446)">
              <path id="Trazado_716447" data-name="Trazado 716447" d="M2416.8,4013.79a41.2,41.2,0,0,0,2.676,11.261,8.661,8.661,0,0,0,.644,1.152c1.537,2.459,5.326,7.421,7.679,7.053a8.657,8.657,0,0,0,2.244-.737,30.347,30.347,0,0,0,7.053-4.987,7.055,7.055,0,0,0,1.405-1.846,7.222,7.222,0,0,0,.631-1.647,5.8,5.8,0,0,0,.19-1.279c.19-19.084-14.567-21.311-17.75-20.29S2416.543,4009.083,2416.8,4013.79Z" transform="translate(-2416.773 -4002.266)" fill="#ecb984"/>
            </g>
            <g id="Grupo_1013615" data-name="Grupo 1013615" transform="translate(12.819 23.688)">
              <path id="Trazado_716448" data-name="Trazado 716448" d="M2464.252,4076.913a5.744,5.744,0,0,1-5.108-4.244S2459.065,4077.306,2464.252,4076.913Z" transform="translate(-2459.144 -4072.669)" fill="#dba060"/>
            </g>
            <g id="Grupo_1013616" data-name="Grupo 1013616" transform="translate(5.117 18.227)">
              <path id="Trazado_716449" data-name="Trazado 716449" d="M2436.443,4060.942s-2.593.157-3.222-.589-.865-6.68-.865-6.68.865,5.541,1.336,6.091A9.149,9.149,0,0,0,2436.443,4060.942Z" transform="translate(-2432.357 -4053.673)" fill="#dba060"/>
            </g>
            <g id="Grupo_1013617" data-name="Grupo 1013617" transform="translate(2.845 12.649)">
              <path id="Trazado_716450" data-name="Trazado 716450" d="M2430.7,4034.3c.086-.006-4.485-.27-6.251,1.059C2424.454,4035.359,2429.168,4034.4,2430.7,4034.3Z" transform="translate(-2424.454 -4034.275)" fill="#dba060"/>
            </g>
            <g id="Grupo_1013618" data-name="Grupo 1013618" transform="translate(2.637 10.493)">
              <path id="Trazado_716451" data-name="Trazado 716451" d="M2430.086,4026.776a12.431,12.431,0,0,1-6.354,1.122S2429.547,4027.025,2430.086,4026.776Z" transform="translate(-2423.732 -4026.775)" fill="#dba060"/>
            </g>
            <g id="Grupo_1013619" data-name="Grupo 1013619" transform="translate(0 2.01)">
              <path id="Trazado_716452" data-name="Trazado 716452" d="M2414.559,4004.329c0,4.708.642,4.663.642,4.663s.23-3.323,1.68-4.1c1.348-.727,2.5-1.261,3.015-3.347.012.45.318,1.088,1.824,1.4,2.465.5,4.7.167,5.977,1.561.327.354.827.9,1.4,1.547,1.677,1.9,3.984,4.736,4.4,6.482a1.844,1.844,0,0,0,3.6,0,15.8,15.8,0,0,0-.567-4.251c-1.034-4.192-3.672-9.961-9.632-10.678-6.2-.746-8.213-.045-8.861.435-.272.2-.3.365-.3.365S2414.562,3997.917,2414.559,4004.329Z" transform="translate(-2414.559 -3997.271)" fill="#bfaea0"/>
            </g>
            <g id="Grupo_1013620" data-name="Grupo 1013620" transform="translate(3.179)">
              <path id="Trazado_716453" data-name="Trazado 716453" d="M2425.615,3993.417a72.438,72.438,0,0,1,10.678,4.2c1.986.961,3.631,3.02,4.936,5.371a34.6,34.6,0,0,1,2.523,5.916,23.462,23.462,0,0,1,1.241,5.233c-.09,1.15-.2,3.007-.2,3.007a11.356,11.356,0,0,0,2.431,4.379c1.881,2.333,1.063,2.389.627,6.8,0,0-.525,5.146,1.776,6.191s9.053-2.159,9.679-5.083c0,0,6.217,4.257,6.485,7.141,0,0,2.077-6.027-.359-8.6s-4.107-3.341-4.386-5.012-.974-5.291-3.132-6.195-2.436-5.1-2.993-8.258a25,25,0,0,0-5.494-10.779,19.363,19.363,0,0,0-5.227-4.282c-6.768-3.724-14.6-4.538-18.286-.393C2425.815,3993.169,2425.713,3993.291,2425.615,3993.417Z" transform="translate(-2425.615 -3990.281)" fill="#bfaea0"/>
            </g>
            <g id="Grupo_1013621" data-name="Grupo 1013621" transform="translate(10.92 17.579)">
              <path id="Trazado_716454" data-name="Trazado 716454" d="M2452.623,4052.891c.2.681.695,1.135,1.1,1.015s.58-.77.38-1.451-.695-1.135-1.1-1.015S2452.423,4052.21,2452.623,4052.891Z" transform="translate(-2452.539 -4051.421)" fill="#4d2b22"/>
            </g>
            <g id="Grupo_1013622" data-name="Grupo 1013622" transform="translate(2.637 19.198)">
              <path id="Trazado_716455" data-name="Trazado 716455" d="M2423.816,4058.521c.2.681.695,1.136,1.1,1.015s.58-.771.38-1.451-.695-1.135-1.1-1.015S2423.616,4057.84,2423.816,4058.521Z" transform="translate(-2423.732 -4057.05)" fill="#4d2b22"/>
            </g>
            <g id="Grupo_1013623" data-name="Grupo 1013623" transform="translate(8.735 14.267)">
              <path id="Trazado_716456" data-name="Trazado 716456" d="M2449.441,4041.049a3.77,3.77,0,0,0-4.5,1.07,2.263,2.263,0,0,1,1.574-2.156A3.461,3.461,0,0,1,2449.441,4041.049Z" transform="translate(-2444.94 -4039.901)" fill="#bfaea0"/>
            </g>
            <g id="Grupo_1013624" data-name="Grupo 1013624" transform="translate(0.969 16.262)">
              <path id="Trazado_716457" data-name="Trazado 716457" d="M2421.689,4047.791s-2.511-2.443-3.758.5A6.32,6.32,0,0,1,2421.689,4047.791Z" transform="translate(-2417.931 -4046.839)" fill="#bfaea0"/>
            </g>
            <g id="Grupo_1013625" data-name="Grupo 1013625" transform="translate(6.217 26.69)">
              <path id="Trazado_716458" data-name="Trazado 716458" d="M2442.171,4083.107c-.015.05-1.088,2.907-5.989,1.848a4.925,4.925,0,0,0,3.7,1.026C2441.768,4085.545,2442.171,4083.107,2442.171,4083.107Z" transform="translate(-2436.182 -4083.107)" fill="#cc8f52"/>
            </g>
          </g>
          <g id="torsp" transform="translate(35.298 34.052)">
            <g id="Grupo_1013626" data-name="Grupo 1013626">
              <path id="Trazado_716459" data-name="Trazado 716459" d="M2381.835,4220.928a63.124,63.124,0,0,0,10.257,4.036,1.672,1.672,0,0,0,2.119-1.314c1.6-9.265.766-19.235.365-22.871,1.081,6.636,6.378,21.437,7.812,25.375a1.664,1.664,0,0,0,1.4,1.089,68.232,68.232,0,0,0,28.131-3.192,4.077,4.077,0,0,0,2.739-3.626c1.188-21.116-1.683-38-4.284-45.338-2.705-7.642-5.127-25.832-4.742-30.476.157-1.867.7-6.625,1.215-11.8.758-7.7,2.271-15.985,1.462-17.374-.995-1.7-6.581-5.253-9.379-6.346-1.016-.4-1.774-.512-2-.178a2.954,2.954,0,0,1-.44.465,34.922,34.922,0,0,1-4.06,2.938,39.736,39.736,0,0,1-6.049,3.365c-2.379.86-4.551,4.043-4.619,4.141a19.641,19.641,0,0,1,.584-4.873c.195-.927.436-1.99.728-3.234.029-.123.059-.25.089-.377a36.488,36.488,0,0,0-8.327,1.753q-1.321.438-2.616.965s-1.219.787-1.393,8.183-6.193,8.6-6.879,11.007a6.69,6.69,0,0,0,.551,3.755c.216.449,1.317,2.913,1.943,4.352l.038.089c.152.326.279.618.368.859a.5.5,0,0,0,.025.063,13.192,13.192,0,0,1-.4,4.25l-.038.2c-.36,1.96-.889,4.441-1.5,7.239-.046.2-.089.4-.131.6-1.337,6.075-3.04,13.534-4.293,20.388-2.147,11.744-1.261,34.988-.9,42.432A4.074,4.074,0,0,0,2381.835,4220.928Z" transform="translate(-2379.109 -4108.713)" fill="#f5e8d0"/>
            </g>
            <g id="Grupo_1013627" data-name="Grupo 1013627" transform="translate(5.385 16.433)">
              <path id="Trazado_716460" data-name="Trazado 716460" d="M2399.77,4187.535c-.362,1.961-.89,4.442-1.5,7.241a23.132,23.132,0,0,0,4.985,1.058c8.673.872,16.905,2.912,23.017,9.25,8.649,8.962,13.146,21.593,12.894,34.046a52.044,52.044,0,0,1-3.119,16.617c-1.289,3.563-4.562,7.989-6.044,12.238a66.964,66.964,0,0,0,15.258-3.212,4.079,4.079,0,0,0,2.741-3.628c1.189-21.119-1.682-38-4.284-45.337-2.708-7.644-5.127-25.833-4.74-30.478.155-1.866.7-6.624,1.213-11.8q-5.327-4.08-11.012-7.663c-3.026,4.021-4.339,6.815-6.69,10.383-2.8,4.243-3.5,4.514-7.714,5.209-3.608.594-12.9-.449-16.933-3.741.213.45,1.313,2.915,1.941,4.352.013.032.027.062.041.09.175.405.309.717.368.861.009.026.016.045.022.06a13.1,13.1,0,0,1-.4,4.252C2399.8,4187.4,2399.782,4187.467,2399.77,4187.535Z" transform="translate(-2397.837 -4165.867)" fill="#ebdbc1"/>
            </g>
            <g id="Grupo_1013628" data-name="Grupo 1013628" transform="translate(21.606 15.186)">
              <path id="Trazado_716461" data-name="Trazado 716461" d="M2454.331,4162.462a1.037,1.037,0,1,0,1.354-.893A1.163,1.163,0,0,0,2454.331,4162.462Z" transform="translate(-2454.252 -4161.529)" fill="#e6d0ad"/>
            </g>
            <g id="Grupo_1013629" data-name="Grupo 1013629" transform="translate(17.233 28.939)">
              <path id="Trazado_716462" data-name="Trazado 716462" d="M2439.124,4210.294a1.037,1.037,0,1,0,1.355-.893A1.163,1.163,0,0,0,2439.124,4210.294Z" transform="translate(-2439.046 -4209.361)" fill="#e6d0ad"/>
            </g>
            <g id="Grupo_1013630" data-name="Grupo 1013630" transform="translate(15.329 49.076)">
              <path id="Trazado_716463" data-name="Trazado 716463" d="M2432.443,4280.505a1.037,1.037,0,1,0,1.2-1.1A1.163,1.163,0,0,0,2432.443,4280.505Z" transform="translate(-2432.423 -4279.4)" fill="#e6d0ad"/>
            </g>
            <g id="Grupo_1013631" data-name="Grupo 1013631" transform="translate(15.692 66.223)">
              <path id="Trazado_716464" data-name="Trazado 716464" d="M2433.689,4340.373a1.037,1.037,0,1,0,.923-1.335A1.162,1.162,0,0,0,2433.689,4340.373Z" transform="translate(-2433.685 -4339.036)" fill="#e6d0ad"/>
            </g>
            <g id="Grupo_1013632" data-name="Grupo 1013632" transform="translate(16.003 82.589)">
              <path id="Trazado_716465" data-name="Trazado 716465" d="M2434.77,4397.293a1.037,1.037,0,1,0,.923-1.334A1.162,1.162,0,0,0,2434.77,4397.293Z" transform="translate(-2434.766 -4395.957)" fill="#e6d0ad"/>
            </g>
            <g id="Grupo_1013633" data-name="Grupo 1013633" transform="translate(19.922 2.622)">
              <path id="Trazado_716466" data-name="Trazado 716466" d="M2448.4,4121.872a41.538,41.538,0,0,1,1.374,7.13l1.348-2.681c-.083-1.839.357-4.061,1.406-8.489A43.129,43.129,0,0,0,2448.4,4121.872Z" transform="translate(-2448.398 -4117.832)" fill="#ebdbc1"/>
            </g>
            <g id="Grupo_1013634" data-name="Grupo 1013634" transform="translate(19.654 2.622)">
              <path id="Trazado_716467" data-name="Trazado 716467" d="M2447.535,4121.656q1.059-.98,2.14-1.937c.36-.319.721-.638,1.087-.951s.729-.629,1.1-.936c-.332.35-.675.688-1.013,1.031s-.683.678-1.028,1.014q-1,.974-2.019,1.93c.187.561.353,1.124.509,1.692.167.6.309,1.2.438,1.808s.235,1.219.3,1.837c.021.153.033.309.043.464s.027.309.027.464.01.311.008.466l-.023.464a12.51,12.51,0,0,0-.214-1.835c-.106-.606-.242-1.207-.389-1.8s-.308-1.192-.473-1.785-.347-1.183-.535-1.767l-.03-.091Z" transform="translate(-2447.466 -4117.832)" fill="#e6d0ad"/>
            </g>
            <g id="Grupo_1013635" data-name="Grupo 1013635" transform="translate(21.542 6.091)">
              <path id="Trazado_716468" data-name="Trazado 716468" d="M2461.623,4129.9a35.435,35.435,0,0,0-1.1,5.307s-6.051.937-6.494,2.1a3.76,3.76,0,0,1,2.73-2.255s2.061-1,2.426-1.2C2459.189,4133.85,2461.109,4130.175,2461.623,4129.9Z" transform="translate(-2454.033 -4129.897)" fill="#ebdbc1"/>
            </g>
            <g id="Grupo_1013636" data-name="Grupo 1013636" transform="translate(21.95 6.091)">
              <path id="Trazado_716469" data-name="Trazado 716469" d="M2460.391,4134.014l.074-.026.025-.09a1.74,1.74,0,0,1,.075-.249,2.768,2.768,0,0,1,.105-.256c.073-.171.159-.342.244-.511.174-.338.358-.673.545-1.007s.379-.665.572-1,.382-.666.6-.98a4.085,4.085,0,0,0-.37.444q-.174.231-.343.465c-.224.313-.442.63-.648.955s-.411.653-.6.993c-.048.084-.093.171-.138.257s-.09.173-.13.263-.082.179-.117.274a2.07,2.07,0,0,0-.092.3l.1-.116c-.456.146-.9.315-1.338.495s-.872.378-1.3.594a9.869,9.869,0,0,0-1.226.735,4.823,4.823,0,0,0-.552.458,2.144,2.144,0,0,0-.437.563,3.534,3.534,0,0,1,1.075-.889,12.511,12.511,0,0,1,1.248-.644Z" transform="translate(-2455.452 -4129.897)" fill="#e6d0ad"/>
            </g>
            <g id="Grupo_1013637" data-name="Grupo 1013637" transform="translate(13.9 11.11)">
              <path id="Trazado_716470" data-name="Trazado 716470" d="M2436.2,4147.355a36.787,36.787,0,0,0-2.179,4.656c-.632,1.6-1.183,3.22-1.69,4.859s-.969,3.29-1.392,4.952-.794,3.337-1.13,5.019q-1,5.046-1.561,10.165c-.375,3.408-.607,6.832-.717,10.258-.057,1.713-.073,3.428-.074,5.141s0,3.424.028,5.136q.049,5.136.21,10.271.078,2.567.189,5.133l.124,2.565.137,2.564c.192,3.418.43,6.836.88,10.235-.1-3.425-.27-6.84-.439-10.258l-.115-2.563-.1-2.564c-.064-1.709-.133-3.418-.182-5.128s-.1-3.42-.143-5.13-.074-3.42-.092-5.131c-.041-3.421-.085-6.843.032-10.257s.346-6.826.721-10.222.889-6.776,1.546-10.128A96.285,96.285,0,0,1,2436.2,4147.355Z" transform="translate(-2427.452 -4147.355)" fill="#e6d0ad"/>
            </g>
          </g>
          <g id="ear" transform="translate(45.491 7.447)">
            <g id="Grupo_1013638" data-name="Grupo 1013638" transform="translate(0 7.687)" opacity="0.6">
              <path id="Trazado_716471" data-name="Trazado 716471" d="M2414.559,4046.333l.528,2.708a1.569,1.569,0,0,0,1.318,1.255,1.589,1.589,0,0,0,.4,0l1.432-.161.035,0,.641-.072a.986.986,0,0,0,.874-1.064l-.065-.772c0-.017,0-.035,0-.052a.6.6,0,0,1,.919-.513l1.957,1.207a2.542,2.542,0,0,0,1.86.323l6.331-1.342c.073-.015.146-.035.218-.056a2.509,2.509,0,0,0,.594-.275l5.32-2.792,1.465-.842.591-.97s-7.864.566-8.958.641c-.107.008-.23.021-.368.041-1.947.273-6.862,1.674-8.838,2.151a23.423,23.423,0,0,1-3.386.447C2415.886,4046.311,2414.559,4046.333,2414.559,4046.333Z" transform="translate(-2414.559 -4042.917)" fill="#2bdff0"/>
            </g>
            <g id="Grupo_1013639" data-name="Grupo 1013639" transform="translate(14.54)">
              <path id="Trazado_716472" data-name="Trazado 716472" d="M2465.13,4019.519c1.677,1.9,3.984,4.736,4.4,6.482a1.741,1.741,0,0,0,2.378,1.361,23.477,23.477,0,0,1,1.241,5.233c-.09,1.15-.2,3.007-.2,3.007a11.359,11.359,0,0,0,2.432,4.379c1.881,2.333,1.063,2.389.627,6.8,0,0-.525,5.146,1.776,6.191s6.057-2.719,9.7-3.089c0,0,6.194,2.263,6.462,5.147,0,0,2.077-6.027-.359-8.6s-4.107-3.341-4.386-5.012-.974-5.291-3.131-6.195-2.436-5.1-2.993-8.258a25,25,0,0,0-5.494-10.779,5.847,5.847,0,0,1-5.02,5.567,6.22,6.22,0,0,1-3.182-.3,5.3,5.3,0,0,1-.507-.221,23.682,23.682,0,0,0-2.843-1.558A2.992,2.992,0,0,0,2465.13,4019.519Z" transform="translate(-2465.13 -4016.182)" fill="#b8a393"/>
            </g>
            <g id="Grupo_1013640" data-name="Grupo 1013640" transform="translate(15.087 7.687)" opacity="0.6">
              <path id="Trazado_716473" data-name="Trazado 716473" d="M2468.386,4047.8a2.507,2.507,0,0,0,.594-.275l5.32-2.792,1.465-.842.591-.97s-7.864.566-8.958.641c-.107.008-.23.021-.368.041C2467.1,4043.606,2469.371,4043.872,2468.386,4047.8Z" transform="translate(-2467.031 -4042.917)" fill="#36bbc9"/>
            </g>
            <g id="Grupo_1013644" data-name="Grupo 1013644" transform="translate(21.001 7.368)">
              <g id="Grupo_1013641" data-name="Grupo 1013641">
                <path id="Trazado_716474" data-name="Trazado 716474" d="M2487.812,4045.824a4.1,4.1,0,0,1,.312-.578c.182-.327.373-.649.55-.979a4.558,4.558,0,0,1,2.365-2.279,2.285,2.285,0,0,1,2.755.739c1.514,2.024.678,4.973.2,6.134a4.323,4.323,0,0,1-4.858,2.325C2486.824,4050.472,2487.812,4045.825,2487.812,4045.824Z" transform="translate(-2487.602 -4041.808)" fill="#ecb984"/>
              </g>
              <g id="Grupo_1013642" data-name="Grupo 1013642" transform="translate(1.94 1.371)">
                <path id="Trazado_716475" data-name="Trazado 716475" d="M2497.292,4051.186s-.295.973-2.357,1.733c0,0,.871-1.473.448-2.085a2.594,2.594,0,0,0-1.034-.86s.131-2.7.845-3.121a2.091,2.091,0,0,1,2.1,0A3.963,3.963,0,0,1,2497.292,4051.186Z" transform="translate(-2494.348 -4046.577)" fill="#dba060"/>
              </g>
              <g id="Grupo_1013643" data-name="Grupo 1013643" transform="translate(2.784 1.153)">
                <path id="Trazado_716476" data-name="Trazado 716476" d="M2499.385,4050.644c-.017.051,1.557-2.3.406-3.978a1.557,1.557,0,0,0-2.5-.356s1.659-.508,2.149.491A5.365,5.365,0,0,1,2499.385,4050.644Z" transform="translate(-2497.286 -4045.817)" fill="#dba060"/>
              </g>
            </g>
          </g>
          <g id="Right_hand" data-name="Right hand" transform="translate(24.79 40.911)">
            <g id="Grupo_1013649" data-name="Grupo 1013649" transform="translate(0 30.354)">
              <g id="Grupo_1013645" data-name="Grupo 1013645">
                <path id="Trazado_716477" data-name="Trazado 716477" d="M2357.645,4238.709a36.072,36.072,0,0,0-5.242-.568c-1.84.042-3.925.036-4.051.465a1.651,1.651,0,0,0,.245,1.041s-5.763-.161-5.98.376c-.262.647.391.862,2.524.862,0,0-.349.978.989,1.146,0,0-.4.719.767,1.179s2.409.034,3.226.327,3.634.568,4.706.017a9.42,9.42,0,0,1,3.388-.49S2359.645,4239.018,2357.645,4238.709Z" transform="translate(-2342.561 -4238.14)" fill="#7bcce0"/>
              </g>
              <g id="Grupo_1013646" data-name="Grupo 1013646" transform="translate(6.035 1.448)">
                <path id="Trazado_716478" data-name="Trazado 716478" d="M2363.552,4243.235a22.876,22.876,0,0,1,3.156,0A6.754,6.754,0,0,1,2363.552,4243.235Z" transform="translate(-2363.552 -4243.176)" fill="#5abad1"/>
              </g>
              <g id="Grupo_1013647" data-name="Grupo 1013647" transform="translate(2.579 2.623)">
                <path id="Trazado_716479" data-name="Trazado 716479" d="M2351.53,4247.386a19.821,19.821,0,0,1,4.368,0A15.945,15.945,0,0,1,2351.53,4247.386Z" transform="translate(-2351.53 -4247.264)" fill="#5abad1"/>
              </g>
              <g id="Grupo_1013648" data-name="Grupo 1013648" transform="translate(3.568 3.89)">
                <path id="Trazado_716480" data-name="Trazado 716480" d="M2354.97,4251.67s2.306-.025,3.533.128A8.754,8.754,0,0,1,2354.97,4251.67Z" transform="translate(-2354.97 -4251.668)" fill="#5abad1"/>
              </g>
            </g>
            <g id="Grupo_1013650" data-name="Grupo 1013650" transform="translate(14.719)">
              <path id="Trazado_716481" data-name="Trazado 716481" d="M2431.458,4134.765a6.369,6.369,0,0,1,9.419-.223c1.282,1.34,2.157,2.192,2.215,3.94.148,4.447-10.927,29.846-15.8,32.947-4.447,2.83-28.32-.98-32.464-1.668a.958.958,0,0,1-.781-.737,11.987,11.987,0,0,1,0-5.248.966.966,0,0,1,.761-.728c3.376-.635,20.108-3.758,23.867-4.022C2418.675,4159.025,2424.172,4143.2,2431.458,4134.765Z" transform="translate(-2393.754 -4132.57)" fill="#f5e8d0"/>
            </g>
          </g>
        </g>
        <g id="centrifuge" transform="translate(105.609 42.278)">
          <g id="Grupo_1013652" data-name="Grupo 1013652" transform="translate(53.503 25.627)">
            <rect id="Rectángulo_347368" data-name="Rectángulo 347368" width="37.693" height="6.587" fill="#bababa"/>
          </g>
          <g id="Grupo_1013673" data-name="Grupo 1013673" transform="translate(75.37 22.224)">
            <g id="Grupo_1013671" data-name="Grupo 1013671" transform="translate(0.087)">
              <g id="Grupo_1013658" data-name="Grupo 1013658" transform="translate(7.933)">
                <g id="Grupo_1013655" data-name="Grupo 1013655" transform="translate(0.496 5.243)">
                  <g id="Grupo_1013654" data-name="Grupo 1013654">
                    <g id="Grupo_1013653" data-name="Grupo 1013653" clip-path="url(#clip-path-4)">
                      <path id="Trazado_716482" data-name="Trazado 716482" d="M2288.679,4232.852v0Z" transform="translate(-2286.944 -4232.852)" fill="#003b57"/>
                      <rect id="Rectángulo_347369" data-name="Rectángulo 347369" width="1.736" height="6.049" transform="translate(0 0)" fill="#003b57"/>
                      <path id="Trazado_716483" data-name="Trazado 716483" d="M2282.643,4238.9v0Z" transform="translate(-2282.643 -4232.852)" fill="#003b57"/>
                    </g>
                  </g>
                </g>
                <g id="Grupo_1013656" data-name="Grupo 1013656">
                  <path id="Trazado_716485" data-name="Trazado 716485" d="M2281.44,4217.222h1.711l.521-2.6h-2.752Z" transform="translate(-2280.919 -4214.618)" fill="#c93831"/>
                </g>
                <g id="Grupo_1013657" data-name="Grupo 1013657" transform="translate(0.496 2.604)" opacity="0.6">
                  <path id="Trazado_716486" data-name="Trazado 716486" d="M2282.643,4223.674v8.813a.868.868,0,1,0,1.735,0v-8.812Z" transform="translate(-2282.643 -4223.674)" fill="#2bdff0"/>
                </g>
              </g>
              <g id="Grupo_1013664" data-name="Grupo 1013664" transform="translate(3.967)">
                <g id="Grupo_1013661" data-name="Grupo 1013661" transform="translate(0.496 5.243)">
                  <g id="Grupo_1013660" data-name="Grupo 1013660">
                    <g id="Grupo_1013659" data-name="Grupo 1013659" clip-path="url(#clip-path-5)">
                      <path id="Trazado_716487" data-name="Trazado 716487" d="M2274.883,4232.852v0Z" transform="translate(-2273.147 -4232.852)" fill="#003b57"/>
                      <rect id="Rectángulo_347370" data-name="Rectángulo 347370" width="1.736" height="6.049" transform="translate(0 0)" fill="#003b57"/>
                      <path id="Trazado_716488" data-name="Trazado 716488" d="M2268.847,4238.9v0Z" transform="translate(-2268.847 -4232.852)" fill="#003b57"/>
                    </g>
                  </g>
                </g>
                <g id="Grupo_1013662" data-name="Grupo 1013662">
                  <path id="Trazado_716490" data-name="Trazado 716490" d="M2267.644,4217.222h1.711l.521-2.6h-2.752Z" transform="translate(-2267.123 -4214.618)" fill="#c93831"/>
                </g>
                <g id="Grupo_1013663" data-name="Grupo 1013663" transform="translate(0.496 2.604)" opacity="0.6">
                  <path id="Trazado_716491" data-name="Trazado 716491" d="M2268.847,4223.674v8.813a.868.868,0,1,0,1.736,0v-8.812Z" transform="translate(-2268.847 -4223.674)" fill="#2bdff0"/>
                </g>
              </g>
              <g id="Grupo_1013670" data-name="Grupo 1013670">
                <g id="Grupo_1013667" data-name="Grupo 1013667" transform="translate(0.496 5.243)">
                  <g id="Grupo_1013666" data-name="Grupo 1013666">
                    <g id="Grupo_1013665" data-name="Grupo 1013665" clip-path="url(#clip-path-6)">
                      <path id="Trazado_716492" data-name="Trazado 716492" d="M2261.087,4232.852v0Z" transform="translate(-2259.352 -4232.852)" fill="#003b57"/>
                      <rect id="Rectángulo_347371" data-name="Rectángulo 347371" width="1.736" height="6.049" transform="translate(0 0)" fill="#003b57"/>
                      <path id="Trazado_716493" data-name="Trazado 716493" d="M2255.051,4238.9v0Z" transform="translate(-2255.051 -4232.852)" fill="#003b57"/>
                    </g>
                  </g>
                </g>
                <g id="Grupo_1013668" data-name="Grupo 1013668">
                  <path id="Trazado_716495" data-name="Trazado 716495" d="M2253.848,4217.222h1.711l.521-2.6h-2.752Z" transform="translate(-2253.327 -4214.618)" fill="#c93831"/>
                </g>
                <g id="Grupo_1013669" data-name="Grupo 1013669" transform="translate(0.496 2.604)" opacity="0.6">
                  <path id="Trazado_716496" data-name="Trazado 716496" d="M2255.051,4223.674v8.813a.868.868,0,1,0,1.736,0v-8.812Z" transform="translate(-2255.051 -4223.674)" fill="#2bdff0"/>
                </g>
              </g>
            </g>
            <g id="Grupo_1013672" data-name="Grupo 1013672" transform="translate(0 3.403)">
              <rect id="Rectángulo_347372" data-name="Rectángulo 347372" width="10.86" height="10.199" transform="translate(10.86 10.199) rotate(180)" fill="#e2e2e2"/>
            </g>
          </g>
          <g id="Grupo_1013694" data-name="Grupo 1013694" transform="translate(62.775 22.224)">
            <g id="Grupo_1013692" data-name="Grupo 1013692" transform="translate(0.087)">
              <g id="Grupo_1013679" data-name="Grupo 1013679" transform="translate(7.933)">
                <g id="Grupo_1013676" data-name="Grupo 1013676" transform="translate(0.496 5.243)">
                  <g id="Grupo_1013675" data-name="Grupo 1013675">
                    <g id="Grupo_1013674" data-name="Grupo 1013674" clip-path="url(#clip-path-7)">
                      <path id="Trazado_716497" data-name="Trazado 716497" d="M2244.874,4232.852v0Z" transform="translate(-2243.138 -4232.852)" fill="#003b57"/>
                      <rect id="Rectángulo_347373" data-name="Rectángulo 347373" width="1.736" height="6.049" transform="translate(0 0)" fill="#003b57"/>
                      <path id="Trazado_716498" data-name="Trazado 716498" d="M2238.837,4238.9v0Z" transform="translate(-2238.837 -4232.852)" fill="#003b57"/>
                    </g>
                  </g>
                </g>
                <g id="Grupo_1013677" data-name="Grupo 1013677">
                  <path id="Trazado_716500" data-name="Trazado 716500" d="M2237.634,4217.222h1.711l.521-2.6h-2.752Z" transform="translate(-2237.114 -4214.618)" fill="#c93831"/>
                </g>
                <g id="Grupo_1013678" data-name="Grupo 1013678" transform="translate(0.496 2.604)" opacity="0.6">
                  <path id="Trazado_716501" data-name="Trazado 716501" d="M2238.837,4223.674v8.813a.868.868,0,1,0,1.736,0v-8.812Z" transform="translate(-2238.837 -4223.674)" fill="#2bdff0"/>
                </g>
              </g>
              <g id="Grupo_1013685" data-name="Grupo 1013685" transform="translate(3.967)">
                <g id="Grupo_1013682" data-name="Grupo 1013682" transform="translate(0.496 5.243)">
                  <g id="Grupo_1013681" data-name="Grupo 1013681">
                    <g id="Grupo_1013680" data-name="Grupo 1013680" clip-path="url(#clip-path-8)">
                      <path id="Trazado_716502" data-name="Trazado 716502" d="M2231.078,4232.852v0Z" transform="translate(-2229.343 -4232.852)" fill="#003b57"/>
                      <rect id="Rectángulo_347374" data-name="Rectángulo 347374" width="1.736" height="6.049" transform="translate(0 0)" fill="#003b57"/>
                      <path id="Trazado_716503" data-name="Trazado 716503" d="M2225.042,4238.9v0Z" transform="translate(-2225.042 -4232.852)" fill="#003b57"/>
                    </g>
                  </g>
                </g>
                <g id="Grupo_1013683" data-name="Grupo 1013683">
                  <path id="Trazado_716505" data-name="Trazado 716505" d="M2223.839,4217.222h1.711l.521-2.6h-2.752Z" transform="translate(-2223.318 -4214.618)" fill="#c93831"/>
                </g>
                <g id="Grupo_1013684" data-name="Grupo 1013684" transform="translate(0.496 2.604)" opacity="0.6">
                  <path id="Trazado_716506" data-name="Trazado 716506" d="M2225.042,4223.674v8.813a.868.868,0,1,0,1.735,0v-8.812Z" transform="translate(-2225.042 -4223.674)" fill="#2bdff0"/>
                </g>
              </g>
              <g id="Grupo_1013691" data-name="Grupo 1013691">
                <g id="Grupo_1013688" data-name="Grupo 1013688" transform="translate(0.496 5.243)">
                  <g id="Grupo_1013687" data-name="Grupo 1013687">
                    <g id="Grupo_1013686" data-name="Grupo 1013686" clip-path="url(#clip-path-9)">
                      <path id="Trazado_716507" data-name="Trazado 716507" d="M2217.282,4232.852v0Z" transform="translate(-2215.547 -4232.852)" fill="#003b57"/>
                      <rect id="Rectángulo_347375" data-name="Rectángulo 347375" width="1.735" height="6.049" transform="translate(0 0)" fill="#003b57"/>
                      <path id="Trazado_716508" data-name="Trazado 716508" d="M2211.246,4238.9v0Z" transform="translate(-2211.246 -4232.852)" fill="#003b57"/>
                    </g>
                  </g>
                </g>
                <g id="Grupo_1013689" data-name="Grupo 1013689">
                  <path id="Trazado_716510" data-name="Trazado 716510" d="M2210.043,4217.222h1.711l.521-2.6h-2.752Z" transform="translate(-2209.522 -4214.618)" fill="#c93831"/>
                </g>
                <g id="Grupo_1013690" data-name="Grupo 1013690" transform="translate(0.496 2.604)" opacity="0.6">
                  <path id="Trazado_716511" data-name="Trazado 716511" d="M2211.246,4223.674v8.813a.868.868,0,1,0,1.735,0v-8.812Z" transform="translate(-2211.246 -4223.674)" fill="#2bdff0"/>
                </g>
              </g>
            </g>
            <g id="Grupo_1013693" data-name="Grupo 1013693" transform="translate(0 3.403)">
              <rect id="Rectángulo_347376" data-name="Rectángulo 347376" width="10.86" height="10.199" transform="translate(10.86 10.199) rotate(180)" fill="#e2e2e2"/>
            </g>
          </g>
          <g id="Grupo_1013695" data-name="Grupo 1013695" transform="translate(17.035 26.336)">
            <rect id="Rectángulo_347377" data-name="Rectángulo 347377" width="72.06" height="4" transform="translate(72.06 4) rotate(180)" fill="#5e566d"/>
          </g>
          <g id="Grupo_1013696" data-name="Grupo 1013696" transform="translate(17.035 26.336)">
            <rect id="Rectángulo_347378" data-name="Rectángulo 347378" width="42.053" height="4" transform="translate(42.053 4) rotate(180)" fill="#514761"/>
          </g>
          <g id="Grupo_1013697" data-name="Grupo 1013697" transform="translate(64.231 29.611)">
            <rect id="Rectángulo_347379" data-name="Rectángulo 347379" width="35.891" height="4" transform="translate(35.891 4) rotate(180)" fill="#5e566d"/>
          </g>
          <g id="Grupo_1013700" data-name="Grupo 1013700" transform="translate(45.669 26.44)">
            <g id="Grupo_1013698" data-name="Grupo 1013698" transform="translate(2.102)">
              <rect id="Rectángulo_347380" data-name="Rectángulo 347380" width="5.434" height="6.587" fill="#919191"/>
            </g>
            <g id="Grupo_1013699" data-name="Grupo 1013699">
              <rect id="Rectángulo_347381" data-name="Rectángulo 347381" width="5.434" height="6.587" fill="#9e9e9e"/>
            </g>
          </g>
          <g id="Grupo_1013703" data-name="Grupo 1013703" transform="translate(19.407 26.44)">
            <g id="Grupo_1013701" data-name="Grupo 1013701" transform="translate(2.102)">
              <rect id="Rectángulo_347382" data-name="Rectángulo 347382" width="5.434" height="6.587" fill="#919191"/>
            </g>
            <g id="Grupo_1013702" data-name="Grupo 1013702">
              <rect id="Rectángulo_347383" data-name="Rectángulo 347383" width="5.434" height="6.587" fill="#9e9e9e"/>
            </g>
          </g>
          <g id="Grupo_1013704" data-name="Grupo 1013704" transform="translate(64.231 34.833)">
            <rect id="Rectángulo_347384" data-name="Rectángulo 347384" width="35.891" height="4.001" transform="translate(35.891 4.001) rotate(180)" fill="#5e566d"/>
          </g>
          <g id="Grupo_1013705" data-name="Grupo 1013705" transform="translate(0 0.002)">
            <path id="Trazado_716512" data-name="Trazado 716512" d="M1992.259,4137.739a2.846,2.846,0,0,1,2.089-.341l39.713-.067,13.372,27-37.9-.025-2.111.025a3.486,3.486,0,0,1-3.02-1.677l-13.1-21.006A2.843,2.843,0,0,1,1992.259,4137.739Z" transform="translate(-1990.889 -4137.331)" fill="#bababa"/>
          </g>
          <g id="Grupo_1013706" data-name="Grupo 1013706" transform="translate(40.212)">
            <path id="Trazado_716513" data-name="Trazado 716513" d="M2148.251,4163.927a2.843,2.843,0,0,0,.962-3.9l-13.194-21.334a2.842,2.842,0,1,0-4.863,2.944l13.188,21.326A2.843,2.843,0,0,0,2148.251,4163.927Z" transform="translate(-2130.745 -4137.322)" fill="#ebebeb"/>
          </g>
          <g id="Grupo_1013707" data-name="Grupo 1013707" transform="translate(15.323 44.006)">
            <path id="Trazado_716514" data-name="Trazado 716514" d="M2044.182,4290.663v7.127a4.031,4.031,0,0,0,4.032,4.032h75.5c2.228,0,4.033-2.031,4.033-5.1l-1.437-6.346Z" transform="translate(-2044.182 -4290.375)" fill="#5e566d"/>
          </g>
          <g id="Grupo_1013708" data-name="Grupo 1013708" transform="translate(15.297 44.294)">
            <path id="Trazado_716515" data-name="Trazado 716515" d="M2047.607,4291.778l-3.49,5.656c-.28,4.267,1.8,5.1,4.032,5.1h33.605a4.032,4.032,0,0,0,4.033-4.032v-7.127Z" transform="translate(-2044.092 -4291.376)" fill="#514a5e"/>
          </g>
          <g id="Grupo_1013709" data-name="Grupo 1013709" transform="translate(55.979 28.032)">
            <rect id="Rectángulo_347385" data-name="Rectángulo 347385" width="36.773" height="22.32" transform="translate(36.773 22.32) rotate(180)" fill="#cfcfcf"/>
          </g>
          <g id="Grupo_1013710" data-name="Grupo 1013710" transform="translate(15.322 28.032)">
            <rect id="Rectángulo_347386" data-name="Rectángulo 347386" width="41.671" height="22.32" transform="translate(41.671 22.32) rotate(180)" fill="#c4c4c4"/>
          </g>
          <g id="Grupo_1013711" data-name="Grupo 1013711" transform="translate(91.196 25.628)">
            <rect id="Rectángulo_347387" data-name="Rectángulo 347387" width="7.686" height="24.724" transform="translate(7.686 24.724) rotate(180)" fill="#ebebeb"/>
          </g>
        </g>
        <g id="old_scientist_woman" data-name="old scientist woman" transform="translate(0 97.73)">
          <g id="Grupo_1013713" data-name="Grupo 1013713" transform="translate(51.79 103.557)">
            <g id="Grupo_1013712" data-name="Grupo 1013712">
              <path id="Trazado_716516" data-name="Trazado 716516" d="M1809.434,4700.736a5.725,5.725,0,0,0,5.725-5.725v-2.576a2.08,2.08,0,0,0-2.08-2.08h-7.289a2.08,2.08,0,0,0-2.081,2.08v2.576A5.725,5.725,0,0,0,1809.434,4700.736Z" transform="translate(-1803.709 -4690.355)" fill="#463d54"/>
            </g>
          </g>
          <g id="Grupo_1013715" data-name="Grupo 1013715" transform="translate(215.468 103.557)">
            <g id="Grupo_1013714" data-name="Grupo 1013714">
              <path id="Trazado_716517" data-name="Trazado 716517" d="M2378.7,4700.736a5.725,5.725,0,0,0,5.725-5.725v-2.576a2.08,2.08,0,0,0-2.081-2.08h-7.289a2.08,2.08,0,0,0-2.081,2.08v2.576A5.725,5.725,0,0,0,2378.7,4700.736Z" transform="translate(-2372.978 -4690.355)" fill="#463d54"/>
            </g>
          </g>
          <g id="Grupo_1013717" data-name="Grupo 1013717" transform="translate(176.915 103.557)">
            <g id="Grupo_1013716" data-name="Grupo 1013716">
              <path id="Trazado_716518" data-name="Trazado 716518" d="M2244.615,4700.736a5.725,5.725,0,0,0,5.725-5.725v-2.576a2.08,2.08,0,0,0-2.08-2.08h-7.289a2.08,2.08,0,0,0-2.081,2.08v2.576A5.725,5.725,0,0,0,2244.615,4700.736Z" transform="translate(-2238.89 -4690.355)" fill="#463d54"/>
            </g>
          </g>
          <g id="Grupo_1013719" data-name="Grupo 1013719" transform="translate(13.237 103.557)">
            <g id="Grupo_1013718" data-name="Grupo 1013718">
              <path id="Trazado_716519" data-name="Trazado 716519" d="M1675.346,4700.736a5.725,5.725,0,0,0,5.725-5.725v-2.576a2.08,2.08,0,0,0-2.08-2.08H1671.7a2.08,2.08,0,0,0-2.08,2.08v2.576A5.725,5.725,0,0,0,1675.346,4700.736Z" transform="translate(-1669.621 -4690.355)" fill="#463d54"/>
            </g>
          </g>
          <g id="Grupo_1013720" data-name="Grupo 1013720" transform="translate(10.386 12.624)">
            <rect id="Rectángulo_347388" data-name="Rectángulo 347388" width="188.643" height="91.808" transform="translate(188.643 91.808) rotate(180)" fill="#67bbbf"/>
          </g>
          <g id="Grupo_1013721" data-name="Grupo 1013721" transform="translate(174.332 12.624)">
            <rect id="Rectángulo_347389" data-name="Rectángulo 347389" width="55.657" height="91.808" transform="translate(55.657 91.808) rotate(180)" fill="#7ecbcf"/>
          </g>
          <g id="Grupo_1013722" data-name="Grupo 1013722" transform="translate(0 1.479)">
            <path id="Trazado_716520" data-name="Trazado 716520" d="M1631.014,4348.8h170.2l7.43-13.474H1623.584Z" transform="translate(-1623.584 -4335.328)" fill="#7ecbcf"/>
          </g>
          <g id="Grupo_1013723" data-name="Grupo 1013723" transform="translate(164.385 1.479)">
            <path id="Trazado_716521" data-name="Trazado 716521" d="M2202.743,4348.8h60.689l7.43-13.474h-75.55Z" transform="translate(-2195.313 -4335.328)" fill="#a4dbde"/>
          </g>
          <g id="Grupo_1013724" data-name="Grupo 1013724">
            <rect id="Rectángulo_347390" data-name="Rectángulo 347390" width="239.935" height="1.479" fill="#c7eef0"/>
          </g>
          <g id="Grupo_1013725" data-name="Grupo 1013725">
            <rect id="Rectángulo_347391" data-name="Rectángulo 347391" width="164.385" height="1.479" fill="#a4dbde"/>
          </g>
        </g>
      </g>
    </g>
  </g>
</svg>
