<svg xmlns="http://www.w3.org/2000/svg" xmlns:xlink="http://www.w3.org/1999/xlink" width="113.667" height="82.545" viewBox="0 0 113.667 82.545">
  <defs>
    <clipPath id="clip-path">
      <rect id="Rectángulo_346374" data-name="Rectángulo 346374" width="20.178" height="45.944" fill="none" stroke="#12263f" stroke-width="1"/>
    </clipPath>
  </defs>
  <g id="Grupo_1002614" data-name="Grupo 1002614" transform="translate(-758.828 -391.559)">
    <g id="Grupo_1002341" data-name="Grupo 1002341" transform="translate(758.828 391.559)">
      <g id="Grupo_1002316" data-name="Grupo 1002316" transform="matrix(0.799, -0.602, 0.602, 0.799, 0, 12.144)">
        <g id="Grupo_1002212" data-name="Grupo 1002212" transform="translate(0)" clip-path="url(#clip-path)">
          <path id="Trazado_707910" data-name="Trazado 707910" d="M4.374,0C-1.147,11.043-.534,27.767,1.307,40.036" transform="translate(10.623 1.5)" fill="none" stroke="#12263f" stroke-linecap="round" stroke-linejoin="round" stroke-width="3"/>
          <path id="Trazado_707911" data-name="Trazado 707911" d="M0,1.227c3.681,3.681,7.976,6.135,11.656,9.2A34.1,34.1,0,0,1,17.178,0" transform="translate(1.5 34.015)" fill="none" stroke="#12263f" stroke-linecap="round" stroke-linejoin="round" stroke-width="3"/>
        </g>
      </g>
    </g>
    <g id="g5005" transform="translate(732.449 391.559)">
      <g id="g5011" transform="translate(107.654 37.403)">
        <path id="path5013" d="M338.939,314.272l2.385,25.37,1.3,10.123a3.859,3.859,0,0,0,3.843,3.5h15.195a3.859,3.859,0,0,0,3.843-3.5l3.3-35.494L353.9,309.333Z" transform="translate(-338.939 -309.333)" fill="#73c3ee"/>
      </g>
      <g id="g5015" transform="translate(119.385 37.403)">
        <path id="path5017" d="M439.187,309.333l-3.23,1.066,11.693,3.873-3.3,35.494a3.859,3.859,0,0,1-3.843,3.5h6.449a3.859,3.859,0,0,0,3.843-3.5l3.3-35.494Z" transform="translate(-435.957 -309.333)" fill="#59acd9"/>
      </g>
      <g id="g5019" transform="translate(106.332 28.274)">
        <path id="path5021" d="M360.5,233.837H328l1.323,14.068H359.2Z" transform="translate(-328 -233.837)" fill="#c6e7f7"/>
      </g>
      <g id="g5023" transform="translate(131.078 28.274)">
        <path id="path5025" d="M533.969,233.837l-1.31,14.068h6.449l1.31-14.068Z" transform="translate(-532.659 -233.837)" fill="#b5e0f5"/>
      </g>
      <g id="g5027" transform="translate(77.099 7.577)">
        <path id="path5029" d="M110.444,70.735h-1.752V62.667H97.445v8.068H95.693A9.46,9.46,0,0,0,86.235,80.2v1.745a3.232,3.232,0,0,0,3.231,3.233h27.2a3.232,3.232,0,0,0,3.231-3.233V80.2a9.46,9.46,0,0,0-9.458-9.463" transform="translate(-86.235 -62.667)" fill="#c6e7f7"/>
      </g>
      <g id="g5031" transform="translate(93.107 7.577)">
        <path id="path5033" d="M226.829,70.735h-1.752V62.667h-6.449v8.068h1.752a9.46,9.46,0,0,1,9.458,9.463v1.745a3.232,3.232,0,0,1-3.232,3.233h6.449a3.232,3.232,0,0,0,3.231-3.233V80.2a9.46,9.46,0,0,0-9.457-9.463" transform="translate(-218.628 -62.667)" fill="#b5e0f5"/>
      </g>
      <g id="g5035" transform="translate(77.099 30.086)">
        <path id="path5037" d="M116.653,266.04H89.482a3.248,3.248,0,0,1-3.248-3.248V252.055a3.232,3.232,0,0,1,3.232-3.232h27.2a3.233,3.233,0,0,1,3.233,3.232v10.737a3.248,3.248,0,0,1-3.248,3.248" transform="translate(-86.234 -248.823)" fill="#73c3ee"/>
      </g>
      <g id="g5039" transform="translate(101.069 30.086)">
        <path id="path5041" d="M290.938,248.823H284.49a3.232,3.232,0,0,1,3.232,3.232v10.737a3.248,3.248,0,0,1-3.248,3.248h6.449a3.248,3.248,0,0,0,3.248-3.248V252.055a3.232,3.232,0,0,0-3.232-3.232" transform="translate(-284.474 -248.823)" fill="#59acd9"/>
      </g>
      <g id="g5043" transform="translate(77.051 47.347)">
        <path id="path5045" d="M119.674,401.371a3.218,3.218,0,0,0-3.168-3.266,3.267,3.267,0,0,0,0-6.531H89.01a3.267,3.267,0,0,0,0,6.531,3.267,3.267,0,0,0,0,6.531s-3.121.044-3.121,4.084V416.1a9.46,9.46,0,0,0,9.457,9.463H110.1a9.461,9.461,0,0,0,9.458-9.463V408.72c0-3.986-3.05-4.084-3.05-4.084a3.218,3.218,0,0,0,3.168-3.266" transform="translate(-85.842 -391.574)" fill="#c6e7f7"/>
      </g>
      <g id="g5047" transform="translate(94.859 47.347)">
        <path id="path5049" d="M249.142,401.371a3.218,3.218,0,0,0-3.168-3.266,3.267,3.267,0,0,0,0-6.531h-6.449a3.267,3.267,0,0,1,0,6.531,3.267,3.267,0,0,1,0,6.531s3.05.1,3.05,4.084V416.1a9.46,9.46,0,0,1-9.458,9.463h6.449a9.461,9.461,0,0,0,9.458-9.463V408.72c0-3.986-3.05-4.084-3.05-4.084a3.218,3.218,0,0,0,3.168-3.266" transform="translate(-233.118 -391.574)" fill="#b5e0f5"/>
      </g>
      <g id="g5051" transform="translate(85.444 1.209)">
        <path id="path5053" d="M171.422,18.858H156.053a.8.8,0,0,1-.8-.8V12.623A2.623,2.623,0,0,1,157.872,10H169.6a2.623,2.623,0,0,1,2.623,2.623v5.431a.8.8,0,0,1-.8.8" transform="translate(-155.249 -10)" fill="#73c3ee"/>
      </g>
      <g id="g5055" transform="translate(93.348 1.209)">
        <path id="path5057" d="M227.073,10h-6.449a2.623,2.623,0,0,1,2.623,2.623v5.431a.8.8,0,0,1-.8.8h6.449a.8.8,0,0,0,.8-.8V12.623A2.623,2.623,0,0,0,227.073,10" transform="translate(-220.624 -10)" fill="#59acd9"/>
      </g>
      <g id="g5059" transform="translate(84.234)">
        <path id="Trazado_715970" data-name="Trazado 715970" d="M162.632,11.277H147.263a2.016,2.016,0,0,1-2.013-2.013V3.832A3.837,3.837,0,0,1,149.082,0h11.73a3.837,3.837,0,0,1,3.832,3.832V9.263A2.016,2.016,0,0,1,162.632,11.277ZM147.668,8.858h14.559V3.832a1.416,1.416,0,0,0-1.414-1.414h-11.73a1.416,1.416,0,0,0-1.414,1.414Z" transform="translate(-145.25)"/>
      </g>
      <g id="g5063" transform="translate(75.889 8.858)">
        <path id="Trazado_715971" data-name="Trazado 715971" d="M107.878,95.7h-27.2a4.447,4.447,0,0,1-4.44-4.443V89.511a10.628,10.628,0,0,1,1.8-5.928,1.209,1.209,0,1,1,2.01,1.344,8.219,8.219,0,0,0-1.388,4.584v1.745a2.026,2.026,0,0,0,2.022,2.024h27.2a2.026,2.026,0,0,0,2.022-2.024V89.511a8.261,8.261,0,0,0-8.248-8.254H99.9a1.209,1.209,0,0,1-1.209-1.209V75.679H89.862v4.368a1.209,1.209,0,0,1-1.209,1.209H86.9a8.181,8.181,0,0,0-3.309.691,1.209,1.209,0,0,1-.972-2.214,10.586,10.586,0,0,1,4.282-.895h.543V74.47a1.209,1.209,0,0,1,1.209-1.209H99.9a1.209,1.209,0,0,1,1.209,1.209v4.368h.543a10.682,10.682,0,0,1,10.667,10.672v1.745A4.447,4.447,0,0,1,107.878,95.7Z" transform="translate(-76.234 -73.261)"/>
      </g>
      <g id="g5067" transform="translate(75.889 28.877)">
        <path id="Trazado_715972" data-name="Trazado 715972" d="M107.862,258.459H80.691A4.462,4.462,0,0,1,76.234,254V243.265a4.447,4.447,0,0,1,4.442-4.442h27.2a4.447,4.447,0,0,1,4.442,4.442V254A4.462,4.462,0,0,1,107.862,258.459ZM80.676,241.241a2.025,2.025,0,0,0-2.023,2.023V254a2.041,2.041,0,0,0,2.039,2.039h27.171A2.041,2.041,0,0,0,109.9,254V243.265a2.026,2.026,0,0,0-2.023-2.023Z" transform="translate(-76.234 -238.823)"/>
      </g>
      <g id="g5071" transform="translate(75.842 46.138)">
        <path id="Trazado_715973" data-name="Trazado 715973" d="M101.308,417.98H86.556a10.682,10.682,0,0,1-10.667-10.672v-7.379a5.426,5.426,0,0,1,1.422-4.007,4.536,4.536,0,0,1-.082-6.608,4.509,4.509,0,0,1-1.388-3.266,4.432,4.432,0,0,1,4.377-4.475h27.5a4.432,4.432,0,0,1,4.377,4.475,4.509,4.509,0,0,1-1.387,3.266,4.536,4.536,0,0,1-.112,6.634,5.516,5.516,0,0,1,1.382,3.98v7.379A10.682,10.682,0,0,1,101.308,417.98ZM80.255,397.053a2.056,2.056,0,0,0-1,.375,2.913,2.913,0,0,0-.949,2.5v7.379a8.261,8.261,0,0,0,8.248,8.254h14.752a8.261,8.261,0,0,0,8.249-8.254v-7.379c0-2.617-1.582-2.855-1.9-2.876h.019l.039-1.209v-1.209a2.059,2.059,0,0,0,0-4.113,1.209,1.209,0,1,1,0-2.418,2.059,2.059,0,0,0,0-4.113h-27.5a2.059,2.059,0,0,0,0,4.113,1.209,1.209,0,1,1,0,2.418,2.059,2.059,0,0,0,0,4.113v1.209l.017,1.209Z" transform="translate(-75.842 -381.573)"/>
      </g>
      <g id="g5075" transform="translate(79.01 59.2)">
        <path id="Trazado_715974" data-name="Trazado 715974" d="M123.215,492.02H103.251a1.209,1.209,0,0,1,0-2.418h19.964a1.209,1.209,0,0,1,0,2.418Z" transform="translate(-102.042 -489.602)"/>
      </g>
      <g id="g5079" transform="translate(85.636 52.669)">
        <path id="Trazado_715975" data-name="Trazado 715975" d="M178.924,438.005h-20.87a1.209,1.209,0,1,1,0-2.418h20.87a1.209,1.209,0,1,1,0,2.418Z" transform="translate(-156.845 -435.587)"/>
      </g>
      <g id="g5083" transform="translate(109.577 70.661)">
        <path id="Trazado_715976" data-name="Trazado 715976" d="M375.64,596.271H360.446a5.045,5.045,0,0,1-5.047-4.6l-.555-5.966a1.209,1.209,0,1,1,2.408-.224l.555,5.966a2.638,2.638,0,0,0,2.639,2.4H375.64a2.637,2.637,0,0,0,2.639-2.4l.378-4.056a1.209,1.209,0,0,1,2.408.224l-.378,4.056A5.045,5.045,0,0,1,375.64,596.271Z" transform="translate(-354.838 -584.387)"/>
      </g>
      <g id="g5087" transform="translate(109.228 27.065)">
        <path id="Trazado_715977" data-name="Trazado 715977" d="M377.893,265.638c-.038,0-.075,0-.114-.005a1.209,1.209,0,0,1-1.092-1.316l3.544-38.061H353.158a1.209,1.209,0,0,1,0-2.418h28.4a1.209,1.209,0,0,1,1.2,1.321L379.1,264.541A1.209,1.209,0,0,1,377.893,265.638Z" transform="translate(-351.949 -223.837)"/>
      </g>
      <g id="g5091" transform="translate(109.556 41.133)">
        <path id="Trazado_715978" data-name="Trazado 715978" d="M382.639,342.6H355.877a1.209,1.209,0,0,1,0-2.418h26.761a1.209,1.209,0,1,1,0,2.418Z" transform="translate(-354.668 -340.181)"/>
      </g>
    </g>
  </g>
</svg>
