<svg xmlns="http://www.w3.org/2000/svg" width="88" height="88" viewBox="0 0 88 88">
  <g id="Grupo_1013412" data-name="Grupo 1013412" transform="translate(-224 -409)">
    <path id="Trazado_710239" data-name="Trazado 710239" d="M44,0A44,44,0,1,1,0,44,44,44,0,0,1,44,0Z" transform="translate(224 409)" fill="#d2e1f1"/>
    <g id="Grupo_1013411" data-name="Grupo 1013411" transform="translate(3 -4)">
      <path id="Trazado_716320" data-name="Trazado 716320" d="M298.515,42.344h5.813c1.047,0,2.094-.008,3.14,0,1.087.011,1.589.485,1.589,1.548q.008,18.309,0,36.619a1.351,1.351,0,0,1-1.541,1.514q-2.438.022-4.876,0c-1.019-.011-1.49-.508-1.508-1.544-.012-.744.009-1.488-.006-2.232a1.337,1.337,0,0,0-1.464-1.5q-9.132-.014-18.264,0a1.314,1.314,0,0,0-1.429,1.452c-.019.743,0,1.488-.007,2.232-.014,1.116-.493,1.592-1.627,1.6q-2.355.015-4.711,0c-1.121-.009-1.59-.486-1.592-1.628q-.01-5.456,0-10.911,0-12.606,0-25.212c0-1.568.369-1.933,1.951-1.933h8.631v-.9q0-16.45.015-32.9a1.158,1.158,0,0,0-.7-1.2,3.823,3.823,0,0,1-1.834-4.306,3.845,3.845,0,0,1,3.6-3q6.859-.063,13.718,0A3.831,3.831,0,0,1,301,3.057a3.862,3.862,0,0,1-1.923,4.349.926.926,0,0,0-.613.914q.028,16.822.017,33.643c0,.082.013.164.032.381M274.742,52.949V79.328h2.573c0-.46-.007-.869,0-1.277a3.922,3.922,0,0,1,3.932-3.954q9.3-.03,18.6,0a3.933,3.933,0,0,1,3.93,3.962c.009.428,0,.856,0,1.271h2.567v-26.4h-7.857V53.94c0,3.2,0,6.394,0,9.59A7.762,7.762,0,0,1,297.02,68.1a7.925,7.925,0,0,1-14.4-4.44c-.036-3.279-.007-6.559-.006-9.838v-.869Zm10.584-22.585h10.448V7.976H285.326Zm21.017,14.71H274.757v5.119h31.586ZM285.318,53c0,3.678-.158,7.315.047,10.932a5.077,5.077,0,0,0,6.2,4.687,5.224,5.224,0,0,0,4.223-5.272c.021-2.726.005-5.452.005-8.178,0-.708,0-1.416,0-2.168Zm10.421-19.834h-10.41v9.124h10.41Zm-5.159-30.5V2.661c-2.092,0-4.183,0-6.275,0-1.056,0-1.663.477-1.68,1.289s.6,1.339,1.631,1.34q6.275.005,12.55-.007c1.04,0,1.662-.519,1.645-1.327s-.625-1.286-1.679-1.289c-2.064-.005-4.128,0-6.192,0" transform="translate(-24.062 415.266)" fill="#12263f"/>
      <path id="Trazado_716321" data-name="Trazado 716321" d="M352.132,320.61h10.479v2.168c0,2.726.016,5.452-.005,8.178a5.224,5.224,0,0,1-4.223,5.272,5.077,5.077,0,0,1-6.2-4.687c-.2-3.616-.047-7.254-.047-10.932" transform="translate(-90.876 147.653)" fill="#4db1f0"/>
      <rect id="Rect치ngulo_347359" data-name="Rect치ngulo 347359" width="10.41" height="9.124" transform="translate(261.268 448.429)" fill="#4db1f0"/>
      <rect id="Rect치ngulo_347360" data-name="Rect치ngulo 347360" width="2.548" height="7.854" transform="translate(267.864 425.906)" fill="#12263f"/>
    </g>
  </g>
</svg>
