<svg xmlns="http://www.w3.org/2000/svg" width="505" height="277.94" viewBox="0 0 505 277.94">
  <g id="Grupo_1014585" data-name="Grupo 1014585" transform="translate(-225 -266.332)">
    <g id="Grupo_1014389" data-name="Grupo 1014389" transform="translate(225 439.665)">
      <ellipse id="Elipse_8487" data-name="Elipse 8487" cx="252.5" cy="52.304" rx="252.5" ry="52.304" fill="#f6f6f6"/>
    </g>
    <g id="Grupo_1014392" data-name="Grupo 1014392" transform="translate(437.599 305.566)">
      <ellipse id="Elipse_8488" data-name="Elipse 8488" cx="67.366" cy="9.624" rx="67.366" ry="9.624" transform="translate(0 164.293)" fill="#e8e8e8"/>
      <g id="Grupo_1014391" data-name="Grupo 1014391" transform="translate(6.413)">
        <path id="Trazado_716915" data-name="Trazado 716915" d="M1341.314,469.5s5.7,162.178,12.119,168.238,90.891,8.554,96.238,1.782,21.03-167.525,17.465-170.02S1340.6,463.792,1341.314,469.5Z" transform="translate(-1341.311 -466.311)" fill="#d9ecf3" opacity="0.4"/>
        <g id="Grupo_1014390" data-name="Grupo 1014390" transform="translate(7.845 65.56)" opacity="0.7">
          <path id="Trazado_716916" data-name="Trazado 716916" d="M1938.848,822.276h-.047a.435.435,0,0,1,.038.118C1938.845,822.319,1938.848,822.276,1938.848,822.276Z" transform="translate(-1829.422 -817.999)" fill="#7acfee" opacity="0.8"/>
          <path id="Trazado_716917" data-name="Trazado 716917" d="M1436.059,827.965c-29.892,0-54.18-1.952-54.7-4.376.253,5.27,4.332,89.7,6.4,93.842,2.139,4.277,76.277,6.416,85.9,4.277,9.308-2.068,16.615-92.159,17.085-98.07C1489.912,826.039,1465.748,827.965,1436.059,827.965Z" transform="translate(-1381.346 -819.054)" fill="#7acfee" opacity="0.8"/>
          <path id="Trazado_716918" data-name="Trazado 716918" d="M1381.3,822.276l.007.136a.422.422,0,0,1,.041-.136Z" transform="translate(-1381.295 -817.999)" fill="#7acfee" opacity="0.8"/>
          <path id="Trazado_716919" data-name="Trazado 716919" d="M1381.3,823.013a.379.379,0,0,0,.012.079c0-.047,0-.087-.006-.121A.353.353,0,0,0,1381.3,823.013Z" transform="translate(-1381.295 -818.557)" fill="#9fe3f7" opacity="0.8"/>
          <path id="Trazado_716920" data-name="Trazado 716920" d="M1938.934,822.879c0,.048-.009.11-.015.189a.284.284,0,0,0,.015-.189Z" transform="translate(-1829.517 -818.484)" fill="#9fe3f7" opacity="0.8"/>
          <path id="Trazado_716921" data-name="Trazado 716921" d="M1492.517,804.752c-1.149-2.378-25.182-4.277-54.666-4.277s-53.516,1.9-54.666,4.277a.43.43,0,0,0-.041.136c0,.034,0,.074.006.121.52,2.424,24.809,4.376,54.7,4.376,29.689,0,53.853-1.926,54.689-4.327.006-.078.011-.14.015-.189A.429.429,0,0,0,1492.517,804.752Z" transform="translate(-1382.782 -800.475)" fill="#9fe3f7" opacity="0.8"/>
        </g>
        <path id="Trazado_716922" data-name="Trazado 716922" d="M1467.136,469.5c-.377-.264-2.1-.536-4.866-.805h0l-.513-.048-.132-.012-.483-.044-.219-.019-.444-.038-.135-.012h0c-23.049-1.919-97.219-3.533-115.117-.59l-.009,0c-.192.032-.381.064-.56.1h0c-2.215.4-3.416.891-3.344,1.469,0,0,5.7,162.178,12.119,168.238s90.891,8.554,96.238,1.782S1470.7,471.991,1467.136,469.5Zm-23.881,156.475c-1.426,2.495-79.129,1.782-83.762-1.782-4.151-3.193-10.018-127.951-11.2-153.905,11.3-.952,53.137-3.731,112,1.166C1459.139,528.354,1444.609,623.6,1443.255,625.971Z" transform="translate(-1341.311 -466.311)" fill="#d9ecf3"/>
        <path id="Trazado_716923" data-name="Trazado 716923" d="M1432.815,640.1s-10.693-141.149-4.634-144.357,29.228-3.564,31.367,0-4.99,140.792-7.842,142.931S1432.815,640.1,1432.815,640.1Z" transform="translate(-1409.644 -487.929)" fill="#fff" opacity="0.45"/>
        <path id="Trazado_716924" data-name="Trazado 716924" d="M1381.3,1011.219s2.5,58.1,6.772,62.376,64.159,5.347,72.356,4.634c0,0-68.079-2.139-70.931-7.129S1381.3,1011.219,1381.3,1011.219Z" transform="translate(-1373.45 -904.312)" fill="#fff" opacity="0.6"/>
        <path id="Trazado_716925" data-name="Trazado 716925" d="M1463.353,471.281c-.234,9.618-3.675,132.866-26.622,146.566-23.795,14.206-54.685,15-63.184-19.746,1.749,23.619,3.736,41.68,5.8,43.627,6.416,6.059,90.891,8.554,96.238,1.782s21.03-167.525,17.466-170.02C1491.96,472.729,1479.762,471.9,1463.353,471.281Z" transform="translate(-1367.223 -470.306)" fill="#085d77" opacity="0.07"/>
        <path id="Trazado_716926" data-name="Trazado 716926" d="M1864.243,567.929c-.3,11.316-1.039,22.616-1.961,33.9-.441,5.643-1,11.275-1.545,16.908l-.9,8.442-.968,8.434c-.326,2.811-.7,5.617-1.057,8.424l-.542,4.21c-.18,1.4-.357,2.807-.565,4.207-.81,5.6-1.57,11.21-2.49,16.8-1.728,11.186-3.756,22.326-6.014,33.415,1.526-11.216,3.169-22.4,4.638-33.616l.559-4.2.288-2.1.269-2.1,1.077-8.41c.369-2.8.7-5.609,1.053-8.413s.7-5.609,1.016-8.418l1.008-8.419.952-8.425c.64-5.616,1.235-11.238,1.839-16.859Q1862.676,584.828,1864.243,567.929Z" transform="translate(-1748.755 -547.992)" fill="#fff" opacity="0.3"/>
      </g>
    </g>
    <g id="Grupo_1014458" data-name="Grupo 1014458" transform="translate(600.063 266.332)">
      <ellipse id="Elipse_8489" data-name="Elipse 8489" cx="49.167" cy="9.523" rx="49.167" ry="9.523" transform="translate(3.949 201.18)" fill="#e8e8e8"/>
      <g id="Grupo_1014457" data-name="Grupo 1014457" transform="translate(0 0)">
        <g id="girl_with_box" data-name="girl with box">
          <g id="Grupo_1014403" data-name="Grupo 1014403" transform="translate(33.701 195.3)">
            <g id="Grupo_1014395" data-name="Grupo 1014395" transform="translate(9.264)">
              <g id="Grupo_1014394" data-name="Grupo 1014394">
                <g id="Grupo_1014393" data-name="Grupo 1014393">
                  <path id="Trazado_716927" data-name="Trazado 716927" d="M2360.094,1276.55l-1.555-14.769-2.84.71,2.13,13.774Z" transform="translate(-2355.699 -1261.781)" fill="#f07461"/>
                </g>
              </g>
            </g>
            <g id="Grupo_1014402" data-name="Grupo 1014402" transform="translate(0 11.964)">
              <g id="Grupo_1014398" data-name="Grupo 1014398">
                <g id="Grupo_1014397" data-name="Grupo 1014397">
                  <g id="Grupo_1014396" data-name="Grupo 1014396">
                    <path id="Trazado_716928" data-name="Trazado 716928" d="M2321.987,1327.242a4.068,4.068,0,0,1-.845.2c-1.965.246-12.282,1.455-12.628-.2-.382-1.828,2.615-6.269,10.609-3.7C2325.485,1325.588,2323.171,1326.827,2321.987,1327.242Z" transform="translate(-2308.482 -1322.761)" fill="#12263f"/>
                  </g>
                </g>
              </g>
              <g id="Grupo_1014401" data-name="Grupo 1014401" transform="translate(0 0.473)">
                <g id="Grupo_1014400" data-name="Grupo 1014400">
                  <g id="Grupo_1014399" data-name="Grupo 1014399">
                    <path id="Trazado_716929" data-name="Trazado 716929" d="M2319.124,1325.481q-.546-.176-1.061-.308c1.59,1.46-1.123,3.554-5.578,3.793-2.738.147-3.582-.5-3.763-1.162a2.363,2.363,0,0,0-.207,1.375c.346,1.654,10.663.445,12.628.2a4.076,4.076,0,0,0,.845-.2C2323.172,1328.766,2325.486,1327.526,2319.124,1325.481Z" transform="translate(-2308.483 -1325.173)" fill="#12263f"/>
                  </g>
                </g>
              </g>
            </g>
          </g>
          <g id="Grupo_1014414" data-name="Grupo 1014414" transform="translate(60.655 187.609)">
            <g id="Grupo_1014406" data-name="Grupo 1014406">
              <g id="Grupo_1014405" data-name="Grupo 1014405">
                <g id="Grupo_1014404" data-name="Grupo 1014404">
                  <path id="Trazado_716930" data-name="Trazado 716930" d="M2456.882,1234.431l-8.952-11.849-2.066,2.073,8.931,10.7Z" transform="translate(-2445.864 -1222.582)" fill="#e35857"/>
                </g>
              </g>
            </g>
            <g id="Grupo_1014413" data-name="Grupo 1014413" transform="translate(0.289 10.792)">
              <g id="Grupo_1014409" data-name="Grupo 1014409">
                <g id="Grupo_1014408" data-name="Grupo 1014408">
                  <g id="Grupo_1014407" data-name="Grupo 1014407">
                    <path id="Trazado_716931" data-name="Trazado 716931" d="M2458.983,1279.734a4.085,4.085,0,0,1-.569.655c-1.448,1.35-9.1,8.375-10.349,7.238-1.381-1.257-1.554-6.612,6.43-9.214C2460.849,1276.343,2459.7,1278.7,2458.983,1279.734Z" transform="translate(-2447.336 -1277.59)" fill="#12263f"/>
                  </g>
                </g>
              </g>
              <g id="Grupo_1014412" data-name="Grupo 1014412" transform="translate(0.091)">
                <g id="Grupo_1014411" data-name="Grupo 1014411">
                  <g id="Grupo_1014410" data-name="Grupo 1014410">
                    <path id="Trazado_716932" data-name="Trazado 716932" d="M2454.87,1278.413q-.545.178-1.04.372c2.144.251,1.172,3.538-2.3,6.342-2.132,1.723-3.2,1.69-3.73,1.264a2.367,2.367,0,0,0,.638,1.235c1.25,1.137,8.9-5.888,10.349-7.238a4.094,4.094,0,0,0,.569-.655C2460.075,1278.7,2461.224,1276.343,2454.87,1278.413Z" transform="translate(-2447.802 -1277.59)" fill="#12263f"/>
                  </g>
                </g>
              </g>
            </g>
          </g>
          <g id="Grupo_1014426" data-name="Grupo 1014426" transform="translate(30.101 100.373)">
            <g id="Grupo_1014417" data-name="Grupo 1014417" transform="translate(0 0.345)">
              <g id="Grupo_1014416" data-name="Grupo 1014416">
                <g id="Grupo_1014415" data-name="Grupo 1014415">
                  <path id="Trazado_716933" data-name="Trazado 716933" d="M2294.155,779.7l-4.017,48.273a1.831,1.831,0,0,0,.5,1.381l32.366,44.219,4.072-3.374-25.55-41.034,9.349-48.687Z" transform="translate(-2290.134 -779.697)"/>
                </g>
              </g>
            </g>
            <g id="Grupo_1014420" data-name="Grupo 1014420" transform="translate(4.648 0)">
              <g id="Grupo_1014419" data-name="Grupo 1014419">
                <g id="Grupo_1014418" data-name="Grupo 1014418">
                  <path id="Trazado_716934" data-name="Trazado 716934" d="M2339.233,779.17l-17.406,54.715,4.544,43.594-5.112.568-7.435-45.828,4.594-54.281Z" transform="translate(-2313.824 -777.937)" fill="#12263f"/>
                </g>
              </g>
            </g>
            <g id="Grupo_1014423" data-name="Grupo 1014423" transform="translate(8.376 0)">
              <g id="Grupo_1014422" data-name="Grupo 1014422">
                <g id="Grupo_1014421" data-name="Grupo 1014421">
                  <path id="Trazado_716935" data-name="Trazado 716935" d="M2340.2,877.639l1.447-.161-4.544-43.594,17.406-54.715-20.814-1.233-.866,10.393c1.477-1.736,6.347-6.44,11.3-1.092,5.4,5.822-9.94,46.718-9.94,46.718Z" transform="translate(-2332.828 -777.937)"/>
                </g>
              </g>
            </g>
            <g id="Grupo_1014425" data-name="Grupo 1014425" transform="translate(3.822 4.97)">
              <g id="Grupo_1014424" data-name="Grupo 1014424">
                <path id="Trazado_716936" data-name="Trazado 716936" d="M2310.442,852.639l4.179-46.266a.355.355,0,0,0-.033-.182l-1.291-2.721a.355.355,0,1,0-.642.3l1.25,2.634-4.291,46.418,1.094,1.508Z" transform="translate(-2309.615 -803.268)"/>
              </g>
            </g>
          </g>
          <g id="Grupo_1014456" data-name="Grupo 1014456">
            <path id="Trazado_716937" data-name="Trazado 716937" d="M2170.738,378.8l1.426-2.05,1.224.941-.97,1.652Z" transform="translate(-2164.061 -355.084)" fill="#a43d34"/>
            <g id="Grupo_1014427" data-name="Grupo 1014427" transform="translate(8.633 28.174)">
              <path id="Trazado_716938" data-name="Trazado 716938" d="M2228.8,433.172s-19.841-1.929-26.849-2.9c-12.333-1.717-14.509-14.988-17.216-20.332,0,0-2.94-.07-3.916,1.628,0,0-3.176,36.378,24.466,44.973,0,0-1.766,24.212-.82,29.153,0,0,14.665,7.614,27.777,6.457,0,0,6.644-17.544,10.894-24.554,0,0,1.9,5.3,9.156,9.76,0,0-3.474,8.486-10.528,10.28a3.013,3.013,0,0,0,1.133,3.4s23.621,1.072,24.149-11.658S2257.521,441.321,2228.8,433.172Z" transform="translate(-2180.707 -409.936)" fill="#eebb78"/>
            </g>
            <g id="Grupo_1014428" data-name="Grupo 1014428" transform="translate(8.633 28.174)">
              <path id="Trazado_716939" data-name="Trazado 716939" d="M2228.8,433.172s-19.841-1.929-26.849-2.9c-12.333-1.717-14.509-14.988-17.216-20.332,0,0-2.94-.07-3.916,1.628,0,0-3.176,36.378,24.466,44.973,0,0-1.766,24.212-.82,29.153,0,0,14.665,7.614,27.777,6.457,0,0,6.644-17.544,10.894-24.554,0,0,1.9,5.3,9.156,9.76,0,0-3.474,8.486-10.528,10.28a3.013,3.013,0,0,0,1.133,3.4s23.621,1.072,24.149-11.658S2257.521,441.321,2228.8,433.172Z" transform="translate(-2180.707 -409.936)" fill="#eebb78"/>
            </g>
            <g id="Grupo_1014429" data-name="Grupo 1014429" transform="translate(8.633 28.174)">
              <path id="Trazado_716940" data-name="Trazado 716940" d="M2205.242,456.523c1.324-8.688,4.626-23.651,11.736-24.544-5.58-.581-11.727-1.252-15.028-1.711-12.333-1.717-14.509-14.988-17.216-20.332,0,0-2.939-.07-3.916,1.628C2180.818,411.564,2177.646,447.9,2205.242,456.523Z" transform="translate(-2180.707 -409.936)" fill="#e7ab68"/>
            </g>
            <g id="Grupo_1014430" data-name="Grupo 1014430" transform="translate(32.111 73.234)">
              <path id="Trazado_716941" data-name="Trazado 716941" d="M2328.433,676.759s6.534-17.255,10.789-24.378a56.289,56.289,0,0,1-2.811-12.773s-4.191,27.554-22.168,26.72c-8.819-.409-12.358-4.809-13.677-9.185-.226,5.637-.306,11.089.09,13.159C2300.656,670.3,2315.321,677.916,2328.433,676.759Z" transform="translate(-2300.377 -639.608)" fill="#e7ab68"/>
            </g>
            <g id="Grupo_1014431" data-name="Grupo 1014431" transform="translate(46.803 50.489)">
              <path id="Trazado_716942" data-name="Trazado 716942" d="M2375.986,523.675c-2.007,8.555.344,15.175,4.791,13.465,4.909-1.888,8.838-7.276,9.516-10.844q-2.45-.941-5.109-1.7S2381.1,524.2,2375.986,523.675Z" transform="translate(-2375.262 -523.675)" fill="#efefef"/>
            </g>
            <g id="Grupo_1014432" data-name="Grupo 1014432" transform="translate(67.446 68.263)">
              <path id="Trazado_716943" data-name="Trazado 716943" d="M2484.095,631.839a68.578,68.578,0,0,1-2.895-17.217.36.36,0,0,0-.72.018c0,.105.28,9.963,3.135,18.017C2483.778,632.372,2483.938,632.1,2484.095,631.839Z" transform="translate(-2480.48 -614.271)" fill="peru"/>
            </g>
            <g id="Grupo_1014450" data-name="Grupo 1014450" transform="translate(45.187 23.558)">
              <g id="Grupo_1014433" data-name="Grupo 1014433" transform="translate(5.612 23.187)">
                <path id="Trazado_716944" data-name="Trazado 716944" d="M2396.537,504.771a15.919,15.919,0,0,1,9.081,1.306l-1.518,3.263-8.472.145Z" transform="translate(-2395.629 -504.593)" fill="#b7b7b7"/>
              </g>
              <g id="Grupo_1014446" data-name="Grupo 1014446">
                <g id="Grupo_1014435" data-name="Grupo 1014435" transform="translate(0)">
                  <g id="Grupo_1014434" data-name="Grupo 1014434">
                    <path id="Trazado_716945" data-name="Trazado 716945" d="M2372.81,399.056s-4.931,2.159-5.712-.388,5.057-4.9,5.057-4.9-4.887-.471-4.029-2.9,5.7-3.5,10.963-1.135c0,0-1.475-3.129.095-3.31s7.251,3.951,7.349,9.945c0,0,.67-1.645,1.427-1.326s1.726,4.994-4.026,9.316c0,0-3.655,1.35-5.481-.89A24.366,24.366,0,0,0,2372.81,399.056Z" transform="translate(-2367.026 -386.408)" fill="#fbae2b"/>
                  </g>
                </g>
                <g id="Grupo_1014437" data-name="Grupo 1014437" transform="translate(0 7.027)">
                  <g id="Grupo_1014436" data-name="Grupo 1014436">
                    <path id="Trazado_716946" data-name="Trazado 716946" d="M2378.453,432.249c1.826,2.241,5.481.89,5.481.89a13.361,13.361,0,0,0,3.281-3.416c-3.749,3.883-3.429-4.118-3.429-4.118a1.588,1.588,0,0,1-2.316.975c-1.746-.833-.211-4.355-.211-4.355s-2.723,2.684-8.255,3.17c-4.438.39-3.149-1.358-2.466-2.065-1.664.9-3.949,2.474-3.441,4.128.781,2.547,5.712.388,5.712.388A24.368,24.368,0,0,1,2378.453,432.249Z" transform="translate(-2367.026 -422.225)" fill="#eb9324"/>
                  </g>
                </g>
                <g id="Grupo_1014439" data-name="Grupo 1014439" transform="translate(5.773 20.33)">
                  <g id="Grupo_1014438" data-name="Grupo 1014438">
                    <path id="Trazado_716947" data-name="Trazado 716947" d="M2404.794,490.031l-1.292,10.662-4.824.561-2.228-1.271,2.768-7.533Z" transform="translate(-2396.45 -490.031)" fill="#f07461"/>
                  </g>
                </g>
                <g id="Grupo_1014441" data-name="Grupo 1014441" transform="translate(7.118 21.581)">
                  <g id="Grupo_1014440" data-name="Grupo 1014440">
                    <path id="Trazado_716948" data-name="Trazado 716948" d="M2403.307,501.45c1.271-.083,5.741-.684,6.423-5.041l-5.023,1.231Z" transform="translate(-2403.307 -496.409)" fill="#e35857"/>
                  </g>
                </g>
                <g id="Grupo_1014443" data-name="Grupo 1014443" transform="translate(4.225 11.611)">
                  <g id="Grupo_1014442" data-name="Grupo 1014442">
                    <path id="Trazado_716949" data-name="Trazado 716949" d="M2390.2,445.814s-4.277,10.367.979,11.62,7.122-1.912,7.122-1.912,2.177,1.352,3.273-.331,1.228-4.567-2.37-4.037C2399.207,451.154,2396.543,444.27,2390.2,445.814Z" transform="translate(-2388.563 -445.588)" fill="#f07461"/>
                  </g>
                </g>
                <g id="Grupo_1014445" data-name="Grupo 1014445" transform="translate(4.352 11.248)">
                  <g id="Grupo_1014444" data-name="Grupo 1014444">
                    <path id="Trazado_716950" data-name="Trazado 716950" d="M2399.587,449.728a.336.336,0,0,1-.226-.181c-1.48-3.056-3.552-4.766-6.157-5.082a7.385,7.385,0,0,0-3.519.445.338.338,0,0,1-.275-.617,7.933,7.933,0,0,1,3.844-.5c3.568.417,5.621,3.2,6.716,5.462a.338.338,0,0,1-.382.476Z" transform="translate(-2389.21 -443.739)" fill="#d1731d"/>
                  </g>
                </g>
              </g>
              <g id="Grupo_1014447" data-name="Grupo 1014447" transform="translate(3.543 24.485)">
                <path id="Trazado_716951" data-name="Trazado 716951" d="M2397.062,511.823s1.843,6.577-5.823,11.766c0,0-.542-4.1-1.745-4.781l-3.366,8.24,2.591-8.833a6.348,6.348,0,0,0-2.8,3.015s-2.437-5.8,1.042-10.021l1.836,5.465,1.2.676Z" transform="translate(-2385.086 -511.209)" fill="#d3d3d3"/>
              </g>
              <g id="Grupo_1014448" data-name="Grupo 1014448" transform="translate(7.852 24.671)">
                <path id="Trazado_716952" data-name="Trazado 716952" d="M2414.567,515.666s.578-3,.232-3.511c0,0-4.93,4.827-7.749,5.617,0,0,3.18,1.946,2.6,4.946C2409.652,522.718,2413.906,519.094,2414.567,515.666Z" transform="translate(-2407.05 -512.155)" fill="#ececec"/>
              </g>
              <g id="Grupo_1014449" data-name="Grupo 1014449" transform="translate(4.227 23.365)">
                <path id="Trazado_716953" data-name="Trazado 716953" d="M2390.866,505.5s-.826,4.285,1.332,6.923a4.657,4.657,0,0,0-3.232,2.932S2387.288,507.92,2390.866,505.5Z" transform="translate(-2388.573 -505.499)" fill="#ececec"/>
              </g>
            </g>
            <g id="Grupo_1014452" data-name="Grupo 1014452" transform="translate(61.345 101.985)">
              <path id="Trazado_716954" data-name="Trazado 716954" d="M2457.819,802.267s-3.8-2.375-4.358-1.661,1.549,1.485,1.047,1.851-4.415-.773-4.924.216c-.433.841,3.767.939,3.64,1.186s-3.642,1.125-3.823,1.72,1.135.709,3.334-.284c0,0,.949-.387.922-.213s-2.881,1.955-2.588,2.356,1.069-.012,3.249-1.453c0,0,.4-.294.274-.046s-2.213,2.236-1.145,2.223,5.469-4.31,5.469-4.31Z" transform="translate(-2449.385 -797.663)" fill="#f07461"/>
              <g id="Grupo_1014451" data-name="Grupo 1014451" transform="translate(8.194 0)">
                <path id="Trazado_716955" data-name="Trazado 716955" d="M2497.58,786.154a13.415,13.415,0,0,1-6.28,3.886,3.013,3.013,0,0,0,1.133,3.4,52.563,52.563,0,0,0,9.858-.665C2500.733,790.56,2499.145,788.364,2497.58,786.154Z" transform="translate(-2491.15 -786.154)" fill="#eebb78"/>
              </g>
            </g>
            <g id="Grupo_1014455" data-name="Grupo 1014455">
              <g id="Grupo_1014454" data-name="Grupo 1014454">
                <path id="Trazado_716956" data-name="Trazado 716956" d="M2153.458,266.4s7.051,21.854,6.489,22.969-11.682,5.515-12.719,4.872-10.866-21.278-10.512-21.782S2153.278,265.607,2153.458,266.4Z" transform="translate(-2136.706 -266.332)" fill="#d9ecf3" opacity="0.4"/>
                <g id="Grupo_1014453" data-name="Grupo 1014453" transform="translate(4.316 9.29)" opacity="0.7">
                  <path id="Trazado_716957" data-name="Trazado 716957" d="M2158.916,340.661l.006,0a.069.069,0,0,0,0,.017Z" transform="translate(-2158.875 -335.366)" fill="#7acfee" opacity="0.8"/>
                  <path id="Trazado_716958" data-name="Trazado 716958" d="M2166.493,317.205c3.977-1.439,7.115-2.869,7.068-3.216.22.713,3.743,12.144,3.667,12.795-.079.672-9.841,4.527-11.224,4.706-1.338.173-6.649-11.463-7-12.227C2159.235,319.543,2162.543,318.635,2166.493,317.205Z" transform="translate(-2158.948 -313.929)" fill="#7acfee" opacity="0.8"/>
                  <path id="Trazado_716959" data-name="Trazado 716959" d="M2233.1,313.811l.006.018a.058.058,0,0,0-.012-.016Z" transform="translate(-2218.503 -313.786)" fill="#7acfee" opacity="0.8"/>
                  <path id="Trazado_716960" data-name="Trazado 716960" d="M2233.162,313.91a.079.079,0,0,1,0,.011l-.005-.016Z" transform="translate(-2218.552 -313.861)" fill="#9fe3f7" opacity="0.8"/>
                  <path id="Trazado_716961" data-name="Trazado 716961" d="M2158.952,340.748l.011.024a.062.062,0,0,1-.01-.016A.078.078,0,0,1,2158.952,340.748Z" transform="translate(-2158.904 -335.438)" fill="#9fe3f7" opacity="0.8"/>
                  <path id="Trazado_716962" data-name="Trazado 716962" d="M2158.705,318.991c.038-.372,3.145-1.782,7.068-3.2s7.212-2.324,7.48-2.063a.056.056,0,0,1,.012.016l.005.016c.047.348-3.09,1.777-7.068,3.217-3.95,1.43-7.258,2.337-7.485,2.058l-.011-.024A.053.053,0,0,1,2158.705,318.991Z" transform="translate(-2158.705 -313.682)" fill="#9fe3f7" opacity="0.8"/>
                </g>
                <path id="Trazado_716963" data-name="Trazado 716963" d="M2147.227,294.242c1.037.644,12.157-3.756,12.719-4.872s-6.489-22.969-6.489-22.969c-.018-.08-.2-.087-.516-.034h0l-.079.014h0c-2.523.47-12.315,4.257-15.289,5.622h0l-.018.008-.057.026-.028.013-.062.029-.017.008-.066.031h0a2.608,2.608,0,0,0-.609.341C2136.362,272.964,2146.19,293.6,2147.227,294.242Zm-9.507-21.851a99.477,99.477,0,0,1,14.846-5.549c1.093,3.51,6.321,20.393,5.922,21.018-.445.7-10.75,4.534-11.06,4.271A172.167,172.167,0,0,1,2137.72,272.391Z" transform="translate(-2136.706 -266.333)" fill="#d9ecf3"/>
              </g>
            </g>
            <path id="Trazado_716964" data-name="Trazado 716964" d="M2171.869,375.753a.458.458,0,0,0-.392-.017c-.435.125-.836.356-1.277.456-.1.022-.226.019-.257-.075s.115-.242.176-.318a2.951,2.951,0,0,1,.516-.458q.477-.365.922-.772a.443.443,0,0,0,.184-.3.416.416,0,0,0-.092-.22.649.649,0,0,0-.186-.2.486.486,0,0,0-.391-.029,1.443,1.443,0,0,0-.356.188c-.472.309-.944.613-1.428.9a.335.335,0,0,1-.117.051.115.115,0,0,1-.114-.042c-.032-.049,0-.115.024-.166a2.4,2.4,0,0,1,.431-.528q.33-.337.687-.648a1.858,1.858,0,0,0,.486-.543.576.576,0,0,0-.083-.677.551.551,0,0,0-.516-.082,1.384,1.384,0,0,0-.464.28,15.64,15.64,0,0,1-1.522,1.29.215.215,0,0,1-.207.042,1.091,1.091,0,0,1,.341-.564c.186-.2.355-.411.54-.609.252-.271.614-.657.4-1.063a.635.635,0,0,0-.678-.22,1.243,1.243,0,0,0-.351.18,5.293,5.293,0,0,0-1.47,1.5,2.567,2.567,0,0,0-.3.609,2.818,2.818,0,0,0,.021,1.465,2.668,2.668,0,0,0,.718,1.086c.541.571,1.2,1.019,1.768,1.56a4.037,4.037,0,0,1,.974,1.322c.069.163.092.46.238.58a4.463,4.463,0,0,1,.469-.242c.05-.024.438-.155.846-.291l-.836-1.347a1.16,1.16,0,0,1,.058-.239c.181-.51.687-.815,1.089-1.178a.82.82,0,0,0,.245-.321A.328.328,0,0,0,2171.869,375.753Z" transform="translate(-2160.478 -350.796)" fill="#e35857"/>
          </g>
        </g>
      </g>
      <ellipse id="Elipse_8490" data-name="Elipse 8490" cx="1.016" cy="0.536" rx="1.016" ry="0.536" transform="matrix(0.246, -0.969, 0.969, 0.246, 51.318, 39.202)"/>
      <ellipse id="Elipse_8491" data-name="Elipse 8491" cx="1.016" cy="0.536" rx="1.016" ry="0.536" transform="matrix(0.246, -0.969, 0.969, 0.246, 55.556, 40.693)"/>
    </g>
    <g id="Grupo_1014584" data-name="Grupo 1014584" transform="translate(253.53 289.994)">
      <g id="Grupo_1014463" data-name="Grupo 1014463" transform="translate(46.155 0)">
        <g id="Grupo_1014461" data-name="Grupo 1014461" transform="translate(17.167)">
          <g id="Grupo_1014460" data-name="Grupo 1014460">
            <g id="Grupo_1014459" data-name="Grupo 1014459">
              <path id="Trazado_716965" data-name="Trazado 716965" d="M695.22,399.638q.044-2.329.282-4.649a3.413,3.413,0,0,0-.726-2.392,2.832,2.832,0,0,1-.56-1.347,9.58,9.58,0,0,0-.02-1.221,3.284,3.284,0,0,0-.552-1.262,2.022,2.022,0,0,1-.466-.827.954.954,0,0,1,.886-1,1.524,1.524,0,0,1,1.277.648,4.064,4.064,0,0,1,.6,1.357c.585-.461,1.182-.909,1.8-1.33.455-.312,1.14-.4,1.426.2.069.143.109.324.254.388a.474.474,0,0,0,.138.03,1.751,1.751,0,0,1,.495.1.581.581,0,0,1,.345.349c.061.207-.036.447.067.636.113.206.41.249.529.451a.613.613,0,0,1,0,.5,1.147,1.147,0,0,0-.1.5c.028.212.2.381.25.589a1.45,1.45,0,0,1-.319,1.018,2.073,2.073,0,0,1-.579.479c-.349.251-.71.487-1.075.713-.745.461-1.185.791-1.244,1.744q-.132,2.123-.076,4.252A14.378,14.378,0,0,0,695.22,399.638Z" transform="translate(-693.171 -386.94)" fill="#ed7565"/>
            </g>
          </g>
        </g>
        <g id="Grupo_1014462" data-name="Grupo 1014462" transform="translate(19.91 1.035)">
          <path id="Trazado_716966" data-name="Trazado 716966" d="M726.744,400.405l.053-.045Z" transform="translate(-722.901 -398.762)" fill="#e05a5a"/>
          <path id="Trazado_716967" data-name="Trazado 716967" d="M712,396.694a4.427,4.427,0,0,0-1.267.635.612.612,0,0,1-.959-.32c0-.319,1.917-1.6,1.917-1.6l-1.6.959s-.959.32-.959-.32c0-.578,1.565-1.938,1.864-2.192-.327.276-2.211,1.844-2.5,1.553a.989.989,0,0,1-.32-.639l1.917-1.917a13.527,13.527,0,0,1-2.237,1.6.687.687,0,0,1-.639-.639c0-.319,1.278-1.6,1.278-1.6l-.031.013q-.61.438-1.2.9c-.212.273-.046,1.323-.046,2.92,0,0,.958,0,3.189,1.761,0,0,.726-.462,1.075-.713A2.827,2.827,0,0,0,712,396.694Z" transform="translate(-707.155 -392.217)" fill="#e05a5a"/>
        </g>
        <path id="Trazado_716968" data-name="Trazado 716968" d="M628.84,425.611s2.851,26.02,2.851,29.228-2.851,22.456-2.851,22.456l-23.168,2.139s9.624-19.248,12.832-28.871,6.059-24.95,6.059-24.95S625.989,424.9,628.84,425.611Z" transform="translate(-605.672 -417.769)" fill="#d8d8d8"/>
      </g>
      <g id="Grupo_1014464" data-name="Grupo 1014464" transform="translate(0 195.355)">
        <path id="Trazado_716969" data-name="Trazado 716969" d="M663.092,1398.512c0,7.755-69.047,14.5-146.189,14.5s-146.485-8.546-146.485-16.3,62.536-14.042,139.679-14.042S663.092,1390.757,663.092,1398.512Z" transform="translate(-370.418 -1382.67)" fill="#e8e8e8"/>
      </g>
      <g id="Grupo_1014469" data-name="Grupo 1014469" transform="translate(64.523 53.866)">
        <g id="Grupo_1014466" data-name="Grupo 1014466" transform="translate(33.707)">
          <g id="Grupo_1014465" data-name="Grupo 1014465">
            <path id="Trazado_716970" data-name="Trazado 716970" d="M871.1,668.492s.147-4.732,1.1-4.8.394,2.23,1.011,2.006,1.913-4.329,3.079-4.2c.993.114-1.387,3.858-1.1,3.891s3.125-2.536,3.753-2.346-.044,1.413-2.206,2.76c0,0-.9.606-.728.684s3.406-1.382,3.586-.889-.638.931-3.182,2c0,0-.493.18-.2.213s3.262-.631,2.623.3-6.993,2.271-6.993,2.271Z" transform="translate(-871.098 -661.499)" fill="#e55857"/>
          </g>
        </g>
        <g id="Grupo_1014468" data-name="Grupo 1014468" transform="translate(0 6.248)">
          <g id="Grupo_1014467" data-name="Grupo 1014467">
            <path id="Trazado_716971" data-name="Trazado 716971" d="M732.357,693.343c-8.313,6.074-19.787,8.367-19.787,8.367-4.161-2.632-8.39-2.978-11.974-5.013-.5,2.923-.509,3.855-.8,6.809-.237,2.412-.386,4.825-.468,7.247a35.675,35.675,0,0,0,.075,4.566c3.252,2.043,7.657,4.139,11.373,3.544,10.486-1.68,24.949-22.514,24.949-22.514C735.138,694.119,732.357,693.343,732.357,693.343Z" transform="translate(-699.292 -693.343)" fill="#d8d8d8"/>
          </g>
        </g>
      </g>
      <g id="Grupo_1014531" data-name="Grupo 1014531" transform="translate(83.725 34.363)">
        <g id="Grupo_1014470" data-name="Grupo 1014470" transform="translate(7.764 83.973)">
          <path id="Trazado_716972" data-name="Trazado 716972" d="M836.739,1074.92l59-11.472,24.752,1.943c-1.248-19.251-7.531-57.4-37.248-69.585l75.17-5.7,23.669,19.366,15.268,64.633-20.6,4.2-51.51,11.373Z" transform="translate(-836.739 -990.102)" fill="#d8d8d8"/>
        </g>
        <g id="Grupo_1014483" data-name="Grupo 1014483" transform="translate(9.496 140.637)">
          <g id="Grupo_1014471" data-name="Grupo 1014471">
            <path id="Trazado_716973" data-name="Trazado 716973" d="M994.352,1289.15s1.914,10.21,0,10.848-61.9,14.039-66.364,14.039-82.317-8.3-82.317-11.486-.638-10.21,1.276-10.848,56.154-13.4,59.345-12.762S994.352,1286.6,994.352,1289.15Z" transform="translate(-845.568 -1278.917)" fill="#333"/>
          </g>
          <g id="Grupo_1014472" data-name="Grupo 1014472" transform="translate(0 10.104)">
            <path id="Trazado_716974" data-name="Trazado 716974" d="M845.672,1343.945c0-2.777-.483-8.454.655-10.3,10.568,2.423,77.56,9.661,81.662,9.661,4.049,0,55.512-10.258,66.293-12.892a.194.194,0,0,1,.071.129s1.914,10.21,0,10.848-61.9,14.039-66.364,14.039S845.672,1347.136,845.672,1343.945Z" transform="translate(-845.57 -1330.415)" fill="#1a1a1a"/>
          </g>
          <g id="Grupo_1014482" data-name="Grupo 1014482" transform="translate(37.951 1.315)">
            <g id="Grupo_1014473" data-name="Grupo 1014473" transform="translate(19.29 3.555)">
              <path id="Trazado_716975" data-name="Trazado 716975" d="M1163.87,1306.656s7.4-.924,6.471,1.849-8.32,3.7-11.093,1.849-4.622-.925-11.093-1.849-12.942-1.849-10.168-3.7,9.244-.925,12.942,0S1162.022,1303.882,1163.87,1306.656Z" transform="translate(-1137.328 -1303.74)" fill="#7acfee" opacity="0.8"/>
            </g>
            <g id="Grupo_1014476" data-name="Grupo 1014476" transform="translate(0 0.924)">
              <g id="Grupo_1014474" data-name="Grupo 1014474" opacity="0.2">
                <path id="Trazado_716976" data-name="Trazado 716976" d="M1058.031,1290.333l56.057,7.233c.005.153.013.306.017.46l-21.87,5.249-53.219-7.216c-.008-.18-.009-.359-.009-.537Z" transform="translate(-1039.006 -1290.333)" fill="#fff"/>
              </g>
              <g id="Grupo_1014475" data-name="Grupo 1014475" transform="translate(0 5.162)" opacity="0.2">
                <path id="Trazado_716977" data-name="Trazado 716977" d="M1113.646,1318.657l.441.057c.005.153.013.306.017.46l-21.87,5.249-53.219-7.216c-.008-.179-.009-.358-.009-.537l.1-.027,53.13,6.856S1106.741,1320.151,1113.646,1318.657Z" transform="translate(-1039.006 -1316.643)" fill="#fff"/>
              </g>
            </g>
            <g id="Grupo_1014479" data-name="Grupo 1014479">
              <g id="Grupo_1014477" data-name="Grupo 1014477" opacity="0.2">
                <path id="Trazado_716978" data-name="Trazado 716978" d="M1058.031,1285.621l56.057,7.233c.005.153.013.307.017.46l-21.87,5.249-53.219-7.216c-.008-.179-.009-.358-.009-.537Z" transform="translate(-1039.006 -1285.621)" fill="#fff"/>
              </g>
              <g id="Grupo_1014478" data-name="Grupo 1014478" transform="translate(0 5.162)" opacity="0.2">
                <path id="Trazado_716979" data-name="Trazado 716979" d="M1113.646,1313.946l.441.057c.005.153.013.307.017.46l-21.87,5.249-53.219-7.216c-.008-.18-.009-.358-.009-.537l.1-.027,53.13,6.855S1106.741,1315.439,1113.646,1313.946Z" transform="translate(-1039.006 -1311.931)" fill="#fff"/>
              </g>
            </g>
            <g id="Grupo_1014480" data-name="Grupo 1014480" transform="translate(34.946 3.476)" opacity="0.25">
              <path id="Trazado_716980" data-name="Trazado 716980" d="M1233.163,1311.123l-11.178-7.511-4.857-.275,11.357,7.118Z" transform="translate(-1217.128 -1303.336)" fill="#fff"/>
            </g>
            <g id="Grupo_1014481" data-name="Grupo 1014481" transform="translate(25.324 1.46)" opacity="0.25">
              <path id="Trazado_716981" data-name="Trazado 716981" d="M1185.387,1301.86l-14.7-8.354-2.6-.446,12.624,8.131Z" transform="translate(-1168.085 -1293.061)" fill="#fff"/>
            </g>
          </g>
        </g>
        <g id="Grupo_1014508" data-name="Grupo 1014508" transform="translate(55.921 87.918)">
          <g id="Grupo_1014484" data-name="Grupo 1014484" transform="translate(6.476 11.947)">
            <path id="Trazado_716982" data-name="Trazado 716982" d="M1137.739,1076.443l-.02.06-.043.128-.03.09-.185.557-.065.2-.024.072-.229.687-.011.031h0c-.679,2.038-1.844,5.523-3.06,9.086l.166.05s-.068.012-.193.029c-1.839,5.387-3.778,10.912-4.293,11.8a10.816,10.816,0,0,1-5.372,3.848,9.4,9.4,0,0,1-4.33-.715h0c-.221-.077-.438-.158-.651-.241l-.1-.041c-.215-.085-.425-.172-.626-.26h0c-.192-.085-.373-.171-.548-.257l-.124-.062c-.172-.087-.337-.175-.485-.261-1.8-1.047-2.367-6.674-2.307-7.6s7.219-22.53,7.219-22.53Z" transform="translate(-1115.201 -1071.102)" fill="#7b8992"/>
          </g>
          <g id="Grupo_1014492" data-name="Grupo 1014492" transform="translate(17.516 26.06)">
            <g id="Grupo_1014485" data-name="Grupo 1014485" transform="translate(0.068)">
              <path id="Trazado_716983" data-name="Trazado 716983" d="M1171.824,1143.038s.32,24.823.589,25.8,2.864,6.576,5.089,7.015,6.406.339,7.739-.554,3.727-3.657,4.166-5.882.11-26.334.11-26.334Z" transform="translate(-1171.824 -1143.038)" fill="#bdccd4"/>
            </g>
            <g id="Grupo_1014486" data-name="Grupo 1014486" transform="translate(0.068)">
              <path id="Trazado_716984" data-name="Trazado 716984" d="M1189.517,1143.084s.011.793.026,2.092c-1.633.427-6.854,1.722-9.536,1.58-3.2-.17-4.845,18.7-4.391,22.253s1.075,5.753,4.906,7.1a16.69,16.69,0,0,1-3.02-.252c-2.225-.439-4.82-6.037-5.089-7.015s-.589-25.8-.589-25.8Z" transform="translate(-1171.824 -1143.038)" fill="#93a3af"/>
            </g>
            <g id="Grupo_1014488" data-name="Grupo 1014488" transform="translate(0.299 24.957)">
              <g id="Grupo_1014487" data-name="Grupo 1014487">
                <path id="Trazado_716985" data-name="Trazado 716985" d="M1181.326,1272.968a22.013,22.013,0,0,1-8.1-1.545.359.359,0,0,1,.263-.668,21.2,21.2,0,0,0,16.772-.466.359.359,0,0,1,.345.629A21.151,21.151,0,0,1,1181.326,1272.968Z" transform="translate(-1173 -1270.245)" fill="#7b8992"/>
              </g>
            </g>
            <g id="Grupo_1014490" data-name="Grupo 1014490" transform="translate(0 12.231)">
              <g id="Grupo_1014489" data-name="Grupo 1014489">
                <path id="Trazado_716986" data-name="Trazado 716986" d="M1179.877,1208.286a22.383,22.383,0,0,1-8.173-1.543.359.359,0,0,1,.261-.668,21.865,21.865,0,0,0,17.4-.647.359.359,0,0,1,.351.625A22.04,22.04,0,0,1,1179.877,1208.286Z" transform="translate(-1171.475 -1205.382)" fill="#7b8992"/>
              </g>
            </g>
            <g id="Grupo_1014491" data-name="Grupo 1014491" transform="translate(11.712 5.385)" opacity="0.25">
              <path id="Trazado_716987" data-name="Trazado 716987" d="M1234.172,1172.245s-.133,21.8-1.546,22.752-1.625-7.925-1.355-13.022S1231.42,1166.305,1234.172,1172.245Z" transform="translate(-1231.17 -1170.484)" fill="#fff"/>
            </g>
          </g>
          <g id="Grupo_1014500" data-name="Grupo 1014500" transform="translate(41.613 16.138)">
            <g id="Grupo_1014493" data-name="Grupo 1014493">
              <path id="Trazado_716988" data-name="Trazado 716988" d="M1294.3,1101.165s12.539,21.426,13.256,22.144,5.738,4.3,7.89,3.586,5.738-2.869,6.455-4.3,1.435-5.021.717-7.173-12.911-22.952-12.911-22.952Z" transform="translate(-1294.298 -1092.467)" fill="#bdccd4"/>
            </g>
            <g id="Grupo_1014494" data-name="Grupo 1014494">
              <path id="Trazado_716989" data-name="Trazado 716989" d="M1309.706,1092.467s.4.684,1.056,1.807c-1.209,1.177-5.109,4.882-7.511,6.083-2.869,1.434,5.021,18.649,7.173,21.518s3.776,4.471,7.771,3.749a16.643,16.643,0,0,1-2.75,1.272c-2.152.717-7.173-2.869-7.89-3.586s-13.256-22.144-13.256-22.144Z" transform="translate(-1294.298 -1092.467)" fill="#93a3af"/>
            </g>
            <g id="Grupo_1014496" data-name="Grupo 1014496" transform="translate(12.897 21.627)">
              <g id="Grupo_1014495" data-name="Grupo 1014495">
                <path id="Trazado_716990" data-name="Trazado 716990" d="M1360.395,1212.275a.359.359,0,0,1-.05-.714,21.2,21.2,0,0,0,14.353-8.689.359.359,0,0,1,.611.376,21.943,21.943,0,0,1-14.863,9.024A.35.35,0,0,1,1360.395,1212.275Z" transform="translate(-1360.036 -1202.701)" fill="#7b8992"/>
              </g>
            </g>
            <g id="Grupo_1014498" data-name="Grupo 1014498" transform="translate(6.442 10.4)">
              <g id="Grupo_1014497" data-name="Grupo 1014497">
                <path id="Trazado_716991" data-name="Trazado 716991" d="M1327.492,1155.518a.359.359,0,0,1-.051-.714,21.83,21.83,0,0,0,14.807-9.154.359.359,0,0,1,.614.37,22.612,22.612,0,0,1-15.318,9.494A.381.381,0,0,1,1327.492,1155.518Z" transform="translate(-1327.134 -1145.476)" fill="#7b8992"/>
              </g>
            </g>
            <g id="Grupo_1014499" data-name="Grupo 1014499" transform="translate(13.973 6.773)" opacity="0.25">
              <path id="Trazado_716992" data-name="Trazado 716992" d="M1367.811,1127.893s10.654,19.025,9.893,20.547-5.327-6.088-7.61-10.654S1362.484,1124.088,1367.811,1127.893Z" transform="translate(-1365.521 -1126.988)" fill="#fff"/>
            </g>
          </g>
          <g id="Grupo_1014501" data-name="Grupo 1014501" transform="translate(4.31 0)">
            <path id="Trazado_716993" data-name="Trazado 716993" d="M1158.667,1010.927l2.869,7.173s2.152,10.759-22.235,17.932-32.994-2.869-32.994-2.869-4.3-7.89-.717-9.324,51.643-13.628,51.643-13.628Z" transform="translate(-1104.162 -1010.21)" fill="#333"/>
          </g>
          <g id="Grupo_1014502" data-name="Grupo 1014502" transform="translate(4.325)">
            <path id="Trazado_716994" data-name="Trazado 716994" d="M1137.34,1028.9c20.432-6.109,21.527-14.955,21.219-18.059l-1.263-.632s-48.056,12.194-51.643,13.628a2.343,2.343,0,0,0-1.411,2.221C1106.39,1029.394,1117.059,1034.964,1137.34,1028.9Z" transform="translate(-1104.242 -1010.209)" fill="#1a1a1a"/>
          </g>
          <g id="Grupo_1014504" data-name="Grupo 1014504" transform="translate(0 0.808)">
            <g id="Grupo_1014503" data-name="Grupo 1014503">
              <path id="Trazado_716995" data-name="Trazado 716995" d="M1138.537,1014.415c.026.081.054.165.073.239.47,1.853-.47,11.057-21.988,16.8s-29.407-3.586-29.407-3.586l-5.02-11.922c15.545.955,36.22,1.522,36.22,1.522A47.779,47.779,0,0,1,1138.537,1014.415Z" transform="translate(-1082.195 -1014.325)" fill="#e8e8e8"/>
            </g>
          </g>
          <g id="Grupo_1014505" data-name="Grupo 1014505" transform="translate(10.191 21.025)">
            <path id="Trazado_716996" data-name="Trazado 716996" d="M1139.891,1118.878s-5.75-2.352-5.75-1.176,1.917,4.7,3.833,4.7,4.472,1.764,4.472.588S1139.891,1118.878,1139.891,1118.878Z" transform="translate(-1134.141 -1117.373)" fill="#3a3a3a"/>
          </g>
          <g id="Grupo_1014506" data-name="Grupo 1014506" transform="translate(26.611 0.808)">
            <path id="Trazado_716997" data-name="Trazado 716997" d="M1217.833,1017.156c.126,3.195,1.09,13.09,8.151,14.2,21.189-5.744,22.12-14.86,21.653-16.7-.019-.074-.047-.158-.073-.239a47.78,47.78,0,0,0-20.121,3.047S1223.531,1017.356,1217.833,1017.156Z" transform="translate(-1217.833 -1014.325)" fill="#f1f1f1"/>
          </g>
          <g id="Grupo_1014507" data-name="Grupo 1014507" transform="translate(5.378 4.662)">
            <path id="Trazado_716998" data-name="Trazado 716998" d="M1109.609,1034.69s1.074,8.1,3.406,9.431,5.918,3.479,5.2,1.328-5.021-11.476-6.455-11.476A3.141,3.141,0,0,0,1109.609,1034.69Z" transform="translate(-1109.609 -1033.973)" fill="#f1f1f1"/>
          </g>
        </g>
        <g id="Grupo_1014509" data-name="Grupo 1014509" transform="translate(7.177 77.518)">
          <path id="Trazado_716999" data-name="Trazado 716999" d="M834.332,1048.473s81.945,11.472,87.681,11.472c5.064,0,53.538-10.853,64.839-13.4.42-12.913-.48-44.944-17.935-63.526-22.235-23.669-50.208-11.476-50.208-11.476s-52.36-1.435-53.077-3.586l-3.058-9.173-.529-1.586,55.229,4.3s29.535-7.664,47.467,1.66,33.148,24.624,35.989,85.236l-.058.016c0,.019.008.038.008.057,0,2.458-74.18,18.033-78.458,18.339-4.168.3-86.251-11.783-87.77-13S834.332,1048.473,834.332,1048.473Z" transform="translate(-833.744 -957.199)" fill="#f1f1f1"/>
        </g>
        <g id="Grupo_1014511" data-name="Grupo 1014511" transform="translate(95.349 128.744)">
          <g id="Grupo_1014510" data-name="Grupo 1014510">
            <path id="Trazado_717000" data-name="Trazado 717000" d="M1283.467,1276.684a.305.305,0,0,1-.306-.306v-5.5a.306.306,0,1,1,.611,0v5.161c3.259-.413,21.419-4.023,39.755-8.015,33.529-7.3,37.666-9.261,38.083-9.72a.3.3,0,0,1,.05-.186c-.738-15.6-2.288-28.507-4.737-39.45a.306.306,0,0,1,.6-.134c2.466,11.016,4.023,24.009,4.759,39.722a.3.3,0,0,1-.054.189c-.061.443-.88,1.214-11.883,4.006-6.368,1.616-15.35,3.7-25.977,6.015-19.435,4.24-38.721,8.062-40.877,8.216Z" transform="translate(-1283.161 -1218.297)" fill="#f0f0f0"/>
          </g>
        </g>
        <g id="Grupo_1014512" data-name="Grupo 1014512" transform="translate(35.569 77.792)">
          <path id="Trazado_717001" data-name="Trazado 717001" d="M978.9,959.908l3.058,9.173c.717,2.152,53.077,3.586,53.077,3.586l.152-.063V962.252c-1.02.228-1.586.375-1.586.375l-50.887-3.965-4.25-.064Z" transform="translate(-978.463 -958.597)" fill="#f0f0f0"/>
        </g>
        <g id="Grupo_1014513" data-name="Grupo 1014513" transform="translate(26.871 35.962)">
          <path id="Trazado_717002" data-name="Trazado 717002" d="M997.962,792.886s42.318-5.738,42.318-9.324-23.67-32.994-36.58-36.58-69.574,0-69.574,0,0,40.166,2.869,42.318S997.962,792.886,997.962,792.886Z" transform="translate(-934.126 -745.388)" fill="#f1f1f1"/>
        </g>
        <g id="Grupo_1014514" data-name="Grupo 1014514" transform="translate(26.871 35.962)">
          <path id="Trazado_717003" data-name="Trazado 717003" d="M934.126,746.982s56.663-3.586,69.574,0c.44.122.9.281,1.361.461a1.456,1.456,0,0,1-.285-.014c-5.379-.987-6.814,45.457-6.814,45.457s-58.1-1.435-60.967-3.586S934.126,746.982,934.126,746.982Z" transform="translate(-934.126 -745.388)" fill="#e8e8e8"/>
        </g>
        <g id="Grupo_1014526" data-name="Grupo 1014526" transform="translate(0)">
          <g id="Grupo_1014515" data-name="Grupo 1014515" transform="translate(20.617 32.51)">
            <path id="Trazado_717004" data-name="Trazado 717004" d="M956.665,727.789s13.634,17.119,12.765,21.367-9.835,22.973-15.218,23.272-26.273.106-32.077-1.067-19.885-23.575-19.885-23.575l28.62-19.629Z" transform="translate(-902.25 -727.789)" fill="#1a1a1a"/>
          </g>
          <g id="Grupo_1014516" data-name="Grupo 1014516" transform="translate(19.021 23.188)">
            <path id="Trazado_717005" data-name="Trazado 717005" d="M932.141,680.437s17.368,2.864,18.828,11.611-4.508,23.39-14.742,24.029-25.039-1.956-33.619-1.907-13.267-15.425-1.185-25.993C912.5,678.488,932.141,680.437,932.141,680.437Z" transform="translate(-894.115 -680.277)" fill="#333"/>
          </g>
          <g id="Grupo_1014525" data-name="Grupo 1014525">
            <g id="Grupo_1014517" data-name="Grupo 1014517" transform="translate(0.197)">
              <path id="Trazado_717006" data-name="Trazado 717006" d="M837.54,616.964,800.217,588.42s-6.527-9.325,3.73-20.515,19.582-2.8,19.582-2.8l31.729,25.747s8.392,7.46,0,19.582C848.778,619.8,837.54,616.964,837.54,616.964Z" transform="translate(-798.17 -562.087)" fill="#333"/>
            </g>
            <g id="Grupo_1014518" data-name="Grupo 1014518" transform="translate(0.287 3.954)">
              <path id="Trazado_717007" data-name="Trazado 717007" d="M855.865,606.757l-2.663-2.143a.38.38,0,1,0-.477.592l2.648,2.131c.332.3,8.033,7.393-.06,19.082a16.087,16.087,0,0,1-2.385,2.743,8.552,8.552,0,0,1-6.627-.662c-5.6-2.8-32.661-24.814-32.661-24.814s12.122-9.325,9.325-21.447c0,0-.932,15.852-16.785,20.515-4.663,1.372-6.823-.567-7.552-3.984a13.571,13.571,0,0,0,1.957,5.849l37.323,28.544a14.543,14.543,0,0,0,1.775.286,18.143,18.143,0,0,0,3.092.263,15.446,15.446,0,0,0,13.162-6.86C864.426,614.594,855.966,606.846,855.865,606.757Z" transform="translate(-798.63 -582.239)" fill="#1a1a1a"/>
            </g>
            <g id="Grupo_1014519" data-name="Grupo 1014519" transform="translate(0 0.397)">
              <ellipse id="Elipse_8492" data-name="Elipse 8492" cx="11.044" cy="5.795" rx="11.044" ry="5.795" transform="matrix(0.645, -0.765, 0.765, 0.645, 0, 16.888)" fill="#bdccd4"/>
            </g>
            <g id="Grupo_1014520" data-name="Grupo 1014520" transform="translate(3.163 3.341)">
              <path id="Trazado_717008" data-name="Trazado 717008" d="M817.243,584.614c3.931-4.663,9.1-6.772,11.549-4.709a3.305,3.305,0,0,1,.926,1.327c-2.672-1.005-7.125,1.114-10.61,5.246-3.265,3.873-4.64,8.284-3.613,10.851a3.171,3.171,0,0,1-.939-.538C812.109,594.73,813.312,589.277,817.243,584.614Z" transform="translate(-813.288 -579.113)" fill="#1a1a1a"/>
            </g>
            <g id="Grupo_1014523" data-name="Grupo 1014523" transform="translate(7.839 6.751)" opacity="0.4">
              <g id="Grupo_1014521" data-name="Grupo 1014521" transform="translate(2.944)">
                <path id="Trazado_717009" data-name="Trazado 717009" d="M852.128,610.39l1.718-12.027s1.865-1.865,2.8-1.865c.646,0-.5,7.166-1.263,11.565A16.617,16.617,0,0,1,852.128,610.39Z" transform="translate(-852.128 -596.498)" fill="#fff"/>
              </g>
              <g id="Grupo_1014522" data-name="Grupo 1014522" transform="translate(0 7.244)">
                <path id="Trazado_717010" data-name="Trazado 717010" d="M838.212,634.275l1.707-.854-.8,7.192a7.8,7.8,0,0,1-2,.565A49.737,49.737,0,0,1,838.212,634.275Z" transform="translate(-837.122 -633.421)" fill="#fff"/>
              </g>
            </g>
            <g id="Grupo_1014524" data-name="Grupo 1014524" transform="translate(29.286 11.216)">
              <path id="Trazado_717011" data-name="Trazado 717011" d="M972.516,639.324s.787,3.077-.877,3.077-23.408-17.191-24.24-18.855-1.664-4.993,0-4.161S972.516,639.324,972.516,639.324Z" transform="translate(-946.438 -619.254)" fill="#3a3a3a"/>
            </g>
          </g>
        </g>
        <g id="Grupo_1014528" data-name="Grupo 1014528" transform="translate(31.915 77.776)">
          <g id="Grupo_1014527" data-name="Grupo 1014527">
            <path id="Trazado_717012" data-name="Trazado 717012" d="M1018.627,964.5h-.012c-.241-.01-40.86-1.933-58.5-2.9a.3.3,0,0,1-.279-.311.289.289,0,0,1,.311-.279c17.376.949,57.54,2.856,58.466,2.895.809-.11,19.469-2.67,31.639-5.381a.3.3,0,0,1,.128.577c-12.4,2.763-31.523,5.368-31.714,5.394Z" transform="translate(-959.835 -958.515)" fill="#d8d8d8"/>
          </g>
        </g>
        <g id="Grupo_1014530" data-name="Grupo 1014530" transform="translate(36.276 80.88)">
          <g id="Grupo_1014529" data-name="Grupo 1014529">
            <path id="Trazado_717013" data-name="Trazado 717013" d="M1088.362,996.583c-11.381-12.115-24.279-14.713-33.242-14.713l-.426,0a48.155,48.155,0,0,0-16.821,3.136c-25.306-.695-51.488-2.083-52.737-3.4l-2.418-7.255c-.217-.007-.435-.014-.652-.023l2.5,7.494c.167.5.515,1.543,27.083,2.808,13.032.621,26.145.983,26.276.987a.317.317,0,0,0,.13-.025,47.127,47.127,0,0,1,16.647-3.113c8.851-.078,21.806,2.372,33.217,14.518,17.369,18.49,18.271,50.432,17.853,63.307a.305.305,0,0,0,.3.315h.01a.306.306,0,0,0,.305-.3C1106.8,1047.376,1105.888,1015.24,1088.362,996.583Z" transform="translate(-982.066 -974.332)" fill="#d8d8d8"/>
          </g>
        </g>
      </g>
      <g id="Grupo_1014541" data-name="Grupo 1014541" transform="translate(64.243 30.487)">
        <g id="Grupo_1014534" data-name="Grupo 1014534" transform="translate(3.564 8.822)">
          <g id="Grupo_1014533" data-name="Grupo 1014533">
            <g id="Grupo_1014532" data-name="Grupo 1014532">
              <path id="Trazado_717014" data-name="Trazado 717014" d="M718.818,587.618l-2.788,11.264,5.077,4.434.626-5.938s2.7,2.61,5.485,1.452c2.478-1.031,3.156-11.53,3.156-11.53Z" transform="translate(-716.03 -587.299)" fill="#f27461"/>
            </g>
          </g>
        </g>
        <g id="Grupo_1014537" data-name="Grupo 1014537">
          <g id="Grupo_1014536" data-name="Grupo 1014536">
            <g id="Grupo_1014535" data-name="Grupo 1014535">
              <path id="Trazado_717015" data-name="Trazado 717015" d="M708.137,556.955s-4.008,4.567-7.416,1.677-.506-7.2-.506-7.2-2.5.453-2.343-.426,2.33-.333,2.33-.333-2.836-1.878-1.664-3.329,2.729.8,2.729.8,2.7-5.712,11.344-5.8,9.133,11.344-3.423,11.33c0,0-2.171-2.841-3.355.146C704.156,558.046,708.137,556.955,708.137,556.955Z" transform="translate(-697.865 -542.335)" fill="#1f0202"/>
            </g>
          </g>
        </g>
        <g id="Grupo_1014540" data-name="Grupo 1014540" transform="translate(0 3.248)">
          <g id="Grupo_1014539" data-name="Grupo 1014539">
            <g id="Grupo_1014538" data-name="Grupo 1014538">
              <path id="Trazado_717016" data-name="Trazado 717016" d="M700.2,563.977s-2.17-.546-2.33.333,2.343.426,2.343.426-2.9,4.314.506,7.2,7.416-1.677,7.416-1.677-3.981,1.092-2.3-3.142c1.184-2.987,3.355-.146,3.355-.146,6.652.008,9.641-3.2,9.7-6.2-1.417,4.4-11.723,5.014-14.889,3.14-2.331-1.38-1.55-3.585-.66-5.02a9.077,9.077,0,0,0-2.069,2.557s-1.558-2.25-2.729-.8S700.2,563.977,700.2,563.977Z" transform="translate(-697.865 -558.89)"/>
            </g>
          </g>
        </g>
      </g>
      <g id="Grupo_1014552" data-name="Grupo 1014552" transform="translate(69.448 196.017)">
        <g id="Grupo_1014548" data-name="Grupo 1014548" transform="translate(0 13.838)">
          <g id="Grupo_1014544" data-name="Grupo 1014544">
            <g id="Grupo_1014543" data-name="Grupo 1014543">
              <g id="Grupo_1014542" data-name="Grupo 1014542">
                <path id="Trazado_717017" data-name="Trazado 717017" d="M725.824,1461.34a3.985,3.985,0,0,0,.834.148c1.927.137,12.041.775,12.292-.854.277-1.8-2.875-5.97-10.529-3.048C722.33,1459.912,724.649,1461,725.824,1461.34Z" transform="translate(-724.397 -1456.576)" fill="#12263f"/>
              </g>
            </g>
          </g>
          <g id="Grupo_1014547" data-name="Grupo 1014547" transform="translate(0 0.655)">
            <g id="Grupo_1014546" data-name="Grupo 1014546">
              <g id="Grupo_1014545" data-name="Grupo 1014545">
                <path id="Trazado_717018" data-name="Trazado 717018" d="M728.421,1460.268q.522-.2,1.017-.355c-1.473,1.505,1.281,3.4,5.633,3.4,2.675,0,3.463-.679,3.606-1.329a2.307,2.307,0,0,1,.273,1.329c-.251,1.629-10.365.991-12.292.854a3.977,3.977,0,0,1-.834-.148C724.649,1463.68,722.33,1462.594,728.421,1460.268Z" transform="translate(-724.397 -1459.913)" fill="#12263f"/>
              </g>
            </g>
          </g>
        </g>
        <g id="Grupo_1014551" data-name="Grupo 1014551" transform="translate(1.751)">
          <g id="Grupo_1014550" data-name="Grupo 1014550">
            <g id="Grupo_1014549" data-name="Grupo 1014549">
              <path id="Trazado_717019" data-name="Trazado 717019" d="M733.346,1401.875l.853-15.427a.561.561,0,0,1,.674-.388l1.65.412a.56.56,0,0,1,.393.729l-1.225,14.148a1.822,1.822,0,0,1-1.492,1.206l-.245.031A.561.561,0,0,1,733.346,1401.875Z" transform="translate(-733.324 -1386.043)" fill="#f27461"/>
            </g>
          </g>
        </g>
      </g>
      <g id="Grupo_1014563" data-name="Grupo 1014563" transform="translate(32.596 197.956)">
        <g id="Grupo_1014559" data-name="Grupo 1014559" transform="translate(0 11.898)">
          <g id="Grupo_1014555" data-name="Grupo 1014555">
            <g id="Grupo_1014554" data-name="Grupo 1014554">
              <g id="Grupo_1014553" data-name="Grupo 1014553">
                <path id="Trazado_717020" data-name="Trazado 717020" d="M537.99,1461.34a3.983,3.983,0,0,0,.834.148c1.927.137,12.041.775,12.292-.854.277-1.8-2.875-5.97-10.529-3.048C534.5,1459.912,536.815,1461,537.99,1461.34Z" transform="translate(-536.563 -1456.576)" fill="#12263f"/>
              </g>
            </g>
          </g>
          <g id="Grupo_1014558" data-name="Grupo 1014558" transform="translate(0 0.655)">
            <g id="Grupo_1014557" data-name="Grupo 1014557">
              <g id="Grupo_1014556" data-name="Grupo 1014556">
                <path id="Trazado_717021" data-name="Trazado 717021" d="M540.587,1460.268q.523-.2,1.017-.355c-1.473,1.505,1.281,3.4,5.633,3.4,2.675,0,3.463-.679,3.606-1.329a2.307,2.307,0,0,1,.273,1.329c-.25,1.629-10.365.991-12.292.854a3.975,3.975,0,0,1-.834-.148C536.815,1463.68,534.5,1462.594,540.587,1460.268Z" transform="translate(-536.563 -1459.913)" fill="#12263f"/>
              </g>
            </g>
          </g>
        </g>
        <g id="Grupo_1014562" data-name="Grupo 1014562" transform="translate(1.751)">
          <g id="Grupo_1014561" data-name="Grupo 1014561">
            <g id="Grupo_1014560" data-name="Grupo 1014560">
              <path id="Trazado_717022" data-name="Trazado 717022" d="M545.512,1409.821l3.9-13.487a.56.56,0,0,1,.674-.388l1.65.412a.56.56,0,0,1,.393.729l-4.273,12.209a1.822,1.822,0,0,1-1.492,1.206l-.245.031A.561.561,0,0,1,545.512,1409.821Z" transform="translate(-545.49 -1395.929)" fill="#e55857"/>
            </g>
          </g>
        </g>
      </g>
      <g id="Grupo_1014570" data-name="Grupo 1014570" transform="translate(35.063 106.891)">
        <g id="Grupo_1014566" data-name="Grupo 1014566">
          <g id="Grupo_1014565" data-name="Grupo 1014565">
            <g id="Grupo_1014564" data-name="Grupo 1014564">
              <path id="Trazado_717023" data-name="Trazado 717023" d="M562.824,931.764s-1.108,42.255-.831,47.519-11.637,44.748-11.914,45.58-1.8,4.156-.277,4.71,4.71,1.94,5.126.97,16.486-43.779,17.733-49.736,3.741-20.781,3.741-20.781,8.313,21.751,8.59,22.859-.97,42.67-1.108,43.64-.554,3.879.554,4.156,5.957.97,6.234,0,5.68-47.8,5.264-51.953-5.819-46.272-5.819-46.272Z" transform="translate(-549.134 -931.764)" fill="#479bdb"/>
            </g>
          </g>
        </g>
        <g id="Grupo_1014569" data-name="Grupo 1014569" transform="translate(0 3.709)">
          <g id="Grupo_1014568" data-name="Grupo 1014568">
            <g id="Grupo_1014567" data-name="Grupo 1014567">
              <path id="Trazado_717024" data-name="Trazado 717024" d="M576.4,975.223a118.943,118.943,0,0,1-3.6-13.3s-9.628.346-10.07-11.253c-.262,10.423-.963,39.5-.737,43.81.277,5.265-11.637,44.749-11.914,45.58s-1.8,4.156-.277,4.71,4.71,1.939,5.126.97S571.413,1001.961,572.66,996,576.4,975.223,576.4,975.223Z" transform="translate(-549.134 -950.67)" fill="#2f8ac2"/>
            </g>
          </g>
        </g>
      </g>
      <g id="Grupo_1014573" data-name="Grupo 1014573" transform="translate(58.005 121.543)">
        <g id="Grupo_1014572" data-name="Grupo 1014572">
          <g id="Grupo_1014571" data-name="Grupo 1014571">
            <path id="Trazado_717025" data-name="Trazado 717025" d="M666.76,1006.736a.346.346,0,1,0-.683.118,105.843,105.843,0,0,0,4.077,14.635c.153-.9.242-1.43.242-1.43l.027.072A102.163,102.163,0,0,1,666.76,1006.736Z" transform="translate(-666.072 -1006.448)" fill="#381144"/>
          </g>
        </g>
      </g>
      <g id="Grupo_1014583" data-name="Grupo 1014583" transform="translate(43.735 50.713)">
        <g id="Grupo_1014574" data-name="Grupo 1014574" transform="translate(75.388 9.771)">
          <path id="Trazado_717026" data-name="Trazado 717026" d="M979.8,704.385s-2.806-3.813-2.1-4.455,1.687,1.511,2.033.954-1.167-4.586-.168-5.2c.851-.524,1.291,3.891,1.541,3.737s.893-3.925,1.5-4.163.838,1.138-.032,3.533c0,0-.331,1.03-.15.988s1.827-3.19,2.272-2.913.073,1.126-1.269,3.536c0,0-.277.446-.027.292s2.176-2.51,2.249-1.383-4.1,6.1-4.1,6.1Z" transform="translate(-977.59 -695.23)" fill="#f27461"/>
        </g>
        <g id="Grupo_1014577" data-name="Grupo 1014577" transform="translate(0 2.293)">
          <g id="Grupo_1014576" data-name="Grupo 1014576">
            <g id="Grupo_1014575" data-name="Grupo 1014575">
              <path id="Trazado_717027" data-name="Trazado 717027" d="M673.875,674.868s-5.616,25.861-23.987,24.059c-6.9-.677-15.843-8.608-15.843-8.608s.982,42.716-1.373,50.474c0,0-12.56,9.7-26.736,8.433-.6-.054-1.5-11.085-2.106-11.18s-.927,10.747-1.538,10.608a26.487,26.487,0,0,1-7.046-2.711s-4.338-66.842.06-79.278c4.018-11.36,24.743-10.084,30.895-8.59,9.155,2.223,15.728,10,26.691,23.1a6.569,6.569,0,0,0,7.391,1.937c2.954-1.141,5.959-3.322,9.258-10.267C669.541,672.844,672.8,672.724,673.875,674.868Z" transform="translate(-593.335 -657.115)" fill="#f1f1f1"/>
            </g>
          </g>
        </g>
        <g id="Grupo_1014578" data-name="Grupo 1014578" transform="translate(0.567 31.034)">
          <path id="Trazado_717028" data-name="Trazado 717028" d="M631.56,803.609s4.807,34.336-7.9,43.263c-12.2,8.573-24.083,3.212-27.439-10,.563,14.8,1.344,26.824,1.344,26.824a26.49,26.49,0,0,0,7.047,2.711c.611.139.93-10.7,1.538-10.608s1.5,11.127,2.107,11.18c14.176,1.262,26.736-8.433,26.736-8.433,2.355-7.758,1.373-50.474,1.373-50.474s.222.2.622.53C635.138,806.953,632.734,804.783,631.56,803.609Z" transform="translate(-596.224 -803.609)" fill="#e8e8e8"/>
        </g>
        <g id="Grupo_1014579" data-name="Grupo 1014579" transform="translate(30.753 63.31)">
          <path id="Trazado_717029" data-name="Trazado 717029" d="M758.666,969.493l-8.584.343v-1.03l8.584-.687Z" transform="translate(-750.082 -968.12)" fill="#d8d8d8"/>
        </g>
        <g id="Grupo_1014580" data-name="Grupo 1014580" transform="translate(33.242 29.06)">
          <path id="Trazado_717030" data-name="Trazado 717030" d="M770.238,800.01c-3.138-2.746-6.693-6.3-6.736-6.339a.429.429,0,0,0-.607.607c.045.045,4.075,4.069,7.367,6.888C770.25,800.51,770.241,800.107,770.238,800.01Z" transform="translate(-762.77 -793.545)" fill="#d8d8d8"/>
        </g>
        <g id="Grupo_1014581" data-name="Grupo 1014581" transform="translate(18.422)">
          <path id="Trazado_717031" data-name="Trazado 717031" d="M700.8,648.754s1.127-2.253.751-2.629-9.764-1.127-13.52-.375c0,0-1.5,0-.375,2.629S700.8,648.754,700.8,648.754Z" transform="translate(-687.232 -645.428)" fill="#f1f1f1"/>
        </g>
        <g id="Grupo_1014582" data-name="Grupo 1014582" transform="translate(18.423 0.067)">
          <path id="Trazado_717032" data-name="Trazado 717032" d="M700.437,648.741s-4.647-.845-7.737-1.189c-2.309-.257-2.509-1.28-2.463-1.781a16.868,16.868,0,0,0-2.206.254s-1.326,0-.55,2.185A93.23,93.23,0,0,1,700.437,648.741Z" transform="translate(-687.237 -645.771)" fill="#e8e8e8"/>
        </g>
      </g>
    </g>
    <ellipse id="Elipse_8493" data-name="Elipse 8493" cx="1.016" cy="0.536" rx="1.016" ry="0.536" transform="matrix(0.246, -0.969, 0.969, 0.246, 332.772, 334.132)"/>
  </g>
</svg>
