<svg xmlns="http://www.w3.org/2000/svg" xmlns:xlink="http://www.w3.org/1999/xlink" width="505.001" height="386.986" viewBox="0 0 505.001 386.986">
  <defs>
    <linearGradient id="linear-gradient" x1="1028.101" y1="0.474" x2="1027.619" y2="0.829" gradientUnits="objectBoundingBox">
      <stop offset="0" stop-color="#25252d"/>
      <stop offset="1" stop-color="#484a5c"/>
    </linearGradient>
    <linearGradient id="linear-gradient-2" x1="398.568" y1="0.175" x2="398.631" y2="0.653" gradientUnits="objectBoundingBox">
      <stop offset="0" stop-color="#e2a191"/>
      <stop offset="1" stop-color="#f5dac8"/>
    </linearGradient>
    <linearGradient id="linear-gradient-3" x1="-279.529" y1="-67.454" x2="-279.486" y2="-66.895" xlink:href="#linear-gradient-2"/>
    <linearGradient id="linear-gradient-4" x1="-0.014" y1="0.5" x2="0.986" y2="0.5" gradientUnits="objectBoundingBox">
      <stop offset="0" stop-color="#4b98fc"/>
      <stop offset="0.549" stop-color="#4c98fa"/>
      <stop offset="0.747" stop-color="#509cf3"/>
      <stop offset="0.887" stop-color="#57a1e7"/>
      <stop offset="1" stop-color="#62aad7"/>
    </linearGradient>
    <linearGradient id="linear-gradient-5" x1="1.037" y1="0.5" x2="2.037" y2="0.5" gradientUnits="objectBoundingBox">
      <stop offset="0" stop-color="#b0e1f3"/>
      <stop offset="0.168" stop-color="#a2dcf4"/>
      <stop offset="0.482" stop-color="#7ed2f7"/>
      <stop offset="0.905" stop-color="#45c1fd"/>
      <stop offset="1" stop-color="#38bdff"/>
    </linearGradient>
    <linearGradient id="linear-gradient-6" x1="3.381" y1="4.442" x2="4.381" y2="4.442" gradientUnits="objectBoundingBox">
      <stop offset="0" stop-color="#7f5500"/>
      <stop offset="0.159" stop-color="#8c5e04"/>
      <stop offset="0.457" stop-color="#b07810"/>
      <stop offset="0.858" stop-color="#e9a222"/>
      <stop offset="1" stop-color="#ffb22a"/>
    </linearGradient>
    <linearGradient id="linear-gradient-7" y1="0.5" x2="1" y2="0.5" gradientUnits="objectBoundingBox">
      <stop offset="0" stop-color="#ffd53f"/>
      <stop offset="0.458" stop-color="#ffc736"/>
      <stop offset="1" stop-color="#ffb22a"/>
    </linearGradient>
  </defs>
  <g id="Grupo_1015230" data-name="Grupo 1015230" transform="translate(-915 -7923.255)">
    <g id="Grupo_1015229" data-name="Grupo 1015229" transform="translate(971.931 7923.255)">
      <g id="Grupo_1015217" data-name="Grupo 1015217" transform="translate(81.72 0)">
        <g id="Grupo_1015209" data-name="Grupo 1015209" transform="translate(98.352)">
          <path id="Trazado_718535" data-name="Trazado 718535" d="M-217.46,559.077s26.1,44.249,21.619,108.173h-42.408V559.077Z" transform="translate(313.683 -473.659)" fill="#3a3c48"/>
          <path id="Trazado_718536" data-name="Trazado 718536" d="M-211.353,556.283s1.343,16.018-14.114,22.628V564.295Z" transform="translate(309.369 -475.305)" fill="#6daafc"/>
          <path id="Trazado_718537" data-name="Trazado 718537" d="M-197.5,538.016s-1,27.407-21.83,42.11h-12.945v-42.11Z" transform="translate(306.367 -486.07)" fill="#3a3c48"/>
          <path id="Trazado_718538" data-name="Trazado 718538" d="M-224.321,811.739h76.956V597.265l-62.895-10.157Z" transform="translate(243.589 -457.14)" fill="#4db1f0"/>
          <path id="Trazado_718539" data-name="Trazado 718539" d="M-165.528,735.727s1.793,55.263,4.928,79.607h-32.037s5.377-47.122,4.034-68.854-4.706-94.841-4.706-101.114,8.066-49.549,10.082-55.485,4-8.514,6.648-8.849,30.206,2.687,30.206,2.687-16.564,29.237-20.548,58.586S-165.528,735.727-165.528,735.727Z" transform="translate(193.309 -460.736)" fill="#fff"/>
          <path id="Trazado_718540" data-name="Trazado 718540" d="M-172.516,552.407s-5.265,17.922-5.938,32.148,0,18.819,9.521,25.316c0,0-6.273,20.276-31.868,15.683s-23.691-21.171-23.356-23.636c0,0,7.953.113,11.425-2.241s4.212-4.785,4.817-9.746,0-37.525,0-37.525Z" transform="translate(265.155 -477.589)" fill="#f5dac8"/>
          <path id="Trazado_718541" data-name="Trazado 718541" d="M-220.369,589.932c-.351,2.875-.75,4.9-1.7,6.553,4.87,1.19,10.334-1.1,14.356-4.312,6.267-5,12.142-12.5,18.806-23.156,1.737-9.129,3.933-16.61,3.933-16.61h-35.4S-219.763,584.973-220.369,589.932Z" transform="translate(277.61 -477.589)" fill="#e2a191"/>
          <g id="Grupo_1015208" data-name="Grupo 1015208" transform="translate(16.731)">
            <path id="Trazado_718542" data-name="Trazado 718542" d="M-186.917,580s4.817,14.339,15.235,17.587c0,0-14.34-24.868-4.482-62.729C-176.164,534.857-189.158,550.987-186.917,580Z" transform="translate(192.143 -487.931)" fill="url(#linear-gradient)"/>
            <path id="Trazado_718543" data-name="Trazado 718543" d="M-226.637,560.9a26.311,26.311,0,0,1,1.569,8.439c.075,4.7-1.942,14.038,4.854,24.793s14.861,16.727,20.462,16.877,28.6-8.514,37.413-28.528c7.692-5.076,13.069-26.061,8.364-44.731s-20.686-31.215-43.313-28.453-30.022,20.535-30.694,32.485S-227.459,555.521-226.637,560.9Z" transform="translate(237.837 -503.219)" fill="#f5dac8"/>
            <path id="Trazado_718544" data-name="Trazado 718544" d="M-210.309,536.918c-.671,11.948.523,13.741,1.345,19.117a26.152,26.152,0,0,1,1.488,6.853c14.237-30.7,44.85-40.01,44.85-40.01v-5.712h-40.516A36.615,36.615,0,0,0-210.309,536.918Z" transform="translate(220.164 -498.356)" fill="#e2a191"/>
            <path id="Trazado_718545" data-name="Trazado 718545" d="M-175.17,529.852s-.784,33.046,19.715,37.637l2.689,9.521s8.576-4.992,11.2-14.938c3.361-12.73,2.813-35.686-12.433-41.63-4.145-7.954-25.429-22.067-50.52-11.09S-239.8,555.84-227.482,597.4c0,0,1.569-25.54,13.329-48.167C-194.549,534.558-185.924,532.542-175.17,529.852Z" transform="translate(232.707 -505.33)" fill="#3a3c48"/>
            <path id="Trazado_718546" data-name="Trazado 718546" d="M-221.573,521.031l-.191.574c-.113.362-.342.944-.5,1.591-.092.33-.2.7-.305,1.1-.094.415-.194.863-.3,1.34-.194.963-.377,2.057-.505,3.261-.072.6-.1,1.233-.149,1.885-.01.653-.046,1.33-.029,2.025a34.332,34.332,0,0,0,.343,4.361,32.016,32.016,0,0,0,1.03,4.568,29.051,29.051,0,0,0,1.8,4.485,27.144,27.144,0,0,0,2.565,4.094,25.379,25.379,0,0,0,3.218,3.4,23.19,23.19,0,0,0,3.6,2.5,21.9,21.9,0,0,0,3.614,1.577,17.091,17.091,0,0,0,1.691.49c.545.127,1.06.269,1.557.332a23.509,23.509,0,0,0,2.575.321c.718.072,1.289.043,1.675.064s.594.013.594.013l.03.9-.613.011c-.4,0-.989.048-1.737,0a24.74,24.74,0,0,1-2.694-.226c-.523-.048-1.066-.172-1.645-.283a17.851,17.851,0,0,1-1.8-.445,23.07,23.07,0,0,1-3.9-1.516,24.783,24.783,0,0,1-3.956-2.513,26.949,26.949,0,0,1-3.595-3.5,29.026,29.026,0,0,1-2.929-4.278,31.033,31.033,0,0,1-2.117-4.733,33.689,33.689,0,0,1-1.3-4.852,36.56,36.56,0,0,1-.559-4.669c-.046-.747-.04-1.477-.054-2.182.027-.7.027-1.387.078-2.039.087-1.308.237-2.5.405-3.554.1-.524.188-1.016.27-1.47q.162-.689.3-1.262c.173-.785.356-1.287.459-1.681.11-.378.168-.578.168-.578Z" transform="translate(281.686 -496.614)" fill="#3a3c48"/>
            <path id="Trazado_718547" data-name="Trazado 718547" d="M-228.186,548.231s3.212-8.512,8.813-7.468,5.526,7.691,3.287,12.7-6.5,9.634-11.427,10.3S-228.186,548.231-228.186,548.231Z" transform="translate(303.011 -484.503)" fill="#f5dac8"/>
            <ellipse id="Elipse_8517" data-name="Elipse 8517" cx="2.861" cy="4.609" rx="2.861" ry="4.609" transform="translate(47.575 59.001)" fill="#3a3c48"/>
            <g id="Grupo_1015207" data-name="Grupo 1015207" transform="translate(19.921 55.505)">
              <ellipse id="Elipse_8518" data-name="Elipse 8518" cx="2.861" cy="4.609" rx="2.861" ry="4.609" transform="translate(0)" fill="#3a3c48"/>
            </g>
            <path id="Trazado_718548" data-name="Trazado 718548" d="M-196.217,557.747a9.731,9.731,0,0,0,.639-.9c.264-.389.531-.869.811-1.386.135-.261.254-.54.381-.823a8.8,8.8,0,0,0,.359-.863,15.294,15.294,0,0,0,.545-1.763c.11-.58.25-1.109.291-1.578.067-.946.075-1.561.075-1.561l-.057-.006s-.186.6-.41,1.486c-.1.444-.326.938-.5,1.477s-.45,1.087-.661,1.653c-.108.283-.257.548-.378.82s-.25.539-.369.795c-.275.5-.472,1-.7,1.391l-.633,1.208c-.486.019.35,3.137,1.3,3.86s5.434,1.176,5.938.728C-189.114,561.855-192.426,558.251-196.217,557.747Z" transform="translate(225.567 -479.678)" fill="#e2a191"/>
            <path id="Trazado_718549" data-name="Trazado 718549" d="M-202.849,564.871s9.523-1.084,14.526-4.631c0,0-.019-.439-.272-.466s1.569-.421,1.68,0-.531,1.4-2.6,2.452a30,30,0,0,1-13.331,2.9Z" transform="translate(232.269 -473.362)" fill="#b0493c"/>
            <path id="Trazado_718550" data-name="Trazado 718550" d="M-194.429,565.047a3.729,3.729,0,0,0-3.808-1.008c-1.345.391-.046,2.015,1.2,2.268S-193.923,565.691-194.429,565.047Z" transform="translate(233.287 -470.823)" fill="#e2a191"/>
          </g>
          <path id="Trazado_718551" data-name="Trazado 718551" d="M-248.992,741.57s.45,43.165,3.436,68.854h54.964s-15.832-63.028-15.235-78.263,10.156-117.729,10.38-120.754-2.463-8.849-5.265-10.306S-233.42,589.34-233.42,589.34-249.688,714.04-248.992,741.57Z" transform="translate(326.06 -455.825)" fill="#fff"/>
          <path id="Trazado_718552" data-name="Trazado 718552" d="M-223.616,585.253s-14.207,73.8-11.23,161.619c0,0,35.509-93.31,36.07-95.325s1.008-4.145-1.12-6.162-15.346-18.93-15.346-18.93,11.613-7.133,12.808-7.88,1.94-1.716,1.044-3.285-14.47-26.754-15.394-28.041-8.267-6.907-8.267-6.907A13.118,13.118,0,0,0-223.616,585.253Z" transform="translate(311.914 -461.127)" fill="#e0ebf1"/>
          <path id="Trazado_718553" data-name="Trazado 718553" d="M-155.782,581.849s-13.35,19.85-18.278,71.826-8.066,82.444-8.066,82.444-16.018-105.408-16.354-108.432,0-4.032,1.008-4.928,15.459-8.738,15.459-8.738-6.106-11.65-6.33-12.266a3.056,3.056,0,0,1,.505-3.193c1.063-1.008,18.258-14.674,19.434-15.4a11.485,11.485,0,0,1,3.921-1.311c1.008-.145,9.931-1.507,9.931-1.507A4.572,4.572,0,0,1-155.782,581.849Z" transform="translate(209.907 -461.127)" fill="#e0ebf1"/>
        </g>
        <g id="Grupo_1015211" data-name="Grupo 1015211" transform="translate(0 15.514)">
          <path id="Trazado_718554" data-name="Trazado 718554" d="M-140.956,551.772l11.851,2.176s9.571,16.98,9.882,37.591l-7.643-.561S-140.822,561.966-140.956,551.772Z" transform="translate(181.307 -493.477)" fill="#d6e1e7"/>
          <g id="Grupo_1015210" data-name="Grupo 1015210" transform="translate(38.088)">
            <path id="Trazado_718555" data-name="Trazado 718555" d="M-143.8,605.268s14.524-42.3,15.534-44.228,7.718-8.345,9.18-11.745,1.872-12.433,2.4-14.373a55.265,55.265,0,0,0,1.251-5.995A18.232,18.232,0,0,1-113.813,524c.559-.952,2.017-2.465,1.287-3.136s-3.528-1.178-5.825,1.176-2.128,5.264-2.967,6.553-7.954,3.136-10.586,4.256-20.756,59.19-20.756,59.19l5.2,9.421Z" transform="translate(154.923 -512.022)" fill="url(#linear-gradient-2)"/>
            <path id="Trazado_718556" data-name="Trazado 718556" d="M-156.464,591.012s9.633-27.557,10.006-29.871,2.988-24.121,3.137-24.718,5.338-12.714,5.9-13.835a5.485,5.485,0,0,1,3.3-2.689c1.345-.28,8.681-1.9,10.977-2.8s4.706-2.521,5.041-1.848.168,4.256-3.3,6.441a36.385,36.385,0,0,1-7,3.36c-1.906.841-3.361,1.457-3.81,2.3s-1.848,7.506-1.848,7.506,4.93.28,8.234.335,4.256.5,5.769,1.96,8.96,9.242,10.249,10.307,2.463,1.793,1.793,2.463a5.363,5.363,0,0,1-4.426.73s.812,1.259,1.289,1.931.308,1.26-.253,1.484a6.415,6.415,0,0,1-5.013-.728c-2.155-1.316-2.521-2.212-3.333-2.716s-4.928-.588-4.928-.588,1.54.672,2.576,1.065,1.4,1.343,2.212,2.1,2.436,2.492,3.306,3.109.755,2.1-1.4,2.352a7.318,7.318,0,0,1-5.294-1.26,9.033,9.033,0,0,0-2.492-1.4c-.2,0-6.665,1.68-6.665,1.68a22.6,22.6,0,0,1-6.777,11.827L-149,604.529Z" transform="translate(156.464 -515.092)" fill="#f5dac8"/>
            <path id="Trazado_718557" data-name="Trazado 718557" d="M-134.957,538.234l-11.173-1.872a.174.174,0,0,1-.143-.2.174.174,0,0,1,.192-.145l11.251,1.33a.448.448,0,0,1,.393.5.449.449,0,0,1-.5.393Z" transform="translate(166.884 -502.762)" fill="#e2a191"/>
            <path id="Trazado_718558" data-name="Trazado 718558" d="M-131.737,541.24s-1.092-1.119-2.732-2.792c-.2-.213-.413-.432-.633-.661l-.334-.346-.17-.178-.022-.022-.01-.013-.006,0c.086.081.021.021.038.036l-.052-.033-.1-.068c-.566-.381-1.154-.723-1.759-1.079l-1.918-1.133-1.006-.6-.51-.307-.127-.076-.032-.019c.126.068.03.017.056.032l-.008,0-.017-.006-.07-.025a1.168,1.168,0,0,0-.251-.07c-.269-.06-.709-.143-1.07-.21l-1.14-.192c-.758-.119-1.505-.235-2.227-.347l-3.961-.575c-2.319-.34-3.864-.569-3.864-.569a.2.2,0,0,1-.173-.232.206.206,0,0,1,.221-.173s1.557.13,3.892.369l3.983.448,2.246.278,1.157.157c.405.067.739.1,1.23.214a2.321,2.321,0,0,1,.315.084l.07.022.017.006.008,0c.032.017-.059-.032.073.038l.032.019.122.073.5.292,1,.58c.672.394,1.335.78,1.977,1.154.658.385,1.29.761,1.842,1.125l.106.068.052.033.087.086.172.177c.113.118.226.232.335.345.221.227.432.447.637.656l2.694,2.827a.449.449,0,0,1-.016.634.447.447,0,0,1-.628-.011Z" transform="translate(175.43 -505.379)" fill="#e2a191"/>
          </g>
          <path id="Trazado_718559" data-name="Trazado 718559" d="M-133.952,551.772s4.955,22.964,21.733,39.767l-13.355,13.218-6.834,13.442,36.182-4.593s28.868-13.555,37-15.346l-16.058,64.3-7.84-5.265s-70.011-2.352-72.252-2.352-9.633.335-11.2-.113-5.152-9.679-6.608-13.913-1.12-19.8-1.009-20.925,5.938-6.049,7.393-8.288S-133.952,551.772-133.952,551.772Z" transform="translate(174.303 -493.477)" fill="#fff"/>
          <path id="Trazado_718560" data-name="Trazado 718560" d="M-118.6,593.844l-13.33,23.971,19.175-24.714Z" transform="translate(160.497 -469.122)" fill="#e0ebf1"/>
          <path id="Trazado_718561" data-name="Trazado 718561" d="M-140.253,630.83l-7.169-4.813-16.355-21.171,23.524,14.9Z" transform="translate(238.606 -462.202)" fill="#e0ebf1"/>
        </g>
        <g id="Grupo_1015216" data-name="Grupo 1015216" transform="translate(164.468 118.245)">
          <g id="Grupo_1015215" data-name="Grupo 1015215" transform="translate(0)">
            <path id="Trazado_718562" data-name="Trazado 718562" d="M-196.117,686.771s-26.423-36.088-27.957-37.626-9.847-5.68-12.252-8.492-5.477-11.319-6.553-13.016a55.422,55.422,0,0,1-2.972-5.354,18.24,18.24,0,0,0-3.013-4.224c-.818-.744-2.657-1.755-2.161-2.613s3.021-2.169,5.912-.605,3.595,4.4,4.779,5.377,8.525.636,11.371.925,37.385,50.363,37.385,50.363l-2.174,10.542Z" transform="translate(264.26 -559.473)" fill="url(#linear-gradient-3)"/>
            <g id="Grupo_1015214" data-name="Grupo 1015214" transform="translate(0)">
              <path id="Trazado_718563" data-name="Trazado 718563" d="M-197.758,676.415a9.2,9.2,0,0,0,9.316-9.08c.118-9.2-16.977-29.47-16.9-35.57.076-5.6.4-30.794.4-30.794l-10.971-.14s-.323,25.2-.4,30.792c-.076,6.1-17.686,25.929-17.8,35.128a9.2,9.2,0,0,0,9.081,9.313Z" transform="translate(234.116 -567.298)" fill="#fff" opacity="0.6"/>
              <path id="Trazado_718564" data-name="Trazado 718564" d="M-213.466,596.346a7.81,7.81,0,0,1-7.811,7.81,7.81,7.81,0,0,1-7.81-7.81,7.811,7.811,0,0,1,7.81-7.811A7.811,7.811,0,0,1-213.466,596.346Z" transform="translate(251.149 -574.544)" fill="#447af2" stroke="#447af2" stroke-miterlimit="10" stroke-width="0.389"/>
              <path id="Trazado_718565" data-name="Trazado 718565" d="M-221.911,584.966a5.233,5.233,0,0,1-5.234,5.235,5.234,5.234,0,0,1-5.235-5.235,5.234,5.234,0,0,1,5.235-5.234A5.233,5.233,0,0,1-221.911,584.966Z" transform="translate(264.828 -579.732)" fill="#447af2" stroke="#447af2" stroke-miterlimit="10" stroke-width="0.389"/>
              <path id="Trazado_718566" data-name="Trazado 718566" d="M-197.758,659.467a9.2,9.2,0,0,0,9.316-9.08c.033-2.67-1.386-6.274-3.412-10.194-11.179,4.018-19.574-10.284-32.385-10.6h0c-4.72,7.292-9.814,15.279-9.877,20.213a9.2,9.2,0,0,0,9.081,9.313Z" transform="translate(234.116 -550.35)" fill="#447af2" stroke="#447af2" stroke-miterlimit="10" stroke-width="0.389"/>
              <g id="Grupo_1015212" data-name="Grupo 1015212" transform="translate(5.716 85.512)" opacity="0.6">
                <path id="Trazado_718567" data-name="Trazado 718567" d="M-209.311,638.092a1.79,1.79,0,0,0,1-.779c.21-.345.424-.691.639-1.038a1.792,1.792,0,0,0-.578-2.468,1.794,1.794,0,0,0-2.468.578c-.219.354-.437.707-.653,1.062a1.793,1.793,0,0,0,.6,2.463A1.79,1.79,0,0,0-209.311,638.092Z" transform="translate(211.636 -633.537)" fill="#fff"/>
              </g>
              <g id="Grupo_1015213" data-name="Grupo 1015213" transform="translate(9.415 72.591)" opacity="0.6">
                <path id="Trazado_718568" data-name="Trazado 718568" d="M-214.467,637.036a1.782,1.782,0,0,0,.973-.737l.683-1.055c1.648-2.543,3.2-4.943,4.5-7.131a1.79,1.79,0,0,0-.631-2.454,1.789,1.789,0,0,0-2.454.631c-1.257,2.123-2.794,4.495-4.418,7l-.685,1.057a1.792,1.792,0,0,0,.531,2.479A1.785,1.785,0,0,0-214.467,637.036Z" transform="translate(216.791 -625.407)" fill="#fff"/>
              </g>
              <path id="Trazado_718569" data-name="Trazado 718569" d="M-200.117,600.918l-6.775-.086s-.323,25.2-.4,30.792c-.054,4.239-8.573,15.106-13.8,24.429" transform="translate(225.093 -567.298)" fill="none" stroke="#fff" stroke-linecap="round" stroke-linejoin="round" stroke-width="0.282"/>
            </g>
            <path id="Trazado_718570" data-name="Trazado 718570" d="M-192.577,670.069s-17.377-23.458-18.42-25.557-10.011-22.148-10.33-22.674-8.873-10.558-9.739-11.462a5.493,5.493,0,0,0-3.954-1.586c-1.367.132-8.855.758-11.314.583s-5.241-1.011-5.362-.269,1.1,4.115,5.067,5.17a36.4,36.4,0,0,0,7.684,1.132c2.068.237,3.641.394,4.318,1.062s3.992,6.619,3.992,6.619-4.625,1.731-7.764,2.764-3.914,1.745-4.927,3.585-5.815,11.483-6.729,12.881-1.823,2.444-.982,2.886a5.358,5.358,0,0,0,4.442-.618s-.4,1.445-.656,2.228.079,1.294.68,1.343A6.428,6.428,0,0,0-242,645.972c1.669-1.9,1.75-2.861,2.376-3.582s4.533-2.025,4.533-2.025-1.273,1.1-2.146,1.78-.938,1.7-1.489,2.664-1.586,3.1-2.233,3.948-.1,2.231,2.034,1.833a7.318,7.318,0,0,0,4.68-2.775,9.039,9.039,0,0,1,1.966-2.077c.186-.057,6.863-.372,6.863-.372a22.608,22.608,0,0,0,9.982,9.283l19.734,30.543Z" transform="translate(266.206 -562.617)" fill="#f5dac8"/>
            <path id="Trazado_718571" data-name="Trazado 718571" d="M-230.742,631.014l10.114-5.1a.173.173,0,0,0,.076-.234.172.172,0,0,0-.226-.081l-10.349,4.607a.448.448,0,0,0-.226.593.447.447,0,0,0,.59.227Z" transform="translate(261.879 -552.714)" fill="#e2a191"/>
            <path id="Trazado_718572" data-name="Trazado 718572" d="M-228.636,637.263s.714-1.391,1.782-3.477c.13-.262.267-.536.408-.817.072-.141.143-.286.215-.432l.11-.219.016-.029.006-.013,0-.008c-.059.1-.013.026-.025.046l.04-.048.081-.1c.426-.531.887-1.033,1.359-1.551l1.5-1.653.784-.866.4-.443.1-.111.025-.029c-.1.1-.024.025-.044.048l.006-.006.016-.011.059-.043a.924.924,0,0,1,.218-.141c.24-.14.634-.35.96-.518l1.031-.524,2.023-.992c1.322-.629,2.554-1.219,3.611-1.723l3.52-1.689a.2.2,0,0,0,.1-.272.2.2,0,0,0-.261-.1s-1.449.586-3.608,1.507l-3.67,1.61-2.063.931c-.351.165-.7.331-1.058.494-.367.184-.675.316-1.112.571a2.242,2.242,0,0,0-.273.173l-.06.041-.014.011-.008,0c-.025.027.046-.048-.059.057l-.024.029-.1.106-.386.426c-.261.284-.52.569-.779.85-.526.575-1.044,1.139-1.545,1.688s-1.006,1.109-1.427,1.621l-.079.1-.041.049-.059.107-.111.221-.218.429c-.141.281-.281.555-.413.815-1.041,2.1-1.734,3.5-1.734,3.5a.449.449,0,0,0,.2.6.45.45,0,0,0,.6-.2Z" transform="translate(248.651 -555.103)" fill="#e2a191"/>
          </g>
          <path id="Trazado_718573" data-name="Trazado 718573" d="M-274.293,653.062v57.044l10.008,5.079s15.086,21.508,16.578,22.7,16.579,2.689,17.476,2.54,6.869-16.578,6.869-18.669-7.468-26.624-8.514-28.4-24.941-54.485-24.941-54.485l-12.517-38.469Z" transform="translate(332.891 -567.549)" fill="#fff"/>
          <path id="Trazado_718574" data-name="Trazado 718574" d="M-268.842,638.8l42.267,50.026-40.931-64.213Z" transform="translate(327.44 -553.285)" fill="#e0ebf1"/>
        </g>
      </g>
      <rect id="Rectángulo_348077" data-name="Rectángulo 348077" width="505" height="64.949" transform="translate(-56.931 322.038)" fill="#afafaf"/>
      <g id="Grupo_1015228" data-name="Grupo 1015228" transform="translate(325.913 186.542)">
        <rect id="Rectángulo_348080" data-name="Rectángulo 348080" width="12.21" height="4.929" transform="translate(42.118 51.769)" fill="#3a3c48"/>
        <rect id="Rectángulo_348081" data-name="Rectángulo 348081" width="4.855" height="124.114" transform="translate(61.609 17.324)" fill="#3a3c48"/>
        <g id="Grupo_1015227" data-name="Grupo 1015227" transform="translate(2.686)">
          <g id="Grupo_1015226" data-name="Grupo 1015226">
            <path id="Trazado_718582" data-name="Trazado 718582" d="M-259.4,690.73c0,.85-.037,1.7-.118,2.525-16.962,3.639-24.33.682-31.4-2.679,8.5,3.147,14.2-4.266,8.668-8.226C-268.966,677.493-259.807,686.078-259.4,690.73Z" transform="translate(312.948 -588.407)" fill="#578ae4" opacity="0.7"/>
            <path id="Trazado_718583" data-name="Trazado 718583" d="M-257,685.589a26.778,26.778,0,0,1,18.99,25.622c-.4-4.652-9.563-13.237-22.851-8.38,5.529,3.96-.164,11.373-8.668,8.226-5.7-2.715-11.2-5.69-21.39-5.69a26.84,26.84,0,0,1,18.353-19.779V648.84a2.686,2.686,0,0,1,2.689-2.689h10.187A2.685,2.685,0,0,1-257,648.84Z" transform="translate(291.558 -608.889)" fill="#d7e7fe" opacity="0.6"/>
            <path id="Trazado_718584" data-name="Trazado 718584" d="M-267.01,639.319a7.811,7.811,0,0,1-7.811,7.81,7.81,7.81,0,0,1-7.811-7.81,7.811,7.811,0,0,1,7.811-7.811A7.812,7.812,0,0,1-267.01,639.319Z" transform="translate(307.381 -617.518)" fill="#fff" opacity="0.6"/>
            <path id="Trazado_718585" data-name="Trazado 718585" d="M-275.457,627.94a5.234,5.234,0,0,1-5.234,5.233,5.233,5.233,0,0,1-5.235-5.233,5.234,5.234,0,0,1,5.235-5.235A5.234,5.234,0,0,1-275.457,627.94Z" transform="translate(321.062 -622.705)" fill="#fff" opacity="0.6"/>
            <path id="Trazado_718586" data-name="Trazado 718586" d="M-290.922,670.966a26.778,26.778,0,0,1,18.99,25.622" transform="translate(325.476 -594.265)" fill="none" stroke="#fff" stroke-linecap="round" stroke-linejoin="round" stroke-width="0.282"/>
            <path id="Trazado_718587" data-name="Trazado 718587" d="M-270.871,705.368a26.84,26.84,0,0,1,18.353-19.779V648.84a2.686,2.686,0,0,1,2.689-2.689" transform="translate(271.507 -608.889)" fill="none" stroke="#fff" stroke-linecap="round" stroke-linejoin="round" stroke-width="0.282"/>
            <path id="Trazado_718588" data-name="Trazado 718588" d="M-237.421,691.78a26.763,26.763,0,0,1-26.651,24.241,26.771,26.771,0,0,1-26.776-26.767,27.307,27.307,0,0,1,.636-5.844c10.189,0,15.691,2.975,21.39,5.69C-261.751,692.462-254.383,695.42-237.421,691.78Z" transform="translate(290.848 -586.932)" fill="#3076b6"/>
          </g>
          <path id="Trazado_718589" data-name="Trazado 718589" d="M-272.627,694.887a21.991,21.991,0,0,1,15.489-20.9,3.134,3.134,0,0,1,3.911,2.09,3.136,3.136,0,0,1-2.088,3.913,15.672,15.672,0,0,0-11.039,14.9,3.139,3.139,0,0,1-3.137,3.137A3.136,3.136,0,0,1-272.627,694.887Zm6.176,13.345a3.13,3.13,0,0,0,1.713-.51,3.137,3.137,0,0,0,.909-4.342c-.245-.375-.477-.765-.688-1.157a3.136,3.136,0,0,0-4.248-1.278,3.137,3.137,0,0,0-1.278,4.247c.3.552.621,1.1.963,1.621A3.134,3.134,0,0,0-266.451,708.232Z" transform="translate(277.558 -592.567)" fill="#fff" opacity="0.6"/>
        </g>
        <path id="Rectángulo_348082" data-name="Rectángulo 348082" d="M1.692,0H27.881a1.691,1.691,0,0,1,1.691,1.691V8.726a1.691,1.691,0,0,1-1.691,1.691H1.692A1.692,1.692,0,0,1,0,8.726V1.692A1.692,1.692,0,0,1,1.692,0Z" transform="translate(14.674 49.024)" fill="#5b5e73"/>
        <path id="Rectángulo_348083" data-name="Rectángulo 348083" d="M1.691,0H22.543a1.691,1.691,0,0,1,1.691,1.691V8.726a1.691,1.691,0,0,1-1.691,1.691H1.692A1.692,1.692,0,0,1,0,8.726V1.691A1.691,1.691,0,0,1,1.691,0Z" transform="translate(51.715 49.024)" fill="#5b5e73"/>
        <path id="Trazado_718590" data-name="Trazado 718590" d="M-227.464,717.106v-5.184a2.687,2.687,0,0,0-2.687-2.689H-300.5a2.689,2.689,0,0,0-2.687,2.689v5.184Z" transform="translate(303.187 -571.715)" fill="#5b5e73"/>
      </g>
    </g>
    <g id="Grupo_1015145" data-name="Grupo 1015145" transform="translate(-143.1 73.969)">
      <g id="Grupo_1015144" data-name="Grupo 1015144" transform="translate(930.751 7786.154)">
        <g id="Grupo_1015128" data-name="Grupo 1015128" transform="translate(169.169 182.131)">
          <path id="Trazado_718395" data-name="Trazado 718395" d="M224.878,402.514h36.76c19.189,0,35.215-13.485,36.96-31.1l18.751-189.28H169.169l18.75,189.28C189.664,389.029,205.689,402.514,224.878,402.514Z" transform="translate(-169.169 -182.131)" fill="#deedf4"/>
          <path id="Trazado_718396" data-name="Trazado 718396" d="M175.466,186.156a8.291,8.291,0,0,1-6.214-4.025H315.627C271.908,197.966,221.577,186.156,175.466,186.156Z" transform="translate(-169.177 -182.131)" fill="#cbd8df"/>
          <path id="Trazado_718397" data-name="Trazado 718397" d="M308.684,222.686,293.667,374.272c-1.45,14.629-14.755,25.661-30.951,25.661h-36.76c-16.2,0-29.5-11.032-30.951-25.661L179.979,222.6C220.287,210.691,266.453,220.517,308.684,222.686Z" transform="translate(-170.246 -185.587)" fill="#b0e1f3"/>
          <ellipse id="Elipse_8509" data-name="Elipse 8509" cx="33.189" cy="4.319" rx="33.189" ry="4.319" transform="translate(41.354 201.431)" fill="url(#linear-gradient-4)" style="mix-blend-mode: color-burn;isolation: isolate"/>
          <path id="Trazado_718398" data-name="Trazado 718398" d="M208.414,217.574c-.521,60.554,3.712,121.109,10.242,181.663-12.742-2.742-22.428-12.532-23.652-24.89L179.979,222.673A141.09,141.09,0,0,1,208.414,217.574Z" transform="translate(-170.246 -185.663)" fill="#4bbefc" opacity="0.5"/>
          <path id="Trazado_718399" data-name="Trazado 718399" d="M252.859,391.871c-14.788-52.253,15.823-111.263,60.6-144.864l-12.9,130.273a26.39,26.39,0,0,1-3.023,9.9c-.456.234-.922.458-1.4.668C283.049,394.89,256.884,404.953,252.859,391.871Z" transform="translate(-177.134 -188.596)" fill="#80c6fb" style="mix-blend-mode: soft-light;isolation: isolate"/>
          <path id="Trazado_718400" data-name="Trazado 718400" d="M321.7,224.39" transform="translate(-184.368 -186.342)" fill="none" stroke="#48adf0" stroke-miterlimit="10" stroke-width="1.118"/>
          <g id="Grupo_1015126" data-name="Grupo 1015126" transform="translate(10.793 37.476)">
            <g id="Grupo_1015125" data-name="Grupo 1015125">
              <path id="Trazado_718401" data-name="Trazado 718401" d="M182.118,223.755l-.931.287.017-.024c1.587,12.651,2.989,25.32,4.493,37.979l4.2,38.008,4.016,38.026,3.876,37.958-2.995.368-3.405-37.833c-1.071-12.632-2.182-25.249-3.194-37.944l-3.065-38.2Zm0,0,4.079,37.607,4.024,38.03c1.35,12.716,2.6,25.51,3.893,38.288l3.682,38.4-2.995.368c-.234-1.716-.341-3.226-.509-4.833l-.462-4.757-.926-9.514-1.839-19.03-3.522-38.075L184.2,262.145c-1.008-12.708-2.119-25.406-3.045-38.123l0-.02.018,0Z" transform="translate(-181.156 -223.755)" fill="#48adf0"/>
            </g>
          </g>
          <g id="Grupo_1015127" data-name="Grupo 1015127" transform="translate(11.753 30.272)">
            <path id="Trazado_718402" data-name="Trazado 718402" d="M182.224,222.958c.09.321,3.888-.512,9.634-1.369a185.929,185.929,0,0,1,21.22-1.9c7.766-.267,15.571-.05,21.491.253s9.962.641,10.21.646c.249.021,4.294.177,10.228.539s13.761.916,21.571,1.459,15.609,1.014,21.459,1.18,9.75.067,9.765-.24-3.841-.8-9.632-1.517l-21.288-2.61c-7.769-.952-15.589-1.853-21.545-2.432s-10.038-.879-10.288-.9-4.342-.221-10.35-.3-13.941.037-21.813.722a142.513,142.513,0,0,0-21.369,3.363C185.8,221.264,182.142,222.678,182.224,222.958Z" transform="translate(-182.223 -215.753)" fill="#13a8ef"/>
          </g>
          <path id="Trazado_718403" data-name="Trazado 718403" d="M285.584,364.7c-2.012,6.038-13.082,5.031-21.132,6.038,7.387-59.089,22.376-119.872,12.368-180.018a169.538,169.538,0,0,0,35.308-4.287c-1.783,8.281-3.4,17.195-3.4,25.307C305.711,263.065,307.724,317.406,285.584,364.7Z" transform="translate(-178.664 -182.56)" fill="#f1f8fb" opacity="0.5"/>
          <path id="Trazado_718404" data-name="Trazado 718404" d="M213.236,200.517c-4.185,60.389-2.019,123.058,19.718,179.209a107.289,107.289,0,0,0,12.418,24.151H225.013c-19.189,0-35.215-13.485-36.96-31.1l-17.53-176.962C184.334,200.219,198.773,199.765,213.236,200.517Z" transform="translate(-169.304 -183.494)" fill="#c7ebf9" opacity="0.5" style="mix-blend-mode: multiply;isolation: isolate"/>
        </g>
      </g>
      <g id="Grupo_1015146" data-name="Grupo 1015146">
        <g id="Grupo_1015133" data-name="Grupo 1015133" transform="translate(1128.26 8022.185)">
          <g id="Grupo_1015130" data-name="Grupo 1015130">
            <path id="Trazado_718405" data-name="Trazado 718405" d="M219.527,266.251a17.6,17.6,0,1,0,26.887-14.945c-.01,0-.01,0-.02-.01a17.394,17.394,0,0,0-6.375-2.39,16.85,16.85,0,0,0-2.891-.246,17.6,17.6,0,0,0-17.6,17.591Z" transform="translate(-219.527 -248.66)" fill="url(#linear-gradient-5)"/>
            <path id="Trazado_718406" data-name="Trazado 718406" d="M224.3,260.98a17.605,17.605,0,0,0,26.969,14.9,17.618,17.618,0,0,0-5.445-24.578c-.01,0-.01,0-.02-.01a17.4,17.4,0,0,0-6.375-2.39,16.85,16.85,0,0,0-2.891-.246,17.557,17.557,0,0,0-9.367,2.7A17.473,17.473,0,0,0,224.3,260.98Z" transform="translate(-218.941 -248.66)" fill="#80c6fb" style="mix-blend-mode: soft-light;isolation: isolate"/>
            <path id="Trazado_718407" data-name="Trazado 718407" d="M219.527,266.251a17.61,17.61,0,0,0,8.693,15.19,71.893,71.893,0,0,1-.705-11.216c.226-10.941,3.831-22.525,18.879-18.929a36.29,36.29,0,0,0-6.375-2.39,16.85,16.85,0,0,0-2.891-.246,17.6,17.6,0,0,0-17.6,17.591Z" transform="translate(-219.527 -248.66)" fill="#80c6fb" style="mix-blend-mode: multiply;isolation: isolate"/>
            <g id="Grupo_1015129" data-name="Grupo 1015129" transform="translate(5.36 1.38)" opacity="0.5">
              <path id="Trazado_718408" data-name="Trazado 718408" d="M247.111,260.572c.132-2.967-4.19-10.769-11.4-10.682-7.213-.088-11.535,7.714-11.4,10.682-.132,3.145,4.189.3,11.4.385C242.921,260.87,247.243,263.716,247.111,260.572Z" transform="translate(-224.301 -249.889)" fill="#fff"/>
            </g>
          </g>
          <g id="Grupo_1015132" data-name="Grupo 1015132" transform="translate(16.663 20.879)">
            <path id="Trazado_718409" data-name="Trazado 718409" d="M235.719,286.885a13.7,13.7,0,1,0,13.842-19.549c-.008,0-.008,0-.018,0a13.574,13.574,0,0,0-5.281.469,13.229,13.229,0,0,0-2.112.8,13.7,13.7,0,0,0-6.431,18.278Z" transform="translate(-234.368 -267.257)" fill="url(#linear-gradient-6)"/>
            <path id="Trazado_718410" data-name="Trazado 718410" d="M237.49,281.378a13.707,13.707,0,0,0,23.953,1.38,13.718,13.718,0,0,0-12.1-15.422c-.008,0-.008,0-.018,0a13.574,13.574,0,0,0-5.281.469,13.227,13.227,0,0,0-2.112.8,13.665,13.665,0,0,0-5.668,5.049A13.594,13.594,0,0,0,237.49,281.378Z" transform="translate(-234.151 -267.257)" fill="#f9e382" style="mix-blend-mode: soft-light;isolation: isolate"/>
            <path id="Trazado_718411" data-name="Trazado 718411" d="M235.719,286.876a13.71,13.71,0,0,0,11.219,7.737,56.082,56.082,0,0,1-4.273-7.637c-3.528-7.757-4.9-17.1,6.878-19.649a28.369,28.369,0,0,0-5.281.469,13.223,13.223,0,0,0-2.112.8,13.7,13.7,0,0,0-6.431,18.278Z" transform="translate(-234.368 -267.248)" fill="url(#linear-gradient-7)" style="mix-blend-mode: multiply;isolation: isolate"/>
            <g id="Grupo_1015131" data-name="Grupo 1015131" transform="translate(2.758 1.812)" opacity="0.5">
              <path id="Trazado_718412" data-name="Trazado 718412" d="M253.331,273.317c-.907-2.128-6.569-6.149-11.6-3.658-5.094,2.369-5.5,9.3-4.407,11.341.966,2.251,3.041-1.2,8.135-3.571C250.49,274.937,254.483,275.48,253.331,273.317Z" transform="translate(-236.825 -268.871)" fill="#fff"/>
            </g>
          </g>
        </g>
        <text id="Ca" transform="translate(1136 8041)" fill="#12263f" font-size="15" font-family="Roboto-Bold, Roboto" font-weight="700"><tspan x="0" y="0">Ca</tspan></text>
        <text id="Mg" transform="translate(1148 8062)" fill="#12263f" font-size="15" font-family="Roboto-Bold, Roboto" font-weight="700"><tspan x="0" y="0">Mg</tspan></text>
      </g>
      <g id="Grupo_1015147" data-name="Grupo 1015147" transform="translate(9 103)">
        <g id="Grupo_1015133-2" data-name="Grupo 1015133" transform="translate(1128.26 8022.185)">
          <g id="Grupo_1015130-2" data-name="Grupo 1015130">
            <path id="Trazado_718405-2" data-name="Trazado 718405" d="M219.527,266.251a17.6,17.6,0,1,0,26.887-14.945c-.01,0-.01,0-.02-.01a17.394,17.394,0,0,0-6.375-2.39,16.85,16.85,0,0,0-2.891-.246,17.6,17.6,0,0,0-17.6,17.591Z" transform="translate(-219.527 -248.66)" fill="url(#linear-gradient-5)"/>
            <path id="Trazado_718406-2" data-name="Trazado 718406" d="M224.3,260.98a17.605,17.605,0,0,0,26.969,14.9,17.618,17.618,0,0,0-5.445-24.578c-.01,0-.01,0-.02-.01a17.4,17.4,0,0,0-6.375-2.39,16.85,16.85,0,0,0-2.891-.246,17.557,17.557,0,0,0-9.367,2.7A17.473,17.473,0,0,0,224.3,260.98Z" transform="translate(-218.941 -248.66)" fill="#80c6fb" style="mix-blend-mode: soft-light;isolation: isolate"/>
            <path id="Trazado_718407-2" data-name="Trazado 718407" d="M219.527,266.251a17.61,17.61,0,0,0,8.693,15.19,71.893,71.893,0,0,1-.705-11.216c.226-10.941,3.831-22.525,18.879-18.929a36.29,36.29,0,0,0-6.375-2.39,16.85,16.85,0,0,0-2.891-.246,17.6,17.6,0,0,0-17.6,17.591Z" transform="translate(-219.527 -248.66)" fill="#80c6fb" style="mix-blend-mode: multiply;isolation: isolate"/>
            <g id="Grupo_1015129-2" data-name="Grupo 1015129" transform="translate(5.36 1.38)" opacity="0.5">
              <path id="Trazado_718408-2" data-name="Trazado 718408" d="M247.111,260.572c.132-2.967-4.19-10.769-11.4-10.682-7.213-.088-11.535,7.714-11.4,10.682-.132,3.145,4.189.3,11.4.385C242.921,260.87,247.243,263.716,247.111,260.572Z" transform="translate(-224.301 -249.889)" fill="#fff"/>
            </g>
          </g>
          <g id="Grupo_1015132-2" data-name="Grupo 1015132" transform="translate(16.663 20.879)">
            <path id="Trazado_718409-2" data-name="Trazado 718409" d="M235.719,286.885a13.7,13.7,0,1,0,13.842-19.549c-.008,0-.008,0-.018,0a13.574,13.574,0,0,0-5.281.469,13.229,13.229,0,0,0-2.112.8,13.7,13.7,0,0,0-6.431,18.278Z" transform="translate(-234.368 -267.257)" fill="url(#linear-gradient-6)"/>
            <path id="Trazado_718410-2" data-name="Trazado 718410" d="M237.49,281.378a13.707,13.707,0,0,0,23.953,1.38,13.718,13.718,0,0,0-12.1-15.422c-.008,0-.008,0-.018,0a13.574,13.574,0,0,0-5.281.469,13.227,13.227,0,0,0-2.112.8,13.665,13.665,0,0,0-5.668,5.049A13.594,13.594,0,0,0,237.49,281.378Z" transform="translate(-234.151 -267.257)" fill="#f9e382" style="mix-blend-mode: soft-light;isolation: isolate"/>
            <path id="Trazado_718411-2" data-name="Trazado 718411" d="M235.719,286.876a13.71,13.71,0,0,0,11.219,7.737,56.082,56.082,0,0,1-4.273-7.637c-3.528-7.757-4.9-17.1,6.878-19.649a28.369,28.369,0,0,0-5.281.469,13.223,13.223,0,0,0-2.112.8,13.7,13.7,0,0,0-6.431,18.278Z" transform="translate(-234.368 -267.248)" fill="url(#linear-gradient-7)" style="mix-blend-mode: multiply;isolation: isolate"/>
            <g id="Grupo_1015131-2" data-name="Grupo 1015131" transform="translate(2.758 1.812)" opacity="0.5">
              <path id="Trazado_718412-2" data-name="Trazado 718412" d="M253.331,273.317c-.907-2.128-6.569-6.149-11.6-3.658-5.094,2.369-5.5,9.3-4.407,11.341.966,2.251,3.041-1.2,8.135-3.571C250.49,274.937,254.483,275.48,253.331,273.317Z" transform="translate(-236.825 -268.871)" fill="#fff"/>
            </g>
          </g>
        </g>
        <text id="Ca-2" data-name="Ca" transform="translate(1136 8041)" fill="#12263f" font-size="15" font-family="Roboto-Bold, Roboto" font-weight="700"><tspan x="0" y="0">Ca</tspan></text>
        <text id="Mg-2" data-name="Mg" transform="translate(1148 8062)" fill="#12263f" font-size="15" font-family="Roboto-Bold, Roboto" font-weight="700"><tspan x="0" y="0">Mg</tspan></text>
      </g>
      <g id="Grupo_1015148" data-name="Grupo 1015148" transform="translate(49 51)">
        <g id="Grupo_1015133-3" data-name="Grupo 1015133" transform="translate(1128.26 8022.185)">
          <g id="Grupo_1015130-3" data-name="Grupo 1015130">
            <path id="Trazado_718405-3" data-name="Trazado 718405" d="M219.527,266.251a17.6,17.6,0,1,0,26.887-14.945c-.01,0-.01,0-.02-.01a17.394,17.394,0,0,0-6.375-2.39,16.85,16.85,0,0,0-2.891-.246,17.6,17.6,0,0,0-17.6,17.591Z" transform="translate(-219.527 -248.66)" fill="url(#linear-gradient-5)"/>
            <path id="Trazado_718406-3" data-name="Trazado 718406" d="M224.3,260.98a17.605,17.605,0,0,0,26.969,14.9,17.618,17.618,0,0,0-5.445-24.578c-.01,0-.01,0-.02-.01a17.4,17.4,0,0,0-6.375-2.39,16.85,16.85,0,0,0-2.891-.246,17.557,17.557,0,0,0-9.367,2.7A17.473,17.473,0,0,0,224.3,260.98Z" transform="translate(-218.941 -248.66)" fill="#80c6fb" style="mix-blend-mode: soft-light;isolation: isolate"/>
            <path id="Trazado_718407-3" data-name="Trazado 718407" d="M219.527,266.251a17.61,17.61,0,0,0,8.693,15.19,71.893,71.893,0,0,1-.705-11.216c.226-10.941,3.831-22.525,18.879-18.929a36.29,36.29,0,0,0-6.375-2.39,16.85,16.85,0,0,0-2.891-.246,17.6,17.6,0,0,0-17.6,17.591Z" transform="translate(-219.527 -248.66)" fill="#80c6fb" style="mix-blend-mode: multiply;isolation: isolate"/>
            <g id="Grupo_1015129-3" data-name="Grupo 1015129" transform="translate(5.36 1.38)" opacity="0.5">
              <path id="Trazado_718408-3" data-name="Trazado 718408" d="M247.111,260.572c.132-2.967-4.19-10.769-11.4-10.682-7.213-.088-11.535,7.714-11.4,10.682-.132,3.145,4.189.3,11.4.385C242.921,260.87,247.243,263.716,247.111,260.572Z" transform="translate(-224.301 -249.889)" fill="#fff"/>
            </g>
          </g>
          <g id="Grupo_1015132-3" data-name="Grupo 1015132" transform="translate(16.663 20.879)">
            <path id="Trazado_718409-3" data-name="Trazado 718409" d="M235.719,286.885a13.7,13.7,0,1,0,13.842-19.549c-.008,0-.008,0-.018,0a13.574,13.574,0,0,0-5.281.469,13.229,13.229,0,0,0-2.112.8,13.7,13.7,0,0,0-6.431,18.278Z" transform="translate(-234.368 -267.257)" fill="url(#linear-gradient-6)"/>
            <path id="Trazado_718410-3" data-name="Trazado 718410" d="M237.49,281.378a13.707,13.707,0,0,0,23.953,1.38,13.718,13.718,0,0,0-12.1-15.422c-.008,0-.008,0-.018,0a13.574,13.574,0,0,0-5.281.469,13.227,13.227,0,0,0-2.112.8,13.665,13.665,0,0,0-5.668,5.049A13.594,13.594,0,0,0,237.49,281.378Z" transform="translate(-234.151 -267.257)" fill="#f9e382" style="mix-blend-mode: soft-light;isolation: isolate"/>
            <path id="Trazado_718411-3" data-name="Trazado 718411" d="M235.719,286.876a13.71,13.71,0,0,0,11.219,7.737,56.082,56.082,0,0,1-4.273-7.637c-3.528-7.757-4.9-17.1,6.878-19.649a28.369,28.369,0,0,0-5.281.469,13.223,13.223,0,0,0-2.112.8,13.7,13.7,0,0,0-6.431,18.278Z" transform="translate(-234.368 -267.248)" fill="url(#linear-gradient-7)" style="mix-blend-mode: multiply;isolation: isolate"/>
            <g id="Grupo_1015131-3" data-name="Grupo 1015131" transform="translate(2.758 1.812)" opacity="0.5">
              <path id="Trazado_718412-3" data-name="Trazado 718412" d="M253.331,273.317c-.907-2.128-6.569-6.149-11.6-3.658-5.094,2.369-5.5,9.3-4.407,11.341.966,2.251,3.041-1.2,8.135-3.571C250.49,274.937,254.483,275.48,253.331,273.317Z" transform="translate(-236.825 -268.871)" fill="#fff"/>
            </g>
          </g>
        </g>
        <text id="Ca-3" data-name="Ca" transform="translate(1136 8041)" fill="#12263f" font-size="15" font-family="Roboto-Bold, Roboto" font-weight="700"><tspan x="0" y="0">Ca</tspan></text>
        <text id="Mg-3" data-name="Mg" transform="translate(1148 8062)" fill="#12263f" font-size="15" font-family="Roboto-Bold, Roboto" font-weight="700"><tspan x="0" y="0">Mg</tspan></text>
      </g>
    </g>
  </g>
</svg>
