<svg id="Grupo_1015157" data-name="Grupo 1015157" xmlns="http://www.w3.org/2000/svg" width="1240" height="832.719" viewBox="0 0 1240 832.719">
  <g id="Grupo_1015154" data-name="Grupo 1015154" transform="translate(0 199.36)">
    <g id="Grupo_1015152" data-name="Grupo 1015152">
      <g id="Grupo_1015151" data-name="Grupo 1015151">
        <g id="Grupo_1015149" data-name="Grupo 1015149">
          <path id="Trazado_718415" data-name="Trazado 718415" d="M-295.8,1933.012c81.777-10.9,263.156,2.526,395.824,43.952s159.256-94.73,377.45-17.5c50.882,18.011,118.665,2.133,147.981-38.573,60.836-84.468,72.924-262.546,73.11-413.511.11-89.777-.347-62.129-.907-107.342h45.284c-4.171,32.815-4.808,20.548-.43,112.135,5.292,110.684,17.91,230.594,50.117,296.477,18.455,37.747,96.44,61.938,151.57,47.922V2033.4h-1240Z" transform="translate(295.8 -1400.042)" fill="#8bc2ec" fill-rule="evenodd"/>
        </g>
        <g id="Grupo_1015150" data-name="Grupo 1015150" transform="translate(540.175 16.727)">
          <path id="Trazado_718416" data-name="Trazado 718416" d="M708.648,1418.985a2.139,2.139,0,1,1,4.276-.152c2.525,70.054,4.095,166.671-2.619,259.687-6.728,93.217-21.785,182.9-52.553,238.914-14.406,26.23-30.714,44.794-47.786,57.588a122.505,122.505,0,0,1-61.624,24.263,175.169,175.169,0,0,1-33.214-.12,335.208,335.208,0,0,1-35.269-5.215c-5.906-1.172-12.868-2.854-20.639-4.73-48.518-11.711-129.2-31.186-214.318,13.452a2.138,2.138,0,0,1-1.98-3.79c86.548-45.385,168.2-25.675,217.3-13.82,7.6,1.836,14.413,3.478,20.454,4.679a330.179,330.179,0,0,0,34.817,5.146,171.01,171.01,0,0,0,32.41.139A118.271,118.271,0,0,0,607.4,1971.6c16.6-12.444,32.5-30.561,46.6-56.231,30.423-55.387,45.343-144.465,52.033-237.152C712.734,1585.329,711.166,1488.9,708.648,1418.985Z" transform="translate(-241.775 -1416.769)" fill="#4a89c8" fill-rule="evenodd"/>
          <path id="Trazado_718417" data-name="Trazado 718417" d="M726.436,1500.9a2.142,2.142,0,1,1,4.276-.271c1.6,24.419,2.343,51.071,3.1,78.456,2.721,98.157,5.707,205.822,50.257,258.394a2.141,2.141,0,1,1-3.269,2.767c-45.516-53.709-48.524-162.166-51.264-261.045C728.783,1551.951,728.046,1525.429,726.436,1500.9Z" transform="translate(-241.775 -1416.769)" fill="#4a89c8" fill-rule="evenodd"/>
          <path id="Trazado_718418" data-name="Trazado 718418" d="M719.157,1748.5a2.148,2.148,0,0,1,4.3,0c0,60.427-3.63,124.389-12.478,175.38-7.393,42.595-18.482,76.252-34.22,91.5a2.14,2.14,0,1,1-2.985-3.066c15.023-14.559,25.732-47.4,32.978-89.158C715.548,1872.445,719.157,1808.734,719.157,1748.5Z" transform="translate(-241.775 -1416.769)" fill="#4a89c8" fill-rule="evenodd"/>
          <path id="Trazado_718419" data-name="Trazado 718419" d="M744.952,1816.928a2.139,2.139,0,1,1,4.227-.655,344.763,344.763,0,0,0,9.135,41.88,282.9,282.9,0,0,0,12.678,35.428,2.14,2.14,0,0,1-3.924,1.711,287.268,287.268,0,0,1-12.878-35.963A349.483,349.483,0,0,1,744.952,1816.928Z" transform="translate(-241.775 -1416.769)" fill="#4a89c8" fill-rule="evenodd"/>
        </g>
      </g>
    </g>
    <g id="Grupo_1015153" data-name="Grupo 1015153" transform="translate(389.783 114.022)">
      <path id="Trazado_718420" data-name="Trazado 718420" d="M513.275,1930.057a13.859,13.859,0,1,0-13.86-13.86A13.885,13.885,0,0,0,513.275,1930.057Z" transform="translate(-91.383 -1514.064)" fill="#8bc2ec" fill-rule="evenodd"/>
      <path id="Trazado_718421" data-name="Trazado 718421" d="M558.5,1943.906a9.337,9.337,0,1,0-9.337-9.337A9.352,9.352,0,0,0,558.5,1943.906Z" transform="translate(-91.383 -1514.064)" fill="#8bc2ec" fill-rule="evenodd"/>
      <path id="Trazado_718422" data-name="Trazado 718422" d="M476,1935.958a6.336,6.336,0,1,0-6.336-6.336A6.348,6.348,0,0,0,476,1935.958Z" transform="translate(-91.383 -1514.064)" fill="#8bc2ec" fill-rule="evenodd"/>
      <path id="Trazado_718423" data-name="Trazado 718423" d="M160.079,1960.662a98.12,98.12,0,0,1-25.571-17.513c-35.326-33.237-58.753,2.009-30.694,20.324C126.226,1978.1,196.832,1977.926,160.079,1960.662Z" transform="translate(-91.383 -1514.064)" fill="#8bc2ec" fill-rule="evenodd"/>
      <path id="Trazado_718424" data-name="Trazado 718424" d="M778.839,1684.852a98.057,98.057,0,0,0,19.723,23.91c36.251,32.226,3.229,58.7-17.511,32.382C764.483,1720.125,758.369,1649.783,778.839,1684.852Z" transform="translate(-91.383 -1514.064)" fill="#8bc2ec" fill-rule="evenodd"/>
      <path id="Trazado_718425" data-name="Trazado 718425" d="M678.21,1523.7a98.036,98.036,0,0,1-19.721,23.908c-36.253,32.226-3.231,58.7,17.511,32.384C692.568,1558.974,698.68,1488.632,678.21,1523.7Z" transform="translate(-91.383 -1514.064)" fill="#8bc2ec" fill-rule="evenodd"/>
      <path id="Trazado_718426" data-name="Trazado 718426" d="M653.827,1639.262a13.86,13.86,0,1,0-13.86-13.86A13.887,13.887,0,0,0,653.827,1639.262Z" transform="translate(-91.383 -1514.064)" fill="#8bc2ec" fill-rule="evenodd"/>
      <path id="Trazado_718427" data-name="Trazado 718427" d="M788.714,1667.648a9.335,9.335,0,1,0-9.337-9.337A9.353,9.353,0,0,0,788.714,1667.648Z" transform="translate(-91.383 -1514.064)" fill="#8bc2ec" fill-rule="evenodd"/>
    </g>
  </g>
  <g id="Grupo_1015156" data-name="Grupo 1015156" transform="translate(976.621)">
    <g id="Grupo_1015155" data-name="Grupo 1015155">
      <path id="Trazado_718428" data-name="Trazado 718428" d="M808.123,1221.48v8.083a6.453,6.453,0,0,1-6.435,6.433H757.541a10.5,10.5,0,0,1-10.474-10.475h0a10.5,10.5,0,0,1,10.474-10.474h44.147A6.453,6.453,0,0,1,808.123,1221.48Z" transform="translate(-678.221 -1200.682)" fill="#999a9a" fill-rule="evenodd"/>
      <path id="Trazado_718429" data-name="Trazado 718429" d="M808.123,1221.48v8.083a6.451,6.451,0,0,0,6.433,6.433H858.7a10.507,10.507,0,0,0,10.477-10.475h0a10.506,10.506,0,0,0-10.477-10.474H814.556A6.45,6.45,0,0,0,808.123,1221.48Z" transform="translate(-678.221 -1200.682)" fill="#999a9a" fill-rule="evenodd"/>
      <path id="Trazado_718430" data-name="Trazado 718430" d="M810.811,1200.682h0a17.41,17.41,0,0,1,17.357,17.359v44.292H793.452v-44.292A17.41,17.41,0,0,1,810.811,1200.682Z" transform="translate(-678.221 -1200.682)" fill="#afb0b0" fill-rule="evenodd"/>
      <path id="Trazado_718431" data-name="Trazado 718431" d="M794.925,1244.972h31.781a6.574,6.574,0,0,1,6.555,6.555v20.978H788.37v-20.978A6.574,6.574,0,0,1,794.925,1244.972Z" transform="translate(-678.221 -1200.682)" fill="#0f3d61" fill-rule="evenodd"/>
      <path id="Trazado_718432" data-name="Trazado 718432" d="M733.015,1298.7H929.329v52.674H754.394c-13.8,0-16,11.287-16,25.084v29.982H688.712v-55.655C688.712,1326.421,708.646,1298.7,733.015,1298.7Z" transform="translate(-678.221 -1200.682)" fill="#999a9a" fill-rule="evenodd"/>
      <path id="Trazado_718433" data-name="Trazado 718433" d="M880.466,1298.7h16.513a8.431,8.431,0,0,1,.051.9v49.228a8.239,8.239,0,0,1-.4,2.542H880.818a8.268,8.268,0,0,1-.4-2.542v-49.228A8.972,8.972,0,0,1,880.466,1298.7Z" transform="translate(-678.221 -1200.682)" fill="#0f3d61" fill-rule="evenodd"/>
      <path id="Trazado_718434" data-name="Trazado 718434" d="M816.643,1298.7h47.935v52.674H809.72C811.023,1341.676,813.849,1317.819,816.643,1298.7Z" transform="translate(-678.221 -1200.682)" fill="#0f3d61" fill-rule="evenodd"/>
      <path id="Trazado_718435" data-name="Trazado 718435" d="M929.329,1340.333v11.044H754.394c-13.8,0-16,11.287-16,25.084v29.982H688.712v-19.46h39.856v-23.022c0-19.3,13.839-23.628,26.05-23.628Z" transform="translate(-678.221 -1200.682)" fill="#0f3d61" fill-rule="evenodd"/>
      <path id="Rectángulo_348066" data-name="Rectángulo 348066" d="M24.252,0H74.131A24.255,24.255,0,0,1,98.385,24.255V69.975A24.252,24.252,0,0,1,74.133,94.227H24.252A24.252,24.252,0,0,1,0,69.975V24.252A24.252,24.252,0,0,1,24.252,0Z" transform="translate(80.709 80.662)" fill="#afb0b0"/>
      <path id="Trazado_718436" data-name="Trazado 718436" d="M780.449,1259.037H835.8a14.567,14.567,0,0,1,14.523,14.525v14.524H765.924v-14.524A14.567,14.567,0,0,1,780.449,1259.037Z" transform="translate(-678.221 -1200.682)" fill="#0f3d61" fill-rule="evenodd"/>
      <path id="Trazado_718437" data-name="Trazado 718437" d="M780.449,1259.037H835.8a14.476,14.476,0,0,1,10.112,4.125,14.294,14.294,0,0,1,.171,2.222v14.523H765.924v-6.345A14.567,14.567,0,0,1,780.449,1259.037Z" transform="translate(-678.221 -1200.682)" fill="#858584" fill-rule="evenodd"/>
      <path id="Trazado_718438" data-name="Trazado 718438" d="M689.71,1392.366h49.328a11.523,11.523,0,0,1,11.49,11.49h0a11.524,11.524,0,0,1-11.49,11.491H689.71a11.523,11.523,0,0,1-11.489-11.491h0A11.523,11.523,0,0,1,689.71,1392.366Z" transform="translate(-678.221 -1200.682)" fill="#c4c4c4" fill-rule="evenodd"/>
      <path id="Trazado_718439" data-name="Trazado 718439" d="M890.364,1299.607v49.228a8.329,8.329,0,0,1-8.3,8.305h0a8.328,8.328,0,0,1-8.3-8.305v-49.228a8.329,8.329,0,0,1,8.3-8.306h0A8.33,8.33,0,0,1,890.364,1299.607Z" transform="translate(-678.221 -1200.682)" fill="#afb0b0" fill-rule="evenodd"/>
      <path id="Trazado_718440" data-name="Trazado 718440" d="M908.716,1356.008v-62.654a16.489,16.489,0,0,1,16.441-16.441H941.6v95.536H925.157A16.49,16.49,0,0,1,908.716,1356.008Z" transform="translate(-678.221 -1200.682)" fill="#858584" fill-rule="evenodd"/>
      <path id="Trazado_718441" data-name="Trazado 718441" d="M688.482,1395.466h47.971a3.869,3.869,0,0,1,4.079,3.59h0a3.869,3.869,0,0,1-4.079,3.59H688.482a3.87,3.87,0,0,1-4.082-3.59h0A3.87,3.87,0,0,1,688.482,1395.466Z" transform="translate(-678.221 -1200.682)" fill="#d8d8d8" fill-rule="evenodd"/>
      <path id="Trazado_718442" data-name="Trazado 718442" d="M758.757,1217.957H783.4a3.871,3.871,0,0,1,4.08,3.592h0a3.87,3.87,0,0,1-4.08,3.589H758.757a3.872,3.872,0,0,1-4.082-3.589h0A3.872,3.872,0,0,1,758.757,1217.957Z" transform="translate(-678.221 -1200.682)" fill="#d8d8d8" fill-rule="evenodd"/>
      <path id="Trazado_718443" data-name="Trazado 718443" d="M836.976,1217.957h21.73a3.605,3.605,0,0,1,3.6,3.592h0a3.6,3.6,0,0,1-3.6,3.589h-21.73a3.605,3.605,0,0,1-3.6-3.589h0A3.605,3.605,0,0,1,836.976,1217.957Z" transform="translate(-678.221 -1200.682)" fill="#d8d8d8" fill-rule="evenodd"/>
      <path id="Trazado_718444" data-name="Trazado 718444" d="M812.095,1204.374c.434.087.856.187,1.285.3a17.514,17.514,0,0,1,6.931,3.519,13.753,13.753,0,0,1,4.244,6.282c.389,1.441,1.288,7.75-.437,8.391-.5-.185-2.361-5.416-3.165-6.76a11.289,11.289,0,0,0-3.7-3.805,17.182,17.182,0,0,0-5.262-2.095c-.133-.061-.829-.184-1.019-.223-4.192-.766-6.077-.005-5.851-3.21C804.864,1202.892,808.321,1203.785,812.095,1204.374Z" transform="translate(-678.221 -1200.682)" fill="#ebebeb" fill-rule="evenodd"/>
      <path id="Trazado_718445" data-name="Trazado 718445" d="M700.7,1370.049c-.781,6.8-6.537,6.944-7.047,2.126-1.364-14.38-1.82-30.69,4.985-45.145,5.626-11.949,16.791-23.3,31.4-25.29,5.673-.772,9.078.383,9.375.988.488.993-3.68,1.952-12.834,6.283C702.131,1320.578,702.7,1348.536,700.7,1370.049Z" transform="translate(-678.221 -1200.682)" fill="#ebebeb" fill-rule="evenodd"/>
      <path id="Trazado_718446" data-name="Trazado 718446" d="M849.734,1340.6v11.51a17.431,17.431,0,0,1-17.38,17.381H782.98a17.43,17.43,0,0,1-17.378-17.381V1340.6a17.429,17.429,0,0,0,17.378,17.379h49.374A17.429,17.429,0,0,0,849.734,1340.6Z" transform="translate(-678.221 -1200.682)" fill="#0f3d61" fill-rule="evenodd"/>
      <path id="Trazado_718447" data-name="Trazado 718447" d="M836.97,1230.241a6.452,6.452,0,0,1-6.433-6.433v-8.084a5.845,5.845,0,0,1,.038-.677h-2.664a17.287,17.287,0,0,1,.26,2.994V1236H858.7a10.507,10.507,0,0,0,9.345-5.755Z" transform="translate(-678.221 -1200.682)" fill="#0f3d61" fill-rule="evenodd"/>
      <path id="Trazado_718448" data-name="Trazado 718448" d="M793.452,1236v-17.955a17.091,17.091,0,0,1,.262-2.994h-2.252v7.851a6.452,6.452,0,0,1-6.433,6.434h-37.24a10.514,10.514,0,0,0,9.752,6.664Z" transform="translate(-678.221 -1200.682)" fill="#0f3d61" fill-rule="evenodd"/>
    </g>
    <path id="Trazado_718449" data-name="Trazado 718449" d="M772.492,1296.846a2.862,2.862,0,0,1,0-5.725h72.7a2.862,2.862,0,0,1,0,5.725Z" transform="translate(-678.221 -1200.682)" fill="#fff" fill-rule="evenodd"/>
  </g>
</svg>
