<svg xmlns="http://www.w3.org/2000/svg" width="45.355" height="60.004" viewBox="0 0 45.355 60.004">
  <g id="Grupo_1014965" data-name="Grupo 1014965" transform="translate(-62.498 -0.012)">
    <path id="Trazado_718138" data-name="Trazado 718138" d="M167.79,102.455a50.969,50.969,0,0,1-10.817-23.974A7.753,7.753,0,0,0,149.442,72H149.3a7.785,7.785,0,0,0-5.941,2.752,7.688,7.688,0,0,0-1.74,6.229,66.432,66.432,0,0,0,14.138,31.332,7.679,7.679,0,0,0,5.968,2.816,7.782,7.782,0,0,0,6.064-12.676Zm-1.369,8.865a6.15,6.15,0,0,1-4.7,2.171,6.044,6.044,0,0,1-4.7-2.217,64.791,64.791,0,0,1-13.789-30.557,6.053,6.053,0,0,1,1.371-4.9,6.146,6.146,0,0,1,4.684-2.173h.126a6.111,6.111,0,0,1,5.934,5.106,52.613,52.613,0,0,0,11.166,24.747,6.109,6.109,0,0,1-.1,7.827Z" transform="translate(-69.76 -63.551)" fill="#008b8a"/>
    <path id="Trazado_718139" data-name="Trazado 718139" d="M107.1,45.9l-3.729-.286A11.5,11.5,0,0,0,103,40.392l3.44-1.928a.82.82,0,1,0-.785-1.441l-.017.009-3.24,1.816a11.452,11.452,0,0,0-1.462-2.32c-.83-1.016-1.611-2.068-2.351-3.146l3.883-1.179a.82.82,0,0,0-.476-1.57l-4.35,1.321a47.271,47.271,0,0,1-3.1-5.716l3.613-2.27a.82.82,0,0,0-.873-1.39l-3.4,2.138a47.181,47.181,0,0,1-2.453-7.782l3.824-.8a.82.82,0,1,0-.337-1.606l-3.816.8c-.062-.335-.127-.669-.182-1.006a11.429,11.429,0,0,0-3.245-6.279l2.852-3.02a.82.82,0,1,0-1.177-1.143l-.017.018-2.9,3.071a11.5,11.5,0,0,0-4.542-2.034l1.083-3.2a.821.821,0,1,0-1.555-.526L80.22,4.729c-.154-.009-.306-.026-.461-.029a11.592,11.592,0,0,0-3.551.5L74.521.551a.821.821,0,1,0-1.542.563l1.7,4.665a11.53,11.53,0,0,0-3.01,2.026L67.078,3.844a.82.82,0,1,0-1.073,1.242L70.55,9.011a11.443,11.443,0,0,0-2.337,5.046l-4.76-.792a.82.82,0,1,0-.269,1.619l4.837.8a11.456,11.456,0,0,0,.136,2.344c.188,1.151.413,2.293.656,3.431L64.769,23.9a.82.82,0,0,0,.8,1.431l.04-.024,3.582-2.156a70.16,70.16,0,0,0,2.254,7.484l-3.349.322a.821.821,0,0,0,.078,1.637.564.564,0,0,0,.079,0l3.792-.365Q73.1,34.905,74.356,37.5l-3.623,2.762a.82.82,0,1,0,.994,1.306l3.388-2.578a70.1,70.1,0,0,0,4.554,7.578l-3.6,1.186a.821.821,0,0,0,.516,1.559l4.074-1.344q1.174,1.617,2.438,3.17.213.259.439.5L81.03,55.416a.82.82,0,0,0,1.367.908l2.355-3.546a11.433,11.433,0,0,0,7.105,2.55h.109l.1,0,.621,3.993a.82.82,0,0,0,.81.7.854.854,0,0,0,.127-.01.82.82,0,0,0,.685-.936v0L93.7,55.2a11.507,11.507,0,0,0,5.648-2.536l4.476,4.313a.82.82,0,1,0,1.138-1.182h0l-4.432-4.27c.079-.087.158-.172.234-.261a11.517,11.517,0,0,0,2.216-4.032l3.985.306.064,0a.82.82,0,0,0,.062-1.638Zm-7.575,4.3a9.9,9.9,0,0,1-7.649,3.489A9.79,9.79,0,0,1,84.365,50.1,68.549,68.549,0,0,1,69.777,17.769,9.789,9.789,0,0,1,72.05,9.764a9.892,9.892,0,0,1,7.494-3.425h.188a9.86,9.86,0,0,1,9.563,8.251c.1.618.218,1.233.343,1.846a.112.112,0,0,0,0,.037c0,.013.007.014.008.022a48.828,48.828,0,0,0,3.06,9.661.819.819,0,0,0,.09.21,48.866,48.866,0,0,0,3.791,7,.67.67,0,0,0,.037.058,48.633,48.633,0,0,0,3.035,4.149A9.861,9.861,0,0,1,99.521,50.2Z" transform="translate(0)" fill="#008b8a"/>
    <path id="Trazado_718140" data-name="Trazado 718140" d="M183.616,120.39a3.422,3.422,0,1,0-3.422,3.422h0A3.427,3.427,0,0,0,183.616,120.39Zm-5.206,0a1.781,1.781,0,1,1,1.781,1.781h0A1.785,1.785,0,0,1,178.41,120.39Z" transform="translate(-100.881 -103.249)" fill="#008b8a"/>
    <path id="Trazado_718141" data-name="Trazado 718141" d="M256.4,296.222a3.422,3.422,0,1,0-3.422,3.422A3.422,3.422,0,0,0,256.4,296.222ZM252.974,298a1.781,1.781,0,1,1,1.781-1.781A1.781,1.781,0,0,1,252.974,298Z" transform="translate(-165.131 -258.474)" fill="#008b8a"/>
    <path id="Trazado_718142" data-name="Trazado 718142" d="M197.94,202.9a.82.82,0,0,0-.509-1.043l-3.065-1.055a.821.821,0,0,0-.534,1.552h0L196.9,203.4a.819.819,0,0,0,1.042-.506v0Z" transform="translate(-115.454 -177.215)" fill="#008b8a"/>
    <path id="Trazado_718143" data-name="Trazado 718143" d="M234.919,232.72a.822.822,0,0,0-1.1.366l-2.043,4.079a.82.82,0,1,0,1.467.736h0l2.043-4.079A.821.821,0,0,0,234.919,232.72Z" transform="translate(-149.361 -205.358)" fill="#008b8a"/>
    <path id="Trazado_718144" data-name="Trazado 718144" d="M301.1,359.629a.821.821,0,0,0-1.125.278l-1.843,3.047a.821.821,0,0,0,1.406.849h0l1.843-3.047a.82.82,0,0,0-.279-1.125Z" transform="translate(-207.911 -317.367)" fill="#008b8a"/>
  </g>
</svg>
