<svg xmlns="http://www.w3.org/2000/svg" width="50.27" height="62.563" viewBox="0 0 50.27 62.563">
  <g id="Grupo_1014963" data-name="Grupo 1014963" transform="translate(-50.3)" opacity="0.5">
    <path id="Trazado_718130" data-name="Trazado 718130" d="M95.11,53.388H89.647l-1.614-1.5a21.112,21.112,0,0,0,7.284-33.228c.015-.167.024-.336.024-.506a5.773,5.773,0,0,0-3.122-5.122l1.544-1.543L96.6,10.072a1.663,1.663,0,0,0,.432-2.664L90.111.487a1.664,1.664,0,0,0-2.664.432L86.025,3.762,75.269,14.51a1.791,1.791,0,0,0-2.206.254L70.39,17.435H64.342A1.665,1.665,0,0,0,62.679,19.1v3.111a1.665,1.665,0,0,0,1.663,1.663h4.741L66.8,26.154a1.674,1.674,0,0,0,0,2.353l2.2,2.2a1.665,1.665,0,0,0,2.351,0l2.286-2.284V33.16A1.666,1.666,0,0,0,75.3,34.824h3.113a1.666,1.666,0,0,0,1.663-1.664V27.117l2.673-2.671a1.783,1.783,0,0,0,.255-2.2l1.436-1.435a5.773,5.773,0,0,0,6.3,3,14.33,14.33,0,0,1,3.013,8.786.916.916,0,1,0,1.833,0,16.169,16.169,0,0,0-3.074-9.477A5.81,5.81,0,0,0,94.7,20.8a19.28,19.28,0,0,1-8.14,29.732l-2.613-2.421A16.263,16.263,0,0,0,94.962,37.061a.916.916,0,1,0-1.762-.506A14.407,14.407,0,0,1,82.34,46.62l-.6-.56a3.423,3.423,0,0,0-4.631,0l-.605.561A14.288,14.288,0,0,1,69.465,42.9h6.78a1.665,1.665,0,0,0,1.663-1.663v-2.85a1.665,1.665,0,0,0-1.663-1.663H59.773a.916.916,0,1,0,0,1.833h16.3V41.07H52.133V38.559H55.5a.916.916,0,1,0,0-1.833H51.963A1.665,1.665,0,0,0,50.3,38.389v2.85A1.665,1.665,0,0,0,51.963,42.9h9A21.176,21.176,0,0,0,70.8,51.895l-1.613,1.494H63.729a4.656,4.656,0,0,0-4.651,4.651v3a1.529,1.529,0,0,0,1.527,1.527H98.233a1.529,1.529,0,0,0,1.527-1.527v-3a4.656,4.656,0,0,0-4.651-4.651ZM88.981,1.949l6.593,6.589L93.4,9.624l-5.506-5.5ZM64.512,22.039V19.267H69.54a1.773,1.773,0,0,0,.508,1.038l1.3,1.3-.433.433Zm9.407,3.512-.024.024-3.718,3.716-1.961-1.96L72.646,22.9l1.961,1.96Zm4.327,7.44H75.47v-6.4l.434-.434,1.3,1.3a1.777,1.777,0,0,0,1.038.506Zm.226-6.859-7.1-7.091,2.952-2.95,7.1,7.091Zm5.323-7.973a5.8,5.8,0,0,0,.039.665l-2.09,2.089L76.6,15.771,86.779,5.6l5.144,5.14-1.69,1.689a5.764,5.764,0,0,0-6.438,5.73Zm5.773,3.936a3.945,3.945,0,0,1-3.856-3.127v-.006a3.94,3.94,0,1,1,3.857,3.133ZM78.349,47.4a1.582,1.582,0,0,1,2.14,0l5.235,4.85,0,0,1.221,1.131H71.889ZM63.1,42.9h3.874a16.151,16.151,0,0,0,7.922,5.205L72.28,50.528A19.335,19.335,0,0,1,63.1,42.9ZM97.927,60.73H60.911V58.039a2.821,2.821,0,0,1,2.818-2.818H95.11a2.821,2.821,0,0,1,2.818,2.818V60.73Z" transform="translate(0 0)" fill="#008b8a"/>
  </g>
</svg>
