<svg xmlns="http://www.w3.org/2000/svg" xmlns:xlink="http://www.w3.org/1999/xlink" width="448.957" height="342.839" viewBox="0 0 448.957 342.839">
  <defs>
    <clipPath id="clip-path">
      <rect id="Rectángulo_33845" data-name="Rectángulo 33845" width="448.957" height="307.908" transform="translate(0 0)" fill="none"/>
    </clipPath>
    <clipPath id="clip-path-2">
      <rect id="Rectángulo_33841" data-name="Rectángulo 33841" width="387.439" height="316.914" fill="none"/>
    </clipPath>
  </defs>
  <g id="Grupo_1013449" data-name="Grupo 1013449" transform="translate(-935.507 -2132.863)">
    <g id="Grupo_1013423" data-name="Grupo 1013423" transform="translate(935.507 2132.863)">
      <g id="Grupo_1002335" data-name="Grupo 1002335" transform="translate(0 0)">
        <g id="Grupo_80327" data-name="Grupo 80327" transform="translate(0 0)" clip-path="url(#clip-path)">
          <path id="Trazado_113636" data-name="Trazado 113636" d="M269.675,283.856A134.838,134.838,0,1,1,134.838,149.018,134.838,134.838,0,0,1,269.675,283.856" transform="translate(0 -110.785)" fill="#0078bb"/>
          <path id="Trazado_113637" data-name="Trazado 113637" d="M1183.647,536.185a97.7,97.7,0,1,1-97.7-97.7,97.7,97.7,0,0,1,97.7,97.7" transform="translate(-734.689 -325.981)" fill="#008b8a"/>
          <path id="Trazado_113638" data-name="Trazado 113638" d="M1220.2,592.008a78.439,78.439,0,1,1-78.439-78.439,78.439,78.439,0,0,1,78.439,78.439" transform="translate(-790.513 -381.805)" fill="#fff"/>
          <path id="Trazado_113639" data-name="Trazado 113639" d="M646.621,681.142a47.678,47.678,0,1,1-47.678-47.678,47.678,47.678,0,0,1,47.678,47.678" transform="translate(-409.829 -470.939)" fill="#fff"/>
          <path id="Trazado_113665" data-name="Trazado 113665" d="M129.5,381.141a3.013,3.013,0,1,1-3.013-3.013,3.013,3.013,0,0,1,3.013,3.013" transform="translate(-91.796 -281.113)" fill="#fff"/>
          <path id="Trazado_113666" data-name="Trazado 113666" d="M181.177,381.141a3.013,3.013,0,1,1-3.013-3.013,3.013,3.013,0,0,1,3.013,3.013" transform="translate(-130.213 -281.113)" fill="#fff"/>
          <path id="Trazado_113667" data-name="Trazado 113667" d="M232.853,381.141a3.013,3.013,0,1,1-3.013-3.013,3.013,3.013,0,0,1,3.013,3.013" transform="translate(-168.63 -281.113)" fill="#fff"/>
          <path id="Trazado_113668" data-name="Trazado 113668" d="M284.528,381.141a3.013,3.013,0,1,1-3.013-3.013,3.013,3.013,0,0,1,3.013,3.013" transform="translate(-207.047 -281.113)" fill="#fff"/>
          <path id="Trazado_113669" data-name="Trazado 113669" d="M336.2,381.141a3.013,3.013,0,1,1-3.013-3.013,3.013,3.013,0,0,1,3.013,3.013" transform="translate(-245.464 -281.113)" fill="#fff"/>
          <path id="Trazado_113670" data-name="Trazado 113670" d="M129.5,430.467a3.013,3.013,0,1,1-3.013-3.013,3.013,3.013,0,0,1,3.013,3.013" transform="translate(-91.796 -317.784)" fill="#fff"/>
          <path id="Trazado_113671" data-name="Trazado 113671" d="M181.177,430.467a3.013,3.013,0,1,1-3.013-3.013,3.013,3.013,0,0,1,3.013,3.013" transform="translate(-130.213 -317.784)" fill="#fff"/>
          <path id="Trazado_113672" data-name="Trazado 113672" d="M232.853,430.467a3.013,3.013,0,1,1-3.013-3.013,3.013,3.013,0,0,1,3.013,3.013" transform="translate(-168.63 -317.784)" fill="#fff"/>
          <path id="Trazado_113673" data-name="Trazado 113673" d="M284.528,430.467a3.013,3.013,0,1,1-3.013-3.013,3.013,3.013,0,0,1,3.013,3.013" transform="translate(-207.047 -317.784)" fill="#fff"/>
          <path id="Trazado_113674" data-name="Trazado 113674" d="M336.2,430.467a3.013,3.013,0,1,1-3.013-3.013,3.013,3.013,0,0,1,3.013,3.013" transform="translate(-245.464 -317.784)" fill="#fff"/>
          <path id="Trazado_113675" data-name="Trazado 113675" d="M129.5,479.794a3.013,3.013,0,1,1-3.013-3.013,3.013,3.013,0,0,1,3.013,3.013" transform="translate(-91.796 -354.455)" fill="#fff"/>
          <path id="Trazado_113676" data-name="Trazado 113676" d="M181.177,479.794a3.013,3.013,0,1,1-3.013-3.013,3.013,3.013,0,0,1,3.013,3.013" transform="translate(-130.213 -354.455)" fill="#fff"/>
          <path id="Trazado_113677" data-name="Trazado 113677" d="M232.853,479.794a3.013,3.013,0,1,1-3.013-3.013,3.013,3.013,0,0,1,3.013,3.013" transform="translate(-168.63 -354.455)" fill="#fff"/>
          <path id="Trazado_113678" data-name="Trazado 113678" d="M284.528,479.794a3.013,3.013,0,1,1-3.013-3.013,3.013,3.013,0,0,1,3.013,3.013" transform="translate(-207.047 -354.455)" fill="#fff"/>
          <path id="Trazado_113679" data-name="Trazado 113679" d="M336.2,479.794a3.013,3.013,0,1,1-3.013-3.013,3.013,3.013,0,0,1,3.013,3.013" transform="translate(-245.464 -354.455)" fill="#fff"/>
          <path id="Trazado_113680" data-name="Trazado 113680" d="M129.5,529.12a3.013,3.013,0,1,1-3.013-3.013,3.013,3.013,0,0,1,3.013,3.013" transform="translate(-91.796 -391.126)" fill="#fff"/>
          <path id="Trazado_113681" data-name="Trazado 113681" d="M181.177,529.12a3.013,3.013,0,1,1-3.013-3.013,3.013,3.013,0,0,1,3.013,3.013" transform="translate(-130.213 -391.126)" fill="#fff"/>
          <path id="Trazado_113682" data-name="Trazado 113682" d="M232.853,529.12a3.013,3.013,0,1,1-3.013-3.013,3.013,3.013,0,0,1,3.013,3.013" transform="translate(-168.63 -391.126)" fill="#fff"/>
          <path id="Trazado_113683" data-name="Trazado 113683" d="M284.528,529.12a3.013,3.013,0,1,1-3.013-3.013,3.013,3.013,0,0,1,3.013,3.013" transform="translate(-207.047 -391.126)" fill="#fff"/>
          <path id="Trazado_113684" data-name="Trazado 113684" d="M336.2,529.12a3.013,3.013,0,1,1-3.013-3.013,3.013,3.013,0,0,1,3.013,3.013" transform="translate(-245.464 -391.126)" fill="#fff"/>
          <path id="Trazado_113685" data-name="Trazado 113685" d="M129.5,578.446a3.013,3.013,0,1,1-3.013-3.013,3.013,3.013,0,0,1,3.013,3.013" transform="translate(-91.796 -427.797)" fill="#fff"/>
          <path id="Trazado_113686" data-name="Trazado 113686" d="M181.177,578.446a3.013,3.013,0,1,1-3.013-3.013,3.013,3.013,0,0,1,3.013,3.013" transform="translate(-130.213 -427.797)" fill="#fff"/>
          <path id="Trazado_113687" data-name="Trazado 113687" d="M232.853,578.446a3.013,3.013,0,1,1-3.013-3.013,3.013,3.013,0,0,1,3.013,3.013" transform="translate(-168.63 -427.797)" fill="#fff"/>
          <path id="Trazado_113688" data-name="Trazado 113688" d="M284.528,578.446a3.013,3.013,0,1,1-3.013-3.013,3.013,3.013,0,0,1,3.013,3.013" transform="translate(-207.047 -427.797)" fill="#fff"/>
          <path id="Trazado_113689" data-name="Trazado 113689" d="M336.2,578.446a3.013,3.013,0,1,1-3.013-3.013,3.013,3.013,0,0,1,3.013,3.013" transform="translate(-245.464 -427.797)" fill="#fff"/>
          <rect id="Rectángulo_33843" data-name="Rectángulo 33843" width="52.933" height="12.382" transform="translate(221.991 49.531)" fill="#ffa031"/>
        </g>
      </g>
      <g id="Grupo_1002336" data-name="Grupo 1002336" transform="translate(36.473 25.925)" opacity="0.251">
        <g id="Grupo_80323" data-name="Grupo 80323" transform="translate(0 0)" clip-path="url(#clip-path-2)">
          <path id="Trazado_113615" data-name="Trazado 113615" d="M247.569,311.928c-3.659-.278-7.393-.437-11.218-.408-20.234.15-40.025,5.595-60.384,5.385-43.137-.445-87.534-4.916-124.816-32.545C-31.446,223.148-4.371,92.027,64.1,38.2,100.484,9.594,145.8.848,189.221.039,245.114-1,316.8,16.677,356.85,63.728c27.9,32.783,34.837,109.16,28.316,152.438-5.191,34.448-24.676,66.934-49.289,85.843-30.7,23.582-56.721,12.316-88.308,9.919" transform="translate(0 0.004)" fill="#e0f4fe"/>
        </g>
      </g>
    </g>
    <g id="cosmetic_research" data-name="cosmetic research" transform="translate(1043.73 2184.33)">
      <g id="Test_tubes" data-name="Test tubes" transform="translate(199.462 95.926)">
        <g id="Grupo_1013459" data-name="Grupo 1013459" transform="translate(3.572)">
          <g id="Grupo_1013451" data-name="Grupo 1013451" opacity="0.5" style="mix-blend-mode: multiply;isolation: isolate">
            <path id="Trazado_716322" data-name="Trazado 716322" d="M2260.094,2637.553v14.736a2.57,2.57,0,1,1-5.14,0v-14.736Z" transform="translate(-2254.954 -2637.553)" fill="#9ce9f0"/>
          </g>
          <g id="Grupo_1013452" data-name="Grupo 1013452" transform="translate(7.31)" opacity="0.5" style="mix-blend-mode: multiply;isolation: isolate">
            <path id="Trazado_716323" data-name="Trazado 716323" d="M2285.52,2637.553v14.736a2.57,2.57,0,1,1-5.141,0v-14.736Z" transform="translate(-2280.379 -2637.553)" fill="#9ce9f0"/>
          </g>
          <g id="Grupo_1013453" data-name="Grupo 1013453" transform="translate(14.619)" opacity="0.5" style="mix-blend-mode: multiply;isolation: isolate">
            <path id="Trazado_716324" data-name="Trazado 716324" d="M2310.941,2637.553v14.736a2.571,2.571,0,0,1-5.142,0v-14.736Z" transform="translate(-2305.799 -2637.553)" fill="#9ce9f0"/>
          </g>
          <g id="Grupo_1013454" data-name="Grupo 1013454" transform="translate(21.929)" opacity="0.5" style="mix-blend-mode: multiply;isolation: isolate">
            <path id="Trazado_716325" data-name="Trazado 716325" d="M2336.364,2637.553v14.736a2.57,2.57,0,1,1-5.14,0v-14.736Z" transform="translate(-2331.224 -2637.553)" fill="#9ce9f0"/>
          </g>
          <g id="Grupo_1013455" data-name="Grupo 1013455" transform="translate(0 10.135)" opacity="0.5" style="mix-blend-mode: multiply;isolation: isolate">
            <path id="Trazado_716326" data-name="Trazado 716326" d="M2254.954,2672.8h5.14v4.6a2.57,2.57,0,1,1-5.14,0Z" transform="translate(-2254.954 -2672.803)" fill="#d85269"/>
          </g>
          <g id="Grupo_1013456" data-name="Grupo 1013456" transform="translate(7.31 10.135)" opacity="0.5" style="mix-blend-mode: multiply;isolation: isolate">
            <path id="Trazado_716327" data-name="Trazado 716327" d="M2280.379,2672.8h5.141v4.6a2.57,2.57,0,1,1-5.141,0Z" transform="translate(-2280.379 -2672.803)" fill="#d85269"/>
          </g>
          <g id="Grupo_1013457" data-name="Grupo 1013457" transform="translate(14.619 10.135)" opacity="0.5" style="mix-blend-mode: multiply;isolation: isolate">
            <path id="Trazado_716328" data-name="Trazado 716328" d="M2305.8,2672.8h5.142v4.6a2.571,2.571,0,0,1-5.142,0Z" transform="translate(-2305.799 -2672.803)" fill="#d85269"/>
          </g>
          <g id="Grupo_1013458" data-name="Grupo 1013458" transform="translate(21.929 10.135)" opacity="0.5" style="mix-blend-mode: multiply;isolation: isolate">
            <path id="Trazado_716329" data-name="Trazado 716329" d="M2336.364,2672.8v4.6a2.57,2.57,0,1,1-5.14,0v-4.6Z" transform="translate(-2331.224 -2672.803)" fill="#d85269"/>
          </g>
        </g>
        <g id="Grupo_1013460" data-name="Grupo 1013460" transform="translate(0 12.346)">
          <path id="Trazado_716330" data-name="Trazado 716330" d="M2276.561,2680.491v6.334h-1.252v-4.985h-31.528v4.985h-1.249v-6.334Z" transform="translate(-2242.532 -2680.491)" fill="#5b5047"/>
        </g>
      </g>
      <g id="Test_tubes-2" data-name="Test tubes" transform="translate(58.273 95.926)">
        <g id="Grupo_1013469" data-name="Grupo 1013469" transform="translate(3.572)">
          <g id="Grupo_1013461" data-name="Grupo 1013461" opacity="0.5" style="mix-blend-mode: multiply;isolation: isolate">
            <path id="Trazado_716331" data-name="Trazado 716331" d="M1769.043,2637.553v14.736a2.57,2.57,0,1,1-5.14,0v-14.736Z" transform="translate(-1763.903 -2637.553)" fill="#9ce9f0"/>
          </g>
          <g id="Grupo_1013462" data-name="Grupo 1013462" transform="translate(7.31)" opacity="0.5" style="mix-blend-mode: multiply;isolation: isolate">
            <path id="Trazado_716332" data-name="Trazado 716332" d="M1794.468,2637.553v14.736a2.57,2.57,0,1,1-5.14,0v-14.736Z" transform="translate(-1789.328 -2637.553)" fill="#9ce9f0"/>
          </g>
          <g id="Grupo_1013463" data-name="Grupo 1013463" transform="translate(14.619)" opacity="0.5" style="mix-blend-mode: multiply;isolation: isolate">
            <path id="Trazado_716333" data-name="Trazado 716333" d="M1819.889,2637.553v14.736a2.571,2.571,0,0,1-5.143,0v-14.736Z" transform="translate(-1814.746 -2637.553)" fill="#9ce9f0"/>
          </g>
          <g id="Grupo_1013464" data-name="Grupo 1013464" transform="translate(21.929)" opacity="0.5" style="mix-blend-mode: multiply;isolation: isolate">
            <path id="Trazado_716334" data-name="Trazado 716334" d="M1845.313,2637.553v14.736a2.57,2.57,0,1,1-5.14,0v-14.736Z" transform="translate(-1840.173 -2637.553)" fill="#9ce9f0"/>
          </g>
          <g id="Grupo_1013465" data-name="Grupo 1013465" transform="translate(0 10.135)" opacity="0.5" style="mix-blend-mode: multiply;isolation: isolate">
            <path id="Trazado_716335" data-name="Trazado 716335" d="M1763.9,2672.8h5.14v4.6a2.57,2.57,0,1,1-5.14,0Z" transform="translate(-1763.903 -2672.803)" fill="#23a64a"/>
          </g>
          <g id="Grupo_1013466" data-name="Grupo 1013466" transform="translate(7.31 10.135)" opacity="0.5" style="mix-blend-mode: multiply;isolation: isolate">
            <path id="Trazado_716336" data-name="Trazado 716336" d="M1789.328,2672.8h5.14v4.6a2.57,2.57,0,1,1-5.14,0Z" transform="translate(-1789.328 -2672.803)" fill="#23a64a"/>
          </g>
          <g id="Grupo_1013467" data-name="Grupo 1013467" transform="translate(14.619 10.135)" opacity="0.5" style="mix-blend-mode: multiply;isolation: isolate">
            <path id="Trazado_716337" data-name="Trazado 716337" d="M1814.746,2672.8h5.143v4.6a2.571,2.571,0,0,1-5.143,0Z" transform="translate(-1814.746 -2672.803)" fill="#23a64a"/>
          </g>
          <g id="Grupo_1013468" data-name="Grupo 1013468" transform="translate(21.929 10.135)" opacity="0.5" style="mix-blend-mode: multiply;isolation: isolate">
            <path id="Trazado_716338" data-name="Trazado 716338" d="M1845.313,2672.8v4.6a2.57,2.57,0,1,1-5.14,0v-4.6Z" transform="translate(-1840.173 -2672.803)" fill="#23a64a"/>
          </g>
        </g>
        <g id="Grupo_1013470" data-name="Grupo 1013470" transform="translate(0 12.346)">
          <path id="Trazado_716339" data-name="Trazado 716339" d="M1785.509,2680.491v6.334h-1.251v-4.985H1752.73v4.985h-1.249v-6.334Z" transform="translate(-1751.481 -2680.491)" fill="#5b5047"/>
        </g>
      </g>
      <g id="chair" transform="translate(69.9 68.24)">
        <g id="Grupo_1013475" data-name="Grupo 1013475" transform="translate(16.186 103.833)">
          <g id="Grupo_1013471" data-name="Grupo 1013471" transform="translate(38.184 6.627)">
            <rect id="Rectángulo_347362" data-name="Rectángulo 347362" width="5.718" height="45.449" fill="#9ce9f0"/>
          </g>
          <g id="Grupo_1013472" data-name="Grupo 1013472" transform="translate(35.767 34.87)">
            <rect id="Rectángulo_347363" data-name="Rectángulo 347363" width="10.553" height="17.791" fill="#403a36"/>
          </g>
          <g id="Grupo_1013473" data-name="Grupo 1013473" transform="translate(0 50.827)">
            <path id="Trazado_716340" data-name="Trazado 716340" d="M1926.178,3085.716a3.624,3.624,0,0,0-.865.108l-33.455-6.661h-5.686l-33.455,6.661a3.644,3.644,0,1,0,2.263,1.68l26.191-5.032-4.077,3.284a3.629,3.629,0,1,0,2.5,1.56c3.492-1.566,9.5-4.264,9.419-4.25l10.066,4.535a3.653,3.653,0,1,0,2.038-1.7l-4.26-3.432,26.191,5.032a3.635,3.635,0,1,0,3.129-1.789Z" transform="translate(-1848.214 -3079.163)" fill="#403a36"/>
          </g>
          <g id="Grupo_1013474" data-name="Grupo 1013474" transform="translate(19.85)">
            <path id="Rectángulo_347364" data-name="Rectángulo 347364" d="M0,0H43.93a0,0,0,0,1,0,0V0a9,9,0,0,1-9,9H9A9,9,0,0,1,0,0V0A0,0,0,0,1,0,0Z" fill="#403a36"/>
          </g>
        </g>
        <g id="Grupo_1013480" data-name="Grupo 1013480">
          <g id="Grupo_1013476" data-name="Grupo 1013476" transform="translate(37.484)">
            <path id="Trazado_716341" data-name="Trazado 716341" d="M2008.509,2541.291l-15.756,97.876-70.467.316,10.991-94.294a4.438,4.438,0,0,1,4.916-3.9Z" transform="translate(-1922.286 -2541.261)" fill="#524b5e"/>
          </g>
          <g id="Grupo_1013477" data-name="Grupo 1013477" transform="translate(0 97.898)">
            <path id="Trazado_716342" data-name="Trazado 716342" d="M1870.011,2881.75v8.879h-73.657a4.436,4.436,0,0,1-1.313-8.673l34.361-.206Z" transform="translate(-1791.918 -2881.75)" fill="#74688a"/>
          </g>
          <g id="Grupo_1013479" data-name="Grupo 1013479" transform="translate(70.317 0)">
            <g id="Grupo_1013478" data-name="Grupo 1013478">
              <path id="Trazado_716343" data-name="Trazado 716343" d="M2078.067,2648.04h-37.152a4.436,4.436,0,0,1,0-8.871h33.2l10.842-93.978a4.436,4.436,0,1,1,8.813,1.017l-11.294,97.905A4.436,4.436,0,0,1,2078.067,2648.04Z" transform="translate(-2036.48 -2541.262)" fill="#7f7296"/>
            </g>
          </g>
        </g>
      </g>
      <g id="Grupo_1013482" data-name="Grupo 1013482" transform="translate(0 119.994)">
        <g id="Grupo_1013481" data-name="Grupo 1013481">
          <path id="Trazado_716344" data-name="Trazado 716344" d="M1551.9,2837.166a3.086,3.086,0,0,1-3.037-3.652l18.477-98.969a16.505,16.505,0,0,1,16.345-13.285h11.161a16.5,16.5,0,0,1,16.345,13.281l18.3,98.978a3.086,3.086,0,0,1-6.069,1.122l-18.3-98.969a10.329,10.329,0,0,0-10.278-8.241h-11.161a10.331,10.331,0,0,0-10.28,8.25l-18.477,98.965A3.086,3.086,0,0,1,1551.9,2837.166Z" transform="translate(-1548.808 -2721.26)" fill="#4d4741"/>
        </g>
      </g>
      <g id="Grupo_1013484" data-name="Grupo 1013484" transform="translate(190.534 119.994)">
        <g id="Grupo_1013483" data-name="Grupo 1013483">
          <path id="Trazado_716345" data-name="Trazado 716345" d="M2214.571,2837.166a3.086,3.086,0,0,1-3.037-3.652l18.477-98.969a16.505,16.505,0,0,1,16.346-13.285h11.161a16.506,16.506,0,0,1,16.345,13.281l18.3,98.978a3.086,3.086,0,0,1-6.069,1.122l-18.3-98.969a10.329,10.329,0,0,0-10.278-8.241h-11.161a10.332,10.332,0,0,0-10.28,8.25l-18.476,98.965A3.086,3.086,0,0,1,2214.571,2837.166Z" transform="translate(-2211.482 -2721.26)" fill="#4d4741"/>
        </g>
      </g>
      <g id="Grupo_1013485" data-name="Grupo 1013485" transform="translate(59.353 114.029)">
        <rect id="Rectángulo_347365" data-name="Rectángulo 347365" width="203.029" height="6.409" rx="3.205" fill="#c98646"/>
      </g>
      <g id="Grupo_1013546" data-name="Grupo 1013546" transform="translate(78.005 0)">
        <g id="Writing_scientist" data-name="Writing scientist">
          <g id="right_leg" data-name="right leg" transform="translate(0 127.529)">
            <g id="Grupo_1013486" data-name="Grupo 1013486" transform="translate(15.848 6.015)">
              <path id="Trazado_716346" data-name="Trazado 716346" d="M1878.3,2770.343a6.824,6.824,0,0,0-3,4.279c-1.28,4.369,13.885,2.887,16.221,1.117a10.405,10.405,0,0,0,3.469-6.86C1894.991,2767.456,1880.444,2769.479,1878.3,2770.343Z" transform="translate(-1875.224 -2768.386)" fill="#d1b484"/>
            </g>
            <g id="Grupo_1013487" data-name="Grupo 1013487" transform="translate(7.475 96.62)">
              <path id="Trazado_716347" data-name="Trazado 716347" d="M1847.923,3084.491s-.085,3.911-1.819,5.107a5.422,5.422,0,0,0,7.192-2.357s-.212-2.2-.212-3.342S1847.923,3084.491,1847.923,3084.491Z" transform="translate(-1846.104 -3083.509)" fill="#ecb984"/>
            </g>
            <g id="Grupo_1013488" data-name="Grupo 1013488" transform="translate(1.297)">
              <path id="Trazado_716348" data-name="Trazado 716348" d="M1889.809,2784.612l-43.342,1.165c1.239,7.9-5.805,50.315-7.1,57.972a2.2,2.2,0,0,1-1.44,1.726,8.911,8.911,0,0,1-5.54,0,2.224,2.224,0,0,1-1.531-1.766c-.41-2.5-1.386-8.6-2.448-16.343-2.793-20.366-6.175-52.087-1.4-59.448,2.135-3.294,7.859-6.611,13.029-9.1,5.124-2.465,9.7-4.112,9.7-4.112l24.354-5.93,5.383-1.312a11.2,11.2,0,0,1,6.362,4.443C1893.251,2762.041,1889.809,2784.612,1889.809,2784.612Z" transform="translate(-1824.616 -2747.466)" fill="#40676c"/>
            </g>
            <g id="Grupo_1013489" data-name="Grupo 1013489" transform="translate(5.091 1.312)">
              <path id="Trazado_716349" data-name="Trazado 716349" d="M1899.21,2787.862l-28.781,1.439-4.763.024-9.754.037c1.239,7.9-5.84,50.021-7.142,57.639a2.2,2.2,0,0,1-1.439,1.722,8.914,8.914,0,0,1-5.542,0,2.224,2.224,0,0,1-1.531-1.766c-.41-2.5-1.386-8.6-2.448-16.343a11.851,11.851,0,0,0,3.562-1.443c3.211-2.1,4.322-6.26,4.7-10.077.773-7.806-.461-15.7.16-23.521s3.627-16.136,10.41-20.08c2.432-1.413,5.429-2.378,6.7-4.885s.123-5.813-2.143-7.5a9.258,9.258,0,0,0-5.435-1.682c-1.676-.025-3.776,1.148-5.3.953a2.87,2.87,0,0,1-1.034-.3c2.087-1,4.081-1.871,5.714-2.547,2.378-.986,3.988-1.564,3.988-1.564l24.354-5.93a59.458,59.458,0,0,1,7.949,1.821q1.924.584,3.8,1.311C1902.653,2765.291,1899.21,2787.862,1899.21,2787.862Z" transform="translate(-1837.811 -2752.028)" fill="#355a5e"/>
            </g>
            <g id="Grupo_1013490" data-name="Grupo 1013490" transform="translate(0 99.94)">
              <path id="Trazado_716350" data-name="Trazado 716350" d="M1836.091,3098.742a1.462,1.462,0,0,1-.419,1c-2.436,2.479-9.39,3.722-10.814,3.992-1.506.286-5.369.311-4.669-1.535a2.211,2.211,0,0,1,.116-.253c1.294-2.432,7.625-4.42,7.625-4.42,3.524.92,6.8-2.469,6.8-2.469a4,4,0,0,1,1.128,1.871A6.192,6.192,0,0,1,1836.091,3098.742Z" transform="translate(-1820.106 -3095.055)" fill="#f5e8d0"/>
            </g>
            <g id="Grupo_1013491" data-name="Grupo 1013491" transform="translate(0 101.811)">
              <path id="Trazado_716351" data-name="Trazado 716351" d="M1836.091,3103.379a1.462,1.462,0,0,1-.419,1c-2.436,2.479-9.39,3.722-10.814,3.992-1.506.286-5.369.311-4.669-1.535a2.211,2.211,0,0,1,.116-.253,1.69,1.69,0,0,0,.609.527,3.937,3.937,0,0,0,1.944.112,42.4,42.4,0,0,0,6.565-1.313,14.469,14.469,0,0,0,4.019-1.674,6.624,6.624,0,0,0,2.42-2.669A6.192,6.192,0,0,1,1836.091,3103.379Z" transform="translate(-1820.106 -3101.562)" fill="#e8d2b0"/>
            </g>
          </g>
          <g id="left_leg" data-name="left leg" transform="translate(33.709 138.01)">
            <g id="Grupo_1013492" data-name="Grupo 1013492" transform="translate(12.516 90.329)">
              <path id="Trazado_716352" data-name="Trazado 716352" d="M1982.607,3099.007s-.377,2.83-1.584,3.773,5.282,2.981,7.094-.83v-3.509C1988.116,3097.385,1982.607,3099.007,1982.607,3099.007Z" transform="translate(-1980.874 -3098.084)" fill="#ecb984"/>
            </g>
            <g id="Grupo_1013493" data-name="Grupo 1013493">
              <path id="Trazado_716353" data-name="Trazado 716353" d="M1939.85,2812.032c.356-.016-5-13.486-1.044-18.589,3.416-4.411,14.12-10.292,20.456-9.439S1939.85,2812.032,1939.85,2812.032Z" transform="translate(-1937.344 -2783.921)" fill="#2b4c4f"/>
            </g>
            <g id="Grupo_1013494" data-name="Grupo 1013494" transform="translate(1.462 0.059)">
              <path id="Trazado_716354" data-name="Trazado 716354" d="M1980.425,2811.871l-11.65.22c.907,4.678-4.453,51.051-5.654,61.293a3.036,3.036,0,0,1-2.362,2.628,11.737,11.737,0,0,1-5.647-.123,2.216,2.216,0,0,1-1.572-1.729c-.385-2.056-1.225-6.573-2.279-12.462-3.869-21.623-10.626-61.76-8.385-66.618a10.785,10.785,0,0,1,3.5-3.882c5.959-4.4,16.51-7.047,16.51-7.047C1982.894,2783.172,1980.425,2811.871,1980.425,2811.871Z" transform="translate(-1942.43 -2784.125)" fill="#40676c"/>
            </g>
            <g id="Grupo_1013495" data-name="Grupo 1013495" transform="translate(5.407 0.059)">
              <path id="Trazado_716355" data-name="Trazado 716355" d="M1990.3,2812.2l-11.747-.1c.925,4.773-4.671,52.931-5.722,61.865a2.231,2.231,0,0,1-1.636,1.9,11.887,11.887,0,0,1-6.3.035,2.219,2.219,0,0,1-1.576-1.732c-.386-2.058-1.225-6.572-2.279-12.459a25.339,25.339,0,0,0,3.525-3.4c4.627-5.6,5.121-13.489,4.7-20.74s-1.512-14.715.675-21.643c.986-3.12,2.608-6.005,3.7-9.093s1.618-6.565.378-9.595c-1.587-3.871-5.787-6.16-9.941-6.654a23.779,23.779,0,0,0-6.135.168,15.838,15.838,0,0,0-1.786.453c5.959-4.4,16.51-7.047,16.51-7.047C1992.67,2783.172,1990.3,2812.2,1990.3,2812.2Z" transform="translate(-1956.151 -2784.126)" fill="#355a5e"/>
            </g>
            <g id="Grupo_1013496" data-name="Grupo 1013496" transform="translate(5.079 93.898)">
              <path id="Trazado_716356" data-name="Trazado 716356" d="M1970.639,3113.461a10.819,10.819,0,0,1-.368,1.971s-4.183,2.841-8.328,3.039-6.791-.916-6.933-2.376c-.049-.492.47-.991,1.29-1.495,1.614-.987,4.391-1.99,6.293-2.976,0,0,4.653,2.148,7.093-1.128C1969.686,3110.5,1970.84,3111,1970.639,3113.461Z" transform="translate(-1955.007 -3110.497)" fill="#f5e8d0"/>
            </g>
            <g id="Grupo_1013497" data-name="Grupo 1013497" transform="translate(5.079 96.862)">
              <path id="Trazado_716357" data-name="Trazado 716357" d="M1970.639,3120.8a10.821,10.821,0,0,1-.368,1.971s-4.183,2.841-8.328,3.039-6.791-.916-6.933-2.376c-.049-.492.47-.991,1.29-1.495a1.94,1.94,0,0,0,.169,1.572,4.075,4.075,0,0,0,2.66,1.266,8.57,8.57,0,0,0,2.844-.169,26.429,26.429,0,0,0,6.168-2,7.754,7.754,0,0,0,1.94-1.19A3.839,3.839,0,0,0,1970.639,3120.8Z" transform="translate(-1955.007 -3120.805)" fill="#e8d2b0"/>
            </g>
          </g>
          <g id="Head" transform="translate(45.356)">
            <g id="Grupo_1013498" data-name="Grupo 1013498">
              <path id="Trazado_716358" data-name="Trazado 716358" d="M2022.58,2368.124c-4.457,2.638-9.811,3.26-14.989,3.348a85.151,85.151,0,0,1-17.253-1.468c-3.932-.743-8.443-1.636-10.05-5.3a22.609,22.609,0,0,0,1.761-16.472c-.77-2.748-2.06-5.329-2.963-8.031-.193-.577-.368-1.159-.517-1.749-1.115-4.414-.7-9.052-.278-13.584.2-2.156.4-4.324.816-6.448a26.687,26.687,0,0,1,.652-2.677,15.5,15.5,0,0,1,4.849-7.722,9.408,9.408,0,0,1,8.68-1.834c3.553-3.026,8.785-2.814,12.875-.567a17.625,17.625,0,0,1,6.09,5.8q.437.651.827,1.331a27.194,27.194,0,0,1,1.7,3.548c1.718,4.339,2.472,8.985,3.407,13.558s2.089,9.188,4.5,13.186c2.442,4.05,6.194,7.568,6.906,12.242C2030.371,2360.4,2027.035,2365.488,2022.58,2368.124Z" transform="translate(-1977.853 -2303.924)" fill="#582f1b"/>
            </g>
            <g id="Grupo_1013499" data-name="Grupo 1013499" transform="translate(1.233 7.494)">
              <path id="Trazado_716359" data-name="Trazado 716359" d="M2025.635,2386.693c-4.457,2.638-9.811,3.26-14.989,3.348a85.151,85.151,0,0,1-17.253-1.468c-3.932-.743-8.443-1.636-10.05-5.3a22.609,22.609,0,0,0,1.761-16.472c-.77-2.749-2.06-5.329-2.963-8.031.459-1.937,1-3.857,1.537-5.776l1.649-5.868c.064-.228.127-.455.193-.683q.584-2.089,1.172-4.177c.293-1.038.486-3.419,1.315-4.152.675-.6,2.181-.44,3.014-.528,2.829-.3,5.656-.654,8.453-1.184a53.664,53.664,0,0,0,5.5-1.324,34.654,34.654,0,0,0,7.792-3.364q1.111-.668,2.163-1.443.188-.138.376-.283.437.651.827,1.331a27.179,27.179,0,0,1,1.7,3.548c1.718,4.339,2.472,8.985,3.407,13.558s2.089,9.188,4.5,13.186c2.442,4.05,6.194,7.568,6.906,12.243C2033.426,2378.969,2030.09,2384.057,2025.635,2386.693Z" transform="translate(-1982.142 -2329.986)" fill="#472517"/>
            </g>
            <g id="head-2" data-name="head" transform="translate(4.766 5.022)">
              <g id="Grupo_1013500" data-name="Grupo 1013500" transform="translate(7.577 31.373)">
                <path id="Trazado_716360" data-name="Trazado 716360" d="M2038.821,2451.577c-1.929,6.653-6.114,14.071-13.477,16.205,0,0-4.432-8.912-4.561-15.673-.058-2.9.681-5.412,2.908-6.642.044-.027.089-.052.135-.075,0,0,.033-.046.087-.137a6.993,6.993,0,0,0,.85-3.732c-.068-1.892,8.191-7.6,11.747-9.972.976-.648,1.6-1.047,1.6-1.047s-.006.152-.008.42a31.349,31.349,0,0,0,.636,6.752,10.573,10.573,0,0,0,.937,2.633C2040.454,2441.74,2040.314,2446.43,2038.821,2451.577Z" transform="translate(-2020.78 -2430.504)" fill="#ecb984"/>
              </g>
              <g id="Grupo_1013501" data-name="Grupo 1013501" transform="translate(10.71 31.793)">
                <path id="Trazado_716361" data-name="Trazado 716361" d="M2046.5,2438.718a13.743,13.743,0,0,1-4.555,5.388,13.421,13.421,0,0,1-3.7,1.778,13.688,13.688,0,0,1-6.565.413,7,7,0,0,0,.85-3.732c-.068-1.892,8.191-7.6,11.747-9.973l.517-.233a5.526,5.526,0,0,1,1.072-.394A31.352,31.352,0,0,0,2046.5,2438.718Z" transform="translate(-2031.677 -2431.966)" fill="#dba060"/>
              </g>
              <g id="Grupo_1013502" data-name="Grupo 1013502">
                <path id="Trazado_716362" data-name="Trazado 716362" d="M2019.376,2355.415s-3.426,9.2-11.282,9.094-12.345-6.835-13.161-15.507a81.586,81.586,0,0,1,0-18.364c.51-3.775,9.325-12.242,16.752-8.162s10.1,16.055,9.681,20.475S2020.521,2353.092,2019.376,2355.415Z" transform="translate(-1994.429 -2321.391)" fill="#ecb984"/>
              </g>
              <g id="Grupo_1013503" data-name="Grupo 1013503" transform="translate(7.677 19.534)">
                <path id="Trazado_716363" data-name="Trazado 716363" d="M2023.167,2389.331a8.55,8.55,0,0,1-.779,6.123,11.488,11.488,0,0,0-1.158,2.257,2.014,2.014,0,0,0,.466,2.092,2.465,2.465,0,0,0,1.856.442,4.57,4.57,0,0,0,2.009-.558,2.335,2.335,0,0,0,1.03-1.727,4.8,4.8,0,0,1-1.28,1.156,3.773,3.773,0,0,1-2.172.3,1.213,1.213,0,0,1-.964-1.084,3.278,3.278,0,0,1,.582-2.04A8.824,8.824,0,0,0,2023.167,2389.331Z" transform="translate(-2021.129 -2389.331)" fill="#dba060"/>
              </g>
              <g id="Grupo_1013504" data-name="Grupo 1013504" transform="translate(3.711 20.16)">
                <path id="Trazado_716364" data-name="Trazado 716364" d="M2009.431,2393.237c.02.967-.433,1.761-1.012,1.773s-1.064-.763-1.084-1.73.433-1.762,1.012-1.773S2009.411,2392.269,2009.431,2393.237Z" transform="translate(-2007.335 -2391.507)" fill="#4d2b22"/>
              </g>
              <g id="Grupo_1013505" data-name="Grupo 1013505" transform="translate(14.982 19.015)">
                <path id="Trazado_716365" data-name="Trazado 716365" d="M2048.628,2389.253c.02.966-.432,1.759-1.01,1.771s-1.062-.761-1.082-1.727.432-1.759,1.01-1.771S2048.609,2388.287,2048.628,2389.253Z" transform="translate(-2046.536 -2387.525)" fill="#4d2b22"/>
              </g>
              <g id="Grupo_1013506" data-name="Grupo 1013506" transform="translate(7.967 34.355)">
                <path id="Trazado_716366" data-name="Trazado 716366" d="M2022.234,2441.7a2.855,2.855,0,0,0,.318.423,5.017,5.017,0,0,0,1.131.816,4.743,4.743,0,0,0,5.525-.759c.175-.164,1.049-.983.82-1.247-.191-.219-.823.239-1.034.333a8.451,8.451,0,0,1-6.624.169C2022.059,2441.311,2022.108,2441.492,2022.234,2441.7Z" transform="translate(-2022.136 -2440.876)" fill="#cc8f52"/>
              </g>
            </g>
            <g id="ear" transform="translate(30.707 22.759)">
              <g id="Grupo_1013507" data-name="Grupo 1013507">
                <path id="Trazado_716367" data-name="Trazado 716367" d="M2084.921,2385.942s1.951-2.508,3.113-2.787,3.345.093,3.391,3.3-.232,5.25-2.23,6.411-3.67,1.208-4.274.558S2084.921,2385.942,2084.921,2385.942Z" transform="translate(-2084.652 -2383.08)" fill="#ecb984"/>
              </g>
              <g id="Grupo_1013508" data-name="Grupo 1013508" transform="translate(1.038 2.264)">
                <path id="Trazado_716368" data-name="Trazado 716368" d="M2088.264,2393.861s.679-3.105,2.35-2.9,2.58,5.244-1.86,5.8c0,0,.981-.909.874-1.644C2089.418,2393.693,2088.264,2393.861,2088.264,2393.861Z" transform="translate(-2088.264 -2390.956)" fill="#e6b078"/>
              </g>
              <g id="Grupo_1013509" data-name="Grupo 1013509" transform="translate(1.682 2.202)">
                <path id="Trazado_716369" data-name="Trazado 716369" d="M2090.506,2392a1.748,1.748,0,0,1,1.838-1.257c1.558,0,2.148,3.542.536,4.609,0,0,.8-2.2.31-3.341C2092.756,2390.99,2091.731,2390.821,2090.506,2392Z" transform="translate(-2090.503 -2390.739)" fill="#dba060"/>
              </g>
            </g>
            <g id="Grupo_1013510" data-name="Grupo 1013510" transform="translate(2.39 2.193)">
              <path id="Trazado_716370" data-name="Trazado 716370" d="M2017.727,2330.177a7.625,7.625,0,0,1-4.118,5.489,25.682,25.682,0,0,0-1.043-8.326,9.973,9.973,0,0,0-3.032-4.385,7.206,7.206,0,0,0-1.687-1.015,6.352,6.352,0,0,0-.993-.326,17.887,17.887,0,0,0-3.388-.283,6.894,6.894,0,0,1-3.275-.789,3.712,3.712,0,0,1-1.732-1.994,4.724,4.724,0,0,1-2.681,3.4c-1.357.722-2.9,1.125-4.173,1.956a6.279,6.279,0,0,0-.523.376,7.656,7.656,0,0,0-2.521,4.651,19.094,19.094,0,0,0-.174,4.38c.015.339.035.677.054,1.013-.085-.108-.166-.218-.246-.33a11.875,11.875,0,0,1-1.711-9.365c.054-.216.114-.428.177-.64a15.411,15.411,0,0,1,5.253-7.4,24.663,24.663,0,0,1,8.852-4.248c3.393-.93,7.217-1.306,10.264.451a11.017,11.017,0,0,1,4.355,5.2c.087.2.17.394.251.594.243.611.453,1.234.64,1.865.405,1.364.7,2.765.993,4.162A15.083,15.083,0,0,1,2017.727,2330.177Z" transform="translate(-1986.165 -2311.55)" fill="#582f1b"/>
            </g>
            <g id="Grupo_1013511" data-name="Grupo 1013511" transform="translate(4.419 23.952)">
              <path id="Trazado_716371" data-name="Trazado 716371" d="M1993.417,2387.227c.015.337.035.675.054,1.011-.085-.108-.166-.218-.246-.33C1993.288,2387.68,1993.351,2387.455,1993.417,2387.227Z" transform="translate(-1993.224 -2387.227)" fill="#4d2819"/>
            </g>
            <g id="Grupo_1013512" data-name="Grupo 1013512" transform="translate(24.071 9.22)">
              <path id="Trazado_716372" data-name="Trazado 716372" d="M2071.452,2347.589a7.626,7.626,0,0,1-4.118,5.489,25.68,25.68,0,0,0-1.043-8.326,9.972,9.972,0,0,0-3.032-4.385,7.2,7.2,0,0,0-1.687-1.014,34.606,34.606,0,0,0,7.79-3.364c.243.611.453,1.234.64,1.865.405,1.363.7,2.765.993,4.162A15.079,15.079,0,0,1,2071.452,2347.589Z" transform="translate(-2061.572 -2335.989)" fill="#472517"/>
            </g>
            <g id="Grupo_1013513" data-name="Grupo 1013513" transform="translate(6.429 21.07)">
              <path id="Trazado_716373" data-name="Trazado 716373" d="M2000.215,2380.087s3.13-3.746,6.342-.95C2006.557,2379.137,2003.684,2374.215,2000.215,2380.087Z" transform="translate(-2000.215 -2377.206)" fill="#582f1b"/>
            </g>
            <g id="Grupo_1013514" data-name="Grupo 1013514" transform="translate(4.419 22.511)">
              <path id="Trazado_716374" data-name="Trazado 716374" d="M2013.967,2382.217l-20.743,2.121.347,5.646,8.717-.839-.281-4.638,2.882-.343.446,4.69,8.864-1.007Zm-19.469,6.777-.295-3.976,6.943-.7.251,3.986Zm11.736-.962-.332-4.2,7.115-.744.28,4.072Z" transform="translate(-1993.224 -2382.217)" fill="#2e2d30"/>
            </g>
            <g id="Grupo_1013515" data-name="Grupo 1013515" transform="translate(24.733 23.074)">
              <path id="Trazado_716375" data-name="Trazado 716375" d="M2072.7,2384.175a5.317,5.317,0,0,0-1.229,1.256l-7.594.127.343-1.383Z" transform="translate(-2063.874 -2384.175)" fill="#2e2d30"/>
            </g>
            <g id="Grupo_1013516" data-name="Grupo 1013516" transform="translate(17.552 19.409)">
              <path id="Trazado_716376" data-name="Trazado 716376" d="M2038.9,2374.352s2.9-4.047,6.818-.751C2045.716,2373.6,2041.917,2368.241,2038.9,2374.352Z" transform="translate(-2038.898 -2371.426)" fill="#582f1b"/>
            </g>
          </g>
          <g id="åùê_ù_2_" data-name="åùê´ù_2_" transform="translate(18.923 46.2)">
            <g id="Grupo_1013517" data-name="Grupo 1013517">
              <path id="Trazado_716377" data-name="Trazado 716377" d="M1957.9,2579.013c-6.706,7.049-21.175,5.21-21.175,5.21,5.5-10.845-3.756-23.643-6.938-25.574s-7.176-1.4-8.58-2.984c-1.365-1.538,2.588-7.066,2.8-7.361-2.644,2.632-10.707,7.533-17.9,5.6s-20.188,0-20.188,0c2.613-1.957,24-5.24,26.745-10.869,2.405-4.927-.033-20.8-1.965-26.973a11.4,11.4,0,0,0-.776-1.987c-.442-.788-.877-1.562-1.257-2.337-1.277-2.611-1.947-5.261-.255-8.646,2.195-4.394,4.53-7.55,4.389-11.668s-1.257-13.457-1.257-13.457c2.541-1.716,8.69-3.076,8.69-3.076.119-.162.234-.318.349-.468,4.083-5.353,7.159-4.736,7.159-4.736a.955.955,0,0,0-.133.075c-2.008,1.155-2,4.327-1.54,6.959a18.826,18.826,0,0,0,1.024,3.728c.65,1.477,2.19,10.584,2.19,10.584,2.356-1.346,8.317-9.429,11.411-14.719a26.754,26.754,0,0,0,1.6-3.078,19.667,19.667,0,0,0,1.3-8.632c3.726,1.477,4.306,5.909,4.306,5.909s.439.089,1.136.248c2.244.51,7.136,1.749,8.344,3.087,1.164,1.3,1.089,25.317.97,39.178-.035,3.812-.07,6.856-.087,8.445v.091c0,.418-.007.731-.007.916,0,.157,0,.341.012.55,0,.1.009.215.016.33.056,1.07.194,2.644.4,4.483q.038.361.084.736c0,.03.007.061.01.091.049.43.1.874.159,1.328.033.264.065.528.1.794s.068.538.1.811.072.547.11.823c.741,5.425,1.8,11.413,2.87,13.931C1964.046,2550.924,1965.289,2571.245,1957.9,2579.013Z" transform="translate(-1885.92 -2464.608)" fill="#f5e8d0"/>
            </g>
            <g id="Grupo_1013518" data-name="Grupo 1013518" transform="translate(46.402 28.32)">
              <path id="Trazado_716378" data-name="Trazado 716378" d="M2074.226,2602.6c-.344-2.541-2.5-5-4.336-6.626-4.249-3.773-9.157-6.541-13.792-9.785-3.055-2.138-6.321-4.48-8.243-7.762a2.854,2.854,0,0,1-.519-1.926,10.763,10.763,0,0,1,.838-2.381c.878-.647,2.306,2.292,3.023,2.811s7.606,6.659,8.074,6.147a17.48,17.48,0,0,0,4.628-7.409c.178-.545-14.378-3.7-14.24-4.283a6.374,6.374,0,0,1,1.037-1.446c2.8.738,15.244,3.749,15.244,3.749l-.282-10.588c.191.8,4.273,9.82,7.671,20.1-.035,3.813-.07,6.856-.087,8.45a.293.293,0,0,0,0,.087c0,.418-.007.731-.007.916,0,.157,0,.341.012.55,0,.1.009.215.016.329.056,1.07.194,2.644.4,4.483q.042.361.084.736c0,.031.007.061.01.091.052.432.1.874.159,1.328.033.264.065.528.1.795s.068.54.1.811S2074.188,2602.329,2074.226,2602.6Z" transform="translate(-2047.305 -2563.105)" fill="#ebdbc1"/>
            </g>
            <g id="Grupo_1013519" data-name="Grupo 1013519" transform="translate(38.088 26.43)">
              <path id="Trazado_716379" data-name="Trazado 716379" d="M2018.39,2613.8s3.38-5.1,4.3-9.595,1.487-44.761.975-47.67c0,0-.278,13.476-.467,17.4-.138,2.857-.416,19.988-.6,22.1S2022.448,2607.6,2018.39,2613.8Z" transform="translate(-2018.39 -2556.531)" fill="#e6d0ad"/>
            </g>
            <g id="Grupo_1013520" data-name="Grupo 1013520" transform="translate(43.354 5.91)">
              <path id="Trazado_716380" data-name="Trazado 716380" d="M2036.714,2508.546s15.884-9.261,18.844-13.2c0,0-5.532-2.2-5.407-2.2s6.644-.693,6.644-.693-.1-5.151-1.469-7.281a13.585,13.585,0,0,1,1.912,7.708l-5.56.488,4.876,1.863s-9.757,8.64-19.727,13.51C2036.66,2508.813,2036.714,2508.546,2036.714,2508.546Z" transform="translate(-2036.706 -2485.163)" fill="#e6d0ad"/>
            </g>
            <g id="Grupo_1013521" data-name="Grupo 1013521" transform="translate(32.448 10.286)">
              <path id="Trazado_716381" data-name="Trazado 716381" d="M2009.373,2529.556s-2.595-18.06-9.84-20.6l4.882-3.089-5.634.673s-.2-2.461,1.86-6.162c0,0-1.8,5.783-1.539,5.737.369-.065,6.132-.558,6.132-.558l-5,3.331s6.041.871,9.45,19.4Z" transform="translate(-1998.775 -2500.383)" fill="#e6d0ad"/>
            </g>
            <g id="Grupo_1013522" data-name="Grupo 1013522" transform="translate(37.859 34.828)">
              <circle id="Elipse_8475" data-name="Elipse 8475" cx="1.523" cy="1.523" r="1.523" fill="#e6d0ad"/>
            </g>
            <g id="Grupo_1013523" data-name="Grupo 1013523" transform="translate(38.088 53.951)">
              <path id="Trazado_716382" data-name="Trazado 716382" d="M2021.436,2653.773a1.523,1.523,0,1,1-1.523-1.523A1.523,1.523,0,0,1,2021.436,2653.773Z" transform="translate(-2018.39 -2652.25)" fill="#e6d0ad"/>
            </g>
            <g id="Grupo_1013524" data-name="Grupo 1013524" transform="translate(37.236 73.379)">
              <path id="Trazado_716383" data-name="Trazado 716383" d="M2018.473,2721.341a1.523,1.523,0,1,1-1.523-1.523A1.523,1.523,0,0,1,2018.473,2721.341Z" transform="translate(-2015.427 -2719.818)" fill="#e6d0ad"/>
            </g>
          </g>
        </g>
        <g id="Grupo_1013525" data-name="Grupo 1013525" transform="translate(41.669 75.365)">
          <path id="Trazado_716384" data-name="Trazado 716384" d="M1968.206,2587l-1.143,1.339a11.407,11.407,0,0,0-.776-1.987c-.442-.788-.877-1.561-1.257-2.337l.425-7.594s3.674-13.113,7.009-9.855C1975.946,2569.964,1968.206,2587,1968.206,2587Z" transform="translate(-1965.029 -2566.042)" fill="#ebdbc1"/>
        </g>
        <g id="Grupo_1013533" data-name="Grupo 1013533" transform="translate(27.194 59.563)">
          <g id="Grupo_1013526" data-name="Grupo 1013526">
            <path id="Trazado_716385" data-name="Trazado 716385" d="M1919.674,2555.913s-7.421-8.1-4.156-17.883,12.577-24.726,16.521-26.949c0,0,4.757,4.1,5.022,8.338S1921.552,2554.345,1919.674,2555.913Z" transform="translate(-1914.688 -2511.081)" fill="#f5e8d0"/>
          </g>
          <g id="Grupo_1013527" data-name="Grupo 1013527" transform="translate(4.975 13.231)">
            <path id="Trazado_716386" data-name="Trazado 716386" d="M1931.991,2574.395s5.315-12.031,7.163-14.968a4.577,4.577,0,0,1,5.018-2.228c1.018.188-2.254,11.551-2.254,11.551Z" transform="translate(-1931.991 -2557.098)" fill="#eadac1"/>
          </g>
          <g id="Grupo_1013531" data-name="Grupo 1013531" transform="translate(16.142 3.999)">
            <g id="Grupo_1013528" data-name="Grupo 1013528">
              <path id="Trazado_716387" data-name="Trazado 716387" d="M1975.768,2538.148a6.033,6.033,0,0,0,1.056-1.553,5.14,5.14,0,0,0,0-1.8,4.332,4.332,0,0,1,.066-1.576c.347-1.194,1.848-1.427,2.4-2.5.442-.853.5-1.475-.365-1.575,0,0,1.641-.53,1.487-1.52-.2-1.3-2.711-.354-2.711-.354a6.519,6.519,0,0,0,1.935-1.116c.348-.488-.151-1.486-2.081-1.06a16.853,16.853,0,0,0-4.777,2.02c-1.011.74-1.957,4.1-1.917,4.884s1.173,2.771.093,4.12S1975.768,2538.148,1975.768,2538.148Z" transform="translate(-1970.83 -2524.991)" fill="#ecb984"/>
            </g>
            <g id="Grupo_1013529" data-name="Grupo 1013529" transform="translate(3.429 4.154)">
              <path id="Trazado_716388" data-name="Trazado 716388" d="M1987.431,2539.437a6.718,6.718,0,0,0-4.675,2.128A11.5,11.5,0,0,1,1987.431,2539.437Z" transform="translate(-1982.756 -2539.437)" fill="#dba060"/>
            </g>
            <g id="Grupo_1013530" data-name="Grupo 1013530" transform="translate(2.19 2.242)">
              <path id="Trazado_716389" data-name="Trazado 716389" d="M1983.226,2532.79a7.906,7.906,0,0,0-3.291,1.079,3.934,3.934,0,0,0-1.489,1.687A9.485,9.485,0,0,1,1983.226,2532.79Z" transform="translate(-1978.447 -2532.79)" fill="#dba060"/>
            </g>
          </g>
          <g id="Grupo_1013532" data-name="Grupo 1013532" transform="translate(3.857 14.78)">
            <path id="Trazado_716390" data-name="Trazado 716390" d="M1945.536,2565.042a10.243,10.243,0,0,0-5.2-2.54,1.32,1.32,0,0,0-1.335.619,109.118,109.118,0,0,0-9.777,15.113s-3,13.769.817,14.673c3.767.894,13.673-8.257,15.94-26.719A1.314,1.314,0,0,0,1945.536,2565.042Z" transform="translate(-1928.101 -2562.486)" fill="#f5e8d0"/>
          </g>
        </g>
        <g id="Grupo_1013545" data-name="Grupo 1013545" transform="translate(51.806 53.996)">
          <g id="Grupo_1013539" data-name="Grupo 1013539" transform="translate(0 18.734)">
            <g id="Grupo_1013538" data-name="Grupo 1013538">
              <g id="Grupo_1013536" data-name="Grupo 1013536">
                <g id="Grupo_1013534" data-name="Grupo 1013534" transform="translate(0 1.947)">
                  <path id="Trazado_716391" data-name="Trazado 716391" d="M2001.951,2577.443a8.019,8.019,0,0,0-1.426,2.957,8.261,8.261,0,0,0-.213,1.3,8.07,8.07,0,0,0,15.286,4.207c.035-.066.066-.137.1-.207a8.059,8.059,0,0,0,.549-1.68,7.531,7.531,0,0,0,.146-.992c.007-.083.014-.165.018-.249a8.289,8.289,0,0,0-.011-1.042c0-.038,0-.072-.009-.11s0-.052-.005-.079l-.009-.064q-.021-.2-.053-.4c-.011-.072-.023-.143-.036-.212-.009-.037-.015-.073-.023-.11s-.014-.073-.02-.109c-.021-.1-.046-.2-.071-.3-.007-.027-.014-.053-.02-.082-.014-.047-.029-.1-.042-.146s-.022-.071-.032-.1l-.029-.1-.036-.1c-.01-.035-.024-.068-.034-.1-.033-.1-.071-.2-.11-.3l-.041-.1c-.011-.032-.025-.065-.039-.1s-.031-.065-.045-.1a.7.7,0,0,0-.037-.081c-.062-.139-.128-.277-.2-.41-.014-.027-.029-.057-.045-.085s-.037-.068-.056-.1a.749.749,0,0,1-.038-.071c-.03-.048-.059-.1-.089-.146s-.05-.087-.076-.129-.062-.1-.091-.14c-.043-.067-.074-.112-.1-.156-.041-.06-.077-.107-.11-.156l-.1-.139c-.042-.057-.08-.1-.116-.149q-.114-.144-.231-.281l-.12-.134c-.041-.046-.082-.09-.124-.133l-.126-.13c-.047-.046-.086-.088-.129-.129a8.316,8.316,0,0,0-.757-.645c-.031-.025-.063-.047-.1-.071-.094-.072-.193-.14-.294-.205l-.049-.034a1.814,1.814,0,0,1-.709-1.058c0-.019-.007-.04-.011-.058-.007-.04-.013-.076-.018-.115a1.113,1.113,0,0,1-.011-.175,1.25,1.25,0,0,1,0-.187l.831-9.849-5.861-.494-.83,9.846a1.768,1.768,0,0,1-1.05,1.47A8.108,8.108,0,0,0,2001.951,2577.443Z" transform="translate(-2000.286 -2563.651)" fill="#85e0eb"/>
                </g>
                <g id="Grupo_1013535" data-name="Grupo 1013535" transform="translate(5.437)">
                  <path id="Trazado_716392" data-name="Trazado 716392" d="M2020.6,2558.837l5.562.469c.54.046,1.524-.312,1.569-.852s-.865-1.057-1.4-1.1l-5.562-.469c-.54-.046-1.524.312-1.57.852S2020.063,2558.792,2020.6,2558.837Z" transform="translate(-2019.196 -2556.878)" fill="#85e0eb"/>
                </g>
              </g>
              <g id="Grupo_1013537" data-name="Grupo 1013537" transform="translate(0.406 1.946)" opacity="0.1" style="mix-blend-mode: multiply;isolation: isolate">
                <path id="Trazado_716393" data-name="Trazado 716393" d="M2001.7,2584.865a8.067,8.067,0,0,0,14.907,1.04.653.653,0,0,1,.1-.207,8.054,8.054,0,0,0,.7-2.673c.007-.083.013-.166.017-.248a8.085,8.085,0,0,0-2.566-6.345c-.641-.6-1.588-.979-1.8-1.908,0-.02-.009-.04-.012-.06-.008-.038-.013-.076-.018-.115a1.6,1.6,0,0,1-.013-.173,1.682,1.682,0,0,1,.006-.189l.83-9.848-5.86-.494-.183,2.173c.765-1.823,3.769-1.335,4.739-.985.941.341-1.437,8.547-.493,9.828.336.456.71.94,1.059,1.377a4.69,4.69,0,0,1,.973,3.568c-.292,2.1-1.056,4.57-2.952,5.975C2008.242,2587.722,2003.874,2586.8,2001.7,2584.865Z" transform="translate(-2001.698 -2563.647)"/>
              </g>
            </g>
          </g>
          <g id="Grupo_1013543" data-name="Grupo 1013543" transform="translate(3.225 22.177)">
            <g id="Grupo_1013540" data-name="Grupo 1013540">
              <path id="Trazado_716394" data-name="Trazado 716394" d="M2023.556,2579.769s-3.931-.132-4.285-1.149a6.163,6.163,0,0,0-1.944-2.481c-.442-.258-3.475.758-3.836.581a1.2,1.2,0,0,1,.052-1.959s-1.619.623-1.952-.117c-.345-.766.313-1.709,2.077-2.685a2.649,2.649,0,0,1,.966-2.258,14.009,14.009,0,0,1,4.764-.836c.751.092,2.535,1.836,3.716,4.365a4.307,4.307,0,0,0,2.562,1.811C2026.516,2575.219,2023.556,2579.769,2023.556,2579.769Z" transform="translate(-2011.503 -2568.854)" fill="#ecb984"/>
            </g>
            <g id="Grupo_1013541" data-name="Grupo 1013541" transform="translate(2.165 2.093)">
              <path id="Trazado_716395" data-name="Trazado 716395" d="M2019.033,2577.147a6.267,6.267,0,0,1,1.9-.9,15.109,15.109,0,0,1,3.459,0s-2.606.147-3.426.311-1.847.668-1.836.593S2019.033,2577.147,2019.033,2577.147Z" transform="translate(-2019.033 -2576.134)" fill="#dba060"/>
            </g>
            <g id="Grupo_1013542" data-name="Grupo 1013542" transform="translate(2.04 4.464)">
              <path id="Trazado_716396" data-name="Trazado 716396" d="M2018.6,2585.824a6.14,6.14,0,0,1,2.235-1.312,8.394,8.394,0,0,1,3.031.051,19.665,19.665,0,0,0-3.146.376A21.921,21.921,0,0,0,2018.6,2585.824Z" transform="translate(-2018.6 -2584.381)" fill="#dba060"/>
            </g>
          </g>
          <g id="Grupo_1013544" data-name="Grupo 1013544" transform="translate(14.744)">
            <path id="Trazado_716397" data-name="Trazado 716397" d="M2072.645,2491.727c.537-.135,4.675,2,6.153,4.151s8.359,37.5-1.248,41.939c-8.792,4.058-23.277-8.661-25.672-10.849a.958.958,0,0,1-.308-.779c.232-3.04.741-4.737,2.385-6.268a.6.6,0,0,1,.606-.128l15.8,5.662s-.4-11.422,0-14.781S2072.645,2491.727,2072.645,2491.727Z" transform="translate(-2051.567 -2491.721)" fill="#f5e8d0"/>
          </g>
        </g>
      </g>
      <g id="Grupo_1013547" data-name="Grupo 1013547" transform="translate(3.086 114.029)">
        <rect id="Rectángulo_347366" data-name="Rectángulo 347366" width="203.029" height="6.409" rx="3.205" fill="#d39b67"/>
      </g>
    </g>
  </g>
</svg>
