<svg xmlns="http://www.w3.org/2000/svg" xmlns:xlink="http://www.w3.org/1999/xlink" width="112.64" height="88.49" viewBox="0 0 112.64 88.49">
  <defs>
    <clipPath id="clip-path">
      <rect id="Rect치ngulo_346614" data-name="Rect치ngulo 346614" width="86.238" height="86.238" fill="none"/>
    </clipPath>
    <clipPath id="clip-path-2">
      <rect id="Rect치ngulo_346374" data-name="Rect치ngulo 346374" width="20.178" height="45.944" transform="translate(0 0)" fill="none" stroke="#12263f" stroke-width="1"/>
    </clipPath>
  </defs>
  <g id="Grupo_1002615" data-name="Grupo 1002615" transform="translate(-1007.693 -471.748)">
    <g id="g4884" transform="translate(1007.693 474)">
      <g id="g4886" transform="translate(0 0)">
        <g id="Grupo_1002607" data-name="Grupo 1002607" transform="translate(0 0)">
          <g id="Grupo_1002606" data-name="Grupo 1002606" clip-path="url(#clip-path)">
            <g id="g4888" transform="translate(0 0)">
              <g id="g4894" transform="translate(1.263 51.956)">
                <path id="path4896" d="M65.474,411.288c11.567,0,16.543,1.532,16.543,3.83,0,4.443-8.458,1.532-8.458,5.823,0,4.148,19.9,1.379,20.15,5.976.153,2.819-5.216,3.469-12.314,3.677-7.9.232-17.04-.919-17.165,2.758-.129,3.827,7.96,1.453,7.96,5.9,0,6.821-40.669,6.668-40.669,0,0-4.443,8.09-2.069,7.96-5.9-.124-3.677-9.266-2.526-17.165-2.758-7.1-.208-12.466-.858-12.314-3.677.249-4.6,20.15-1.827,20.15-5.976,0-4.29-8.458-1.379-8.458-5.823,0-2.3,4.975-3.83,16.543-3.83Z" transform="translate(-10 -411.288)" fill="#baeefc"/>
              </g>
              <g id="g4898" transform="translate(40.512 71.263)">
                <path id="path4900" d="M335.676,566.88c.071-2.1,3.08-2.624,7.117-2.732-6.51-.055-12.574-.258-12.676,2.732-.129,3.827,7.96,1.453,7.96,5.9,0,3.079-8.289,4.737-17.384,5.016,10.958.334,22.942-1.313,22.942-5.016,0-4.443-8.09-2.069-7.96-5.9" transform="translate(-320.694 -564.123)" fill="#a2e1f8"/>
              </g>
              <g id="g4902" transform="translate(51.179 51.956)">
                <path id="path4904" d="M418.778,420.94c0-4.29,8.458-1.379,8.458-5.822,0-2.3-4.975-3.831-16.543-3.831h-5.558c11.568,0,16.543,1.532,16.543,3.831,0,4.443-8.458,1.532-8.458,5.822,0,4.148,19.9,1.379,20.15,5.976.153,2.819-5.216,3.469-12.314,3.677l-.453.012c1.974.018,4.032.046,6.011-.012,7.1-.209,12.466-.858,12.314-3.677-.249-4.6-20.15-1.828-20.15-5.976" transform="translate(-405.135 -411.287)" fill="#a2e1f8"/>
              </g>
              <g id="g4906" transform="translate(29.32 20.3)">
                <path id="path4908" d="M245.9,160.693l-11.933,20.669a13.779,13.779,0,1,0,23.866,0Z" transform="translate(-232.096 -160.693)" fill="#82d5f2"/>
              </g>
              <g id="g4910" transform="translate(51.447 7.158)">
                <path id="path4912" d="M413.417,56.667l-5.324,9.222a6.148,6.148,0,1,0,10.648,0Z" transform="translate(-407.26 -56.667)" fill="#baeefc"/>
              </g>
              <g id="g4914" transform="translate(30.059 1.263)">
                <path id="path4916" d="M242.251,10l-3.72,6.443a4.3,4.3,0,1,0,7.439,0Z" transform="translate(-237.95 -10)" fill="#82d5f2"/>
              </g>
              <g id="g4918" transform="translate(0 50.693)">
                <path id="Trazado_711936" data-name="Trazado 711936" d="M43.293,436.833a70.294,70.294,0,0,1-14.359-1.3c-4.987-1.1-7.412-2.738-7.412-5.02,0-3.318,3.151-4.005,5.236-4.46,2.212-.483,2.747-.756,2.725-1.394-.024-.715-1.4-1.078-2.546-1.256a55.041,55.041,0,0,0-7.955-.264c-1.79.017-3.641.035-5.438-.018-6.5-.191-10.884-.7-12.686-2.661a3.148,3.148,0,0,1-.852-2.347c.187-3.458,5.778-3.9,11.7-4.376,2.2-.176,4.285-.342,5.936-.65,2.038-.38,2.455-.821,2.514-.9-.008-.85-.6-1.148-3.124-1.582a11.442,11.442,0,0,1-3.311-.911,3.547,3.547,0,0,1-2.023-3.313c0-3.475,5.658-5.094,17.806-5.094a1.263,1.263,0,0,1,0,2.527,55.214,55.214,0,0,0-12.3,1.016c-2.354.587-2.976,1.271-2.976,1.551,0,.957.6,1.281,3.235,1.733a11.431,11.431,0,0,1,3.234.88A3.43,3.43,0,0,1,22.68,412.2c0,2.365-2.986,3.025-3.968,3.241a54.126,54.126,0,0,1-6.808.808,54.121,54.121,0,0,0-6.962.835c-1.879.428-2.4.93-2.414,1.159a.618.618,0,0,0,.189.5c1.443,1.569,8.314,1.771,10.9,1.846,1.748.051,3.574.034,5.339.017a56.361,56.361,0,0,1,8.367.293c3.041.472,4.617,1.706,4.684,3.667a3.164,3.164,0,0,1-1.764,3.018,11.079,11.079,0,0,1-2.948.929c-2.437.532-3.248.894-3.248,1.992,0,.471,1.134,1.61,5.427,2.553a68.765,68.765,0,0,0,13.817,1.243,65.972,65.972,0,0,0,13.6-1.227c4.193-.933,5.3-2.088,5.3-2.568,0-1.1-.811-1.46-3.248-1.992a11.079,11.079,0,0,1-2.948-.929,3.165,3.165,0,0,1-1.763-3.018c.066-1.961,1.642-3.195,4.683-3.667a56.327,56.327,0,0,1,8.367-.293c1.766.017,3.592.034,5.339-.017a1.263,1.263,0,1,1,.074,2.526c-1.8.053-3.648.035-5.438.018a55.017,55.017,0,0,0-7.955.264c-1.148.178-2.522.541-2.546,1.256-.022.638.513.911,2.725,1.394,2.085.455,5.236,1.142,5.236,4.46,0,2.3-2.381,3.944-7.279,5.034A68.509,68.509,0,0,1,43.293,436.833Z" transform="translate(-0.001 -401.288)"/>
              </g>
              <g id="g4922" transform="translate(55.474 50.693)">
                <path id="Trazado_711937" data-name="Trazado 711937" d="M462.824,422.685a1.263,1.263,0,0,1-.161-2.516c3.037-.394,4.754-1.094,4.709-1.92-.012-.229-.535-.731-2.414-1.159a54.122,54.122,0,0,0-6.962-.835,54.12,54.12,0,0,1-6.808-.808c-.981-.217-3.967-.876-3.967-3.241A3.43,3.43,0,0,1,449.209,409a11.433,11.433,0,0,1,3.234-.881c2.631-.453,3.235-.777,3.235-1.733,0-.28-.622-.965-2.976-1.551a55.212,55.212,0,0,0-12.3-1.016,1.263,1.263,0,0,1,0-2.527c12.148,0,17.806,1.619,17.806,5.094a3.547,3.547,0,0,1-2.023,3.313,11.441,11.441,0,0,1-3.311.911c-2.523.434-3.116.732-3.124,1.582.059.077.476.519,2.514.9,1.651.308,3.733.474,5.936.65,5.92.472,11.511.919,11.7,4.377.2,3.642-4.964,4.311-6.907,4.563A1.262,1.262,0,0,1,462.824,422.685Z" transform="translate(-439.136 -401.288)"/>
              </g>
              <g id="g4926" transform="translate(28.053 19.036)">
                <path id="Trazado_711938" data-name="Trazado 711938" d="M237.136,194.556a15.042,15.042,0,0,1-13.027-22.563l5.468-9.471a1.263,1.263,0,0,1,2.188,1.263l-5.468,9.471a12.516,12.516,0,1,0,21.678,0l-10.839-18.773-1.87,3.239a1.263,1.263,0,1,1-2.188-1.263l2.964-5.134a1.263,1.263,0,0,1,2.188,0l11.933,20.668a15.042,15.042,0,0,1-13.027,22.563Z" transform="translate(-222.07 -150.693)"/>
              </g>
              <g id="g4930" transform="translate(41.856 50.957)">
                <path id="Trazado_711939" data-name="Trazado 711939" d="M332.6,410.266a1.263,1.263,0,0,1,0-2.527,7.387,7.387,0,0,0,6.463-3.731,1.263,1.263,0,0,1,2.188,1.263A9.887,9.887,0,0,1,332.6,410.266Z" transform="translate(-331.334 -403.376)"/>
              </g>
              <g id="g4934" transform="translate(50.181 5.895)">
                <path id="Trazado_711940" data-name="Trazado 711940" d="M404.662,67.637a7.411,7.411,0,0,1-6.418-11.117l5.324-9.222a1.263,1.263,0,0,1,2.188,0l5.324,9.222a7.411,7.411,0,0,1-6.418,11.117Zm0-17.18-4.23,7.327a4.885,4.885,0,1,0,8.46,0Z" transform="translate(-397.239 -46.667)"/>
              </g>
              <g id="g4938" transform="translate(28.793)">
                <path id="Trazado_711941" data-name="Trazado 711941" d="M233.5,15.412a5.558,5.558,0,0,1-4.814-8.337L232.4.632a1.263,1.263,0,0,1,2.188,0l3.72,6.443a5.558,5.558,0,0,1-4.814,8.337Zm0-11.622-2.626,4.548a3.032,3.032,0,1,0,5.251,0Z" transform="translate(-227.93)"/>
              </g>
            </g>
          </g>
        </g>
      </g>
    </g>
    <g id="Grupo_1002608" data-name="Grupo 1002608" transform="matrix(0.656, 0.755, -0.755, 0.656, 1107.096, 471.748)">
      <g id="Grupo_1002212" data-name="Grupo 1002212" clip-path="url(#clip-path-2)">
        <path id="Trazado_707910" data-name="Trazado 707910" d="M15,1.5C9.476,12.543,10.089,29.267,11.93,41.536" fill="none" stroke="#12263f" stroke-linecap="round" stroke-linejoin="round" stroke-width="3"/>
        <path id="Trazado_707911" data-name="Trazado 707911" d="M1.5,35.242c3.681,3.681,7.976,6.135,11.656,9.2a34.1,34.1,0,0,1,5.522-10.429" fill="none" stroke="#12263f" stroke-linecap="round" stroke-linejoin="round" stroke-width="3"/>
      </g>
    </g>
  </g>
</svg>
