<svg xmlns="http://www.w3.org/2000/svg" xmlns:xlink="http://www.w3.org/1999/xlink" width="92.666" height="126.456" viewBox="0 0 92.666 126.456">
  <defs>
    <clipPath id="clip-path">
      <rect id="Rect치ngulo_346374" data-name="Rect치ngulo 346374" width="20.178" height="45.944" transform="translate(0 0)" fill="none" stroke="#12263f" stroke-width="1"/>
    </clipPath>
  </defs>
  <g id="Grupo_1002616" data-name="Grupo 1002616" transform="translate(-1270.8 -257.792)">
    <g id="Grupo_1002342" data-name="Grupo 1002342" transform="translate(-62.371 -52.09)">
      <g id="Grupo_1002315" data-name="Grupo 1002315" transform="translate(1347.438 436.338) rotate(-135)">
        <g id="Grupo_1002212" data-name="Grupo 1002212" clip-path="url(#clip-path)">
          <path id="Trazado_707910" data-name="Trazado 707910" d="M15,1.5C9.476,12.543,10.089,29.267,11.93,41.536" fill="none" stroke="#12263f" stroke-linecap="round" stroke-linejoin="round" stroke-width="3"/>
          <path id="Trazado_707911" data-name="Trazado 707911" d="M1.5,35.242c3.681,3.681,7.976,6.135,11.656,9.2a34.1,34.1,0,0,1,5.522-10.429" fill="none" stroke="#12263f" stroke-linecap="round" stroke-linejoin="round" stroke-width="3"/>
        </g>
      </g>
    </g>
    <g id="Grupo_1013249" data-name="Grupo 1013249" transform="translate(1283.768 257.793)">
      <g id="Grupo_1013246" data-name="Grupo 1013246" transform="translate(16.578 2.298)">
        <g id="Grupo_1013245" data-name="Grupo 1013245" transform="translate(0 0)">
          <rect id="Rect치ngulo_347292" data-name="Rect치ngulo 347292" width="42.807" height="29.024" transform="translate(0 37.071) rotate(-59.999)" fill="#8aa8bd"/>
        </g>
      </g>
      <path id="Trazado_715979" data-name="Trazado 715979" d="M86.585,200.977a7.736,7.736,0,0,1-10.941,0,7.736,7.736,0,0,1-10.941,0,7.736,7.736,0,0,1-10.941,0,7.736,7.736,0,0,1-10.941,0,7.736,7.736,0,0,1-10.941,0,7.736,7.736,0,0,1-10.941,0,7.736,7.736,0,0,1-10.941,0v46.858H86.585V200.977Z" transform="translate(-8.443 -169.693)" fill="#6d92ac"/>
      <path id="Trazado_715980" data-name="Trazado 715980" d="M86.585,264.992a7.736,7.736,0,0,1-10.941,0,7.736,7.736,0,0,1-10.941,0,7.736,7.736,0,0,1-10.941,0,7.736,7.736,0,0,1-10.941,0,7.736,7.736,0,0,1-10.941,0,7.736,7.736,0,0,1-10.941,0,7.736,7.736,0,0,1-10.941,0v36.894H86.585V264.992Z" transform="translate(-8.443 -223.743)" fill="#33d6f5"/>
      <g id="Grupo_1013247" data-name="Grupo 1013247" transform="translate(18.688 0.965)">
        <path id="Trazado_715981" data-name="Trazado 715981" d="M337.733,118.219a1.557,1.557,0,0,1-1.346-2.335L345.5,100.1a1.557,1.557,0,0,1,2.7,1.557l-9.113,15.785A1.556,1.556,0,0,1,337.733,118.219Z" transform="translate(-302.537 -84.826)"/>
        <path id="Trazado_715982" data-name="Trazado 715982" d="M121.623,39.817a1.557,1.557,0,0,1-1.347-2.335l17.608-30.5a1.557,1.557,0,1,1,2.7,1.557l-17.608,30.5A1.556,1.556,0,0,1,121.623,39.817Z" transform="translate(-120.067 -6.206)"/>
      </g>
      <path id="Trazado_715983" data-name="Trazado 715983" d="M190.567,126.116a1.549,1.549,0,0,1-.777-.209L163.971,111a1.557,1.557,0,1,1,1.557-2.7l25.82,14.907a1.557,1.557,0,0,1-.78,2.9Z" transform="translate(-137.791 -91.27)"/>
      <path id="Trazado_715984" data-name="Trazado 715984" d="M78.141,240.948H1.555A1.557,1.557,0,0,1,0,239.391V192.533a1.557,1.557,0,0,1,2.657-1.1,6.18,6.18,0,0,0,8.74,0,1.557,1.557,0,0,1,2.2,0,6.18,6.18,0,0,0,8.74,0,1.557,1.557,0,0,1,2.2,0,6.187,6.187,0,0,0,8.74,0,1.557,1.557,0,0,1,2.2,0,6.179,6.179,0,0,0,8.739,0,1.557,1.557,0,0,1,2.2,0,6.186,6.186,0,0,0,8.739,0,1.557,1.557,0,0,1,2.2,0,6.179,6.179,0,0,0,8.74,0,1.557,1.557,0,0,1,2.2,0,6.187,6.187,0,0,0,8.74,0,1.557,1.557,0,0,1,2.657,1.1v46.858A1.557,1.557,0,0,1,78.141,240.948Zm-75.03-3.113H76.585V195.5a9.321,9.321,0,0,1-9.384-.919,9.3,9.3,0,0,1-10.941,0,9.3,9.3,0,0,1-10.941,0,9.3,9.3,0,0,1-10.941,0,9.3,9.3,0,0,1-10.941,0,9.3,9.3,0,0,1-10.941,0,9.321,9.321,0,0,1-9.384.919Z" transform="translate(0 -161.249)"/>
      <path id="Trazado_715985" data-name="Trazado 715985" d="M8.041,260.372a9.239,9.239,0,0,1-6.344-2.5,1.557,1.557,0,1,1,2.127-2.273,6.152,6.152,0,0,0,8.589-.146,1.557,1.557,0,0,1,2.2,0,6.187,6.187,0,0,0,8.74,0,1.557,1.557,0,0,1,2.2,0,6.187,6.187,0,0,0,8.74,0,1.557,1.557,0,0,1,2.2,0,6.187,6.187,0,0,0,8.739,0,1.557,1.557,0,0,1,2.2,0,6.187,6.187,0,0,0,8.739,0,1.557,1.557,0,0,1,2.2,0,6.187,6.187,0,0,0,8.74,0,1.557,1.557,0,0,1,2.2,0,6.194,6.194,0,0,0,8.709.03,1.557,1.557,0,1,1,2.187,2.216,9.323,9.323,0,0,1-12,.9,9.316,9.316,0,0,1-10.941,0,9.317,9.317,0,0,1-10.941,0,9.317,9.317,0,0,1-10.941,0,9.317,9.317,0,0,1-10.941,0,9.317,9.317,0,0,1-10.94,0,9.239,9.239,0,0,1-5.325,1.778Z" transform="translate(-1.018 -215.3)"/>
      <path id="Trazado_715986" data-name="Trazado 715986" d="M8.041,196.356a9.24,9.24,0,0,1-6.344-2.5,1.557,1.557,0,0,1,2.127-2.273,6.152,6.152,0,0,0,8.589-.146,1.557,1.557,0,0,1,2.2,0,6.18,6.18,0,0,0,8.74,0,1.557,1.557,0,0,1,2.2,0,6.187,6.187,0,0,0,8.74,0,1.557,1.557,0,0,1,2.2,0,6.179,6.179,0,0,0,8.739,0,1.557,1.557,0,0,1,2.2,0,6.186,6.186,0,0,0,8.739,0,1.557,1.557,0,0,1,2.2,0,6.179,6.179,0,0,0,8.74,0,1.557,1.557,0,0,1,2.2,0,6.2,6.2,0,0,0,8.709.03,1.557,1.557,0,1,1,2.187,2.216,9.322,9.322,0,0,1-12,.9,9.316,9.316,0,0,1-10.941,0,9.316,9.316,0,0,1-10.94,0,9.3,9.3,0,0,1-10.943,0,9.316,9.316,0,0,1-10.939,0,9.3,9.3,0,0,1-10.942,0,9.24,9.24,0,0,1-5.324,1.778Z" transform="translate(-1.018 -161.249)"/>
      <path id="Trazado_715987" data-name="Trazado 715987" d="M88.253,336.769a9.224,9.224,0,0,1-5.471-1.778,9.3,9.3,0,0,1-12.042-.944,1.557,1.557,0,0,1,2.2-2.2,6.18,6.18,0,0,0,8.74,0,1.557,1.557,0,0,1,2.2,0,6.18,6.18,0,0,0,8.74,0,1.557,1.557,0,1,1,2.2,2.2A9.232,9.232,0,0,1,88.253,336.769Z" transform="translate(-59.346 -279.806)"/>
      <path id="Trazado_715988" data-name="Trazado 715988" d="M299.11,336.769a9.224,9.224,0,0,1-5.47-1.778,9.3,9.3,0,0,1-12.042-.944,1.557,1.557,0,0,1,2.2-2.2,6.18,6.18,0,0,0,8.739,0,1.557,1.557,0,0,1,2.2,0,6.18,6.18,0,0,0,8.74,0,1.557,1.557,0,0,1,2.2,2.2A9.233,9.233,0,0,1,299.11,336.769Z" transform="translate(-237.379 -279.806)"/>
      <path id="Trazado_715989" data-name="Trazado 715989" d="M158.539,413.164a9.278,9.278,0,0,1-5.47-1.775,9.309,9.309,0,0,1-12.042-.942,1.557,1.557,0,0,1,2.2-2.2,6.187,6.187,0,0,0,8.74,0,1.557,1.557,0,0,1,2.2,0,6.187,6.187,0,0,0,8.739,0,1.557,1.557,0,0,1,2.2,0,6.187,6.187,0,0,0,8.739,0,1.557,1.557,0,0,1,2.2,2.2,9.309,9.309,0,0,1-12.042.942A9.278,9.278,0,0,1,158.539,413.164Z" transform="translate(-118.691 -344.312)"/>
      <path id="Trazado_715990" data-name="Trazado 715990" d="M78.143,295H1.557A1.557,1.557,0,0,1,0,293.442V256.549a1.557,1.557,0,1,1,3.113,0v35.337H76.587V256.549a1.557,1.557,0,1,1,3.113,0v36.894A1.557,1.557,0,0,1,78.143,295Z" transform="translate(-0.002 -215.3)"/>
      <path id="Trazado_715991" data-name="Trazado 715991" d="M316.307,54.495a1.532,1.532,0,0,1-.3-.031,1.584,1.584,0,0,1-.291-.089,1.532,1.532,0,0,1-.269-.143,1.475,1.475,0,0,1-.237-.193,1.508,1.508,0,0,1-.193-.237,1.548,1.548,0,0,1-.143-.269,1.453,1.453,0,0,1-.089-.291,1.494,1.494,0,0,1,0-.607,1.45,1.45,0,0,1,.089-.291,1.548,1.548,0,0,1,.143-.269,1.494,1.494,0,0,1,.193-.237,1.584,1.584,0,0,1,.237-.195,1.532,1.532,0,0,1,.269-.143,1.584,1.584,0,0,1,.291-.089,1.539,1.539,0,0,1,.607,0,1.578,1.578,0,0,1,.291.089,1.531,1.531,0,0,1,.269.143,1.589,1.589,0,0,1,.236.195,1.474,1.474,0,0,1,.193.237,1.536,1.536,0,0,1,.143.269,1.463,1.463,0,0,1,.089.291,1.5,1.5,0,0,1,0,.607,1.466,1.466,0,0,1-.089.291,1.536,1.536,0,0,1-.143.269,1.516,1.516,0,0,1-.43.429,1.531,1.531,0,0,1-.269.143,1.579,1.579,0,0,1-.291.089A1.534,1.534,0,0,1,316.307,54.495Z" transform="translate(-265.756 -43.384)"/>
      <g id="Grupo_1013248" data-name="Grupo 1013248" transform="translate(35.139 -0.001)">
        <path id="Trazado_715992" data-name="Trazado 715992" d="M363.058,81.491a1.55,1.55,0,0,1-.777-.209l-7.789-4.5a1.557,1.557,0,0,1,1.557-2.7l7.789,4.5a1.557,1.557,0,0,1-.78,2.9Z" transform="translate(-333.794 -62.38)"/>
        <path id="Trazado_715993" data-name="Trazado 715993" d="M235.091,7.609a1.55,1.55,0,0,1-.777-.209l-7.789-4.5a1.557,1.557,0,1,1,1.557-2.7l7.789,4.5a1.557,1.557,0,0,1-.78,2.9Z" transform="translate(-225.747 0.001)"/>
      </g>
    </g>
  </g>
</svg>
