<svg xmlns="http://www.w3.org/2000/svg" xmlns:xlink="http://www.w3.org/1999/xlink" width="78.611" height="123.609" viewBox="0 0 78.611 123.609">
  <defs>
    <clipPath id="clip-path">
      <rect id="Rectángulo_346374" data-name="Rectángulo 346374" width="20.178" height="45.944" transform="translate(0 0)" fill="none" stroke="#12263f" stroke-width="1"/>
    </clipPath>
  </defs>
  <g id="Grupo_1002617" data-name="Grupo 1002617" transform="translate(-993.101 -153.731)">
    <g id="Grupo_1002605" data-name="Grupo 1002605" transform="matrix(-0.946, 0.326, -0.326, -0.946, 1071.712, 270.771)">
      <g id="Grupo_1002212" data-name="Grupo 1002212" clip-path="url(#clip-path)">
        <path id="Trazado_707910" data-name="Trazado 707910" d="M15,1.5C9.476,12.543,10.089,29.267,11.93,41.536" fill="none" stroke="#12263f" stroke-linecap="round" stroke-linejoin="round" stroke-width="3"/>
        <path id="Trazado_707911" data-name="Trazado 707911" d="M1.5,35.242c3.681,3.681,7.976,6.135,11.656,9.2a34.1,34.1,0,0,1,5.522-10.429" fill="none" stroke="#12263f" stroke-linecap="round" stroke-linejoin="round" stroke-width="3"/>
      </g>
    </g>
    <g id="Grupo_1013251" data-name="Grupo 1013251" transform="translate(993.101 153.691)">
      <path id="Trazado_715994" data-name="Trazado 715994" d="M128.636,304.476l15.6-3.971a4.312,4.312,0,1,1,2.924,8.114l-20.492,6.871a11.5,11.5,0,0,1-8.575-1.189l-15.1-8.663a5.752,5.752,0,0,0-4.263-.6l-3.019.752-.032,0c-.016-.138-4.542-17.076-4.542-17.076a2.811,2.811,0,0,0-.178-.484l.042-.02,12.763-3.42a5.752,5.752,0,0,1,4.364.573l20.343,11.746a4.314,4.314,0,0,1,.173,7.365Z" transform="translate(-77.876 -243.644)" fill="#ffbfab"/>
      <g id="Grupo_1013250" data-name="Grupo 1013250" transform="translate(1.398 1.477)">
        <path id="Trazado_715995" data-name="Trazado 715995" d="M328.1,28.8a14.308,14.308,0,0,1,2.415,7.976c0,7.939-6.435,14.805-14.374,14.805s-14.374-6.866-14.374-14.805a14.308,14.308,0,0,1,2.415-7.976l11.959-18.759Z" transform="translate(-259.78 -10.038)" fill="#00aadf"/>
        <path id="Trazado_715996" data-name="Trazado 715996" d="M18.059,298.529a2.875,2.875,0,0,1,3.343,1.548c.2.407,4.693,17.325,4.72,17.561a2.874,2.874,0,0,1-2.112,3.106l-8.33,2.232L9.728,300.761Z" transform="translate(-9.724 -256.968)" fill="#00aadf"/>
      </g>
      <path id="Trazado_715997" data-name="Trazado 715997" d="M71.494,413.006a1.438,1.438,0,1,0-1.761-1.016A1.438,1.438,0,0,0,71.494,413.006Z" transform="translate(-59.665 -351.174)"/>
      <path id="Trazado_715998" data-name="Trazado 715998" d="M6,302.919a1.437,1.437,0,0,0,1.76,1.016l8.329-2.232a4.339,4.339,0,0,0,3.116-3.351l2.021-.5a4.3,4.3,0,0,1,3.2.453l15.1,8.661a12.87,12.87,0,0,0,9.647,1.337c.035-.009.07-.019.1-.03L69.774,301.4l.03-.01a5.75,5.75,0,0,0-3.827-10.844l-11.909,3.032a5.749,5.749,0,0,0-2.725-6.294L31,275.536a7.141,7.141,0,0,0-5.454-.717l-11.827,3.169A4.309,4.309,0,0,0,9.4,276.711l-8.331,2.232A1.438,1.438,0,0,0,.049,280.7ZM26.289,277.6a4.284,4.284,0,0,1,3.273.43l20.344,11.747a2.875,2.875,0,0,1-2.875,4.979l-12.448-7.187a1.437,1.437,0,0,0-1.437,2.49l12.448,7.187a5.715,5.715,0,0,0,5.751,0c16.355-4.167,15.412-3.918,15.535-3.962a2.875,2.875,0,0,1,1.965,5.4l-20.422,6.848a10.012,10.012,0,0,1-7.457-1.055l-15.1-8.661a7.157,7.157,0,0,0-5.329-.75l-1.648.41-3.972-14.826ZM5.975,280.6l2.6,9.719a1.437,1.437,0,0,0,2.777-.744l-2.6-9.719,1.388-.372A1.438,1.438,0,0,1,11.9,280.5l4.464,16.664a1.443,1.443,0,0,1-1.017,1.758l-6.942,1.86L3.2,281.349Z" transform="translate(0 -235.062)"/>
      <path id="Trazado_715999" data-name="Trazado 715999" d="M307.83,44.456c12.361,0,20.2-14.455,13.163-25L309.043.7a1.437,1.437,0,0,0-2.424,0L294.667,19.451C287.654,29.972,295.44,44.456,307.83,44.456Zm-10.764-23.42.017-.026L307.83,4.151l10.747,16.858.017.026c5.775,8.644-.7,20.545-10.764,20.545C297.825,41.581,291.27,29.711,297.066,21.035Z" transform="translate(-250.035 0)"/>
      <path id="Trazado_716000" data-name="Trazado 716000" d="M393.436,169.459c5.454,0,10.062-4.805,10.062-10.493a10.013,10.013,0,0,0-1.686-5.579,1.437,1.437,0,0,0-2.391,1.6,7.147,7.147,0,0,1,1.2,3.983c0,4.058-3.358,7.618-7.187,7.618a1.437,1.437,0,1,0,0,2.875Z" transform="translate(-335.641 -130.753)"/>
    </g>
  </g>
</svg>
